<?xml version="1.0" encoding="utf-8"?>
<COLLADA xmlns="http://www.collada.org/2005/11/COLLADASchema" version="1.4.1" xmlns:xsi="http://www.w3.org/2001/XMLSchema-instance">
  <asset>
    <contributor>
      <author>Blender User</author>
      <authoring_tool>Blender 2.90.1 commit date:2020-09-23, commit time:06:43, hash:3e85bb34d0d7</authoring_tool>
    </contributor>
    <created>2020-10-05T22:39:47</created>
    <modified>2020-10-05T22:39:47</modified>
    <unit name="meter" meter="1"/>
    <up_axis>Z_UP</up_axis>
  </asset>
  <library_images/>
  <library_geometries>
    <geometry id="Link04_realsense-mesh" name="Link04 realsense">
      <mesh>
        <source id="Link04_realsense-mesh-positions">
          <float_array id="Link04_realsense-mesh-positions-array" count="1734">-12.18983 0 5.5 -11.52057 0.553348 4.24516 -11.41553 -1.246807 4.925204 -11.41553 -0.9319486 6.508162 -11.4168 0.9448899 6.589968 -8.406911 -0.5540893 4.212014 -8.408891 1.35074 5.830023 -8.410385 -0.9125006 6.631034 -8.412184 2.669808 9.638589 -8.4086 -2.648821 9.616258 -8.408713 -2.5 4.056624 -8.408713 0 2.613249 -8.408713 2.5 4.056624 -5.908712 2.5 4.056624 -5.908712 -2.5 4.056624 -5.908712 0 2.613249 -8.833375 -3.28698 9.978158 -8.843492 3.285999 9.977014 -5.915796 0.3580516 4.143758 -5.908712 -0.9260253 6.515534 -5.908712 -1.251988 4.933115 -5.944465 1.188113 6.337946 -5.851315 -2.880662 9.891413 -5.856439 2.711961 9.812434 -4.575478 -1.41322 5.869513 -4.506575 -0.9521667 4.368402 -4.522346 0.8219492 4.222848 -4.506668 1.446087 5.736593 -4.549107 0.2216411 7.011412 -4.488665 0.153211 -4.019552 -4.507064 -1.113212 -4.524042 -4.560543 1.237888 -4.700922 -4.567449 -1.194177 -6.412187 -4.569858 1.009881 -6.643115 -4.383635 -4.878628 10 -4.365389 -4.900727 -10 -1.289065 -4.919648 10 -1.298848 -4.896763 -10 -4.379137 4.881196 -10 -4.365389 4.900727 10 -1.289065 4.919648 -10 -1.298848 4.896763 10 -0.8230761 4.015415 -9.999717 -0.5076776 4.006356 10.00069 -0.8230761 -4.015415 9.999717 -0.5076776 -4.006356 -10.00069 -0.2822445 5.9063 -10 -0.3024129 5.926468 10 -0.2822445 -5.9063 10 -0.3024129 -5.926468 -10 -3.402092 -6.277118 10 -3.379137 -6.118804 -10 -3.16181 -6.017785 10 -3.373502 6.103419 -10 -3.366529 6.111603 10 -5.944651 -1.187784 -6.33829 -5.908712 0.9260253 -6.515534 -5.908712 1.251988 -4.933115 -5.915796 -0.3580516 -4.143758 -3.405936 -9.485187 4.130559 -3.407535 -9.782338 -4.244973 -3.401799 -10.42541 -6.011245 -3.408712 -8.123713 -4.669444 -3.410982 -8.215654 -6.645619 -3.408375 -10.41471 6.230548 -3.408712 -7.922303 4.933115 -3.408712 -8.248266 6.515534 -3.47161 -12.44116 10 -3.452392 -12.4031 -10 1.824256 -12.13992 10 2.219771 -12.24233 -10 5.71981 -14.30855 10 7.024444 -15.76756 -10.00083 8.128395 -18.91115 10.00081 8.022451 -20.86551 -10 6.582804 -24.66642 10 6.338166 -24.99364 -10 3.099842 -27.44982 10 2.718781 -27.59718 -10 -1.329523 -27.95872 10 -1.730667 -27.88122 -10 -5.352983 -26.03775 10 -6.529968 -24.8681 -10.00196 -7.742124 -22.2734 10 -7.454401 -16.62799 9.998291 -8.060857 -19.63749 -10 -6.637822 -15.41218 -10 -1.881115 -11.96032 9.999501 -1.837422 -12.02396 -10 -5.947573 -10.39057 -6.256825 -5.908712 -8.248266 -6.515534 -5.908712 -7.922303 -4.933115 -5.909658 -9.484979 -4.130504 -5.909889 -9.782338 4.244973 -5.908712 -8.123713 4.669444 -5.925176 -8.224213 6.652447 -5.915025 -10.42548 6.011262 -3.405776 9.485219 -4.130566 -3.407535 9.782338 4.244973 -3.408712 8.123713 4.669444 -3.408712 7.922303 -4.933115 -3.455706 12.40726 10 -3.409994 8.215694 6.645601 -3.401757 10.42541 6.011243 -3.409638 10.41472 -6.230594 -3.47161 12.44116 -10 -3.408712 8.248266 -6.515534 -6.637822 15.41218 10 -7.4544 16.628 -9.998622 -8.060857 19.63749 10 -6.529968 24.8681 10.00196 -7.742124 22.2734 -10 -5.352983 26.03775 -10 -1.730667 27.88122 10 -1.329523 27.95872 -10 2.718781 27.59718 10 3.099842 27.44982 -10 6.338166 24.99364 10 6.582804 24.66642 -10 8.022451 20.86551 10 8.128395 18.91115 -10.00081 7.024444 15.76756 10.00083 5.71981 14.30855 -10 2.219771 12.24233 10 1.824256 12.13992 -10 -1.837422 12.02396 10 -1.881115 11.96032 -9.999501 -5.925274 8.224299 -6.652516 -5.915025 10.42548 -6.011262 -5.909889 9.782338 -4.244973 -5.908712 8.123713 -4.669444 -5.908712 7.922303 4.933115 -5.909658 9.484979 4.130504 -5.947363 10.39092 6.256437 -5.908712 8.248266 6.515534 -1.908397 10.52739 -5.158289 -1.908712 7.922303 4.933115 -1.909241 9.534096 4.156551 -1.911782 9.534227 -6.84336 -1.855983 6.370539 -10 -1.908712 7.922303 -6.066885 -1.869584 6.362804 10 -1.911759 10.41501 6.218118 -1.905585 8.580884 -4.188623 -1.908712 8.248266 6.515534 2.069645 6.347276 -9.999277 2.115366 6.403967 9.999996 -0.05798071 8.719361 -6.947566 0.01497352 10.30238 -6.394689 -0.05607068 10.54225 -4.940575 0.1014154 9.837046 -3.856938 -0.2600467 7.987745 -4.900082 0.1570729 8.412905 -3.520119 0.1368824 7.023018 -5.59562 0.0931496 11.43833 -4.82007 0.09148496 8.369383 -7.667072 0.08919125 10.68472 -7.257021 0.001125276 8.229755 4.367496 -0.01879578 9.829437 4.179576 0.006010413 10.66 5.280738 -0.02881461 9.722124 6.946587 -0.07368963 7.733 5.882995 0.088808 6.839508 5.551381 0.09186798 8.95197 3.092056 0.09327161 11.43832 4.819622 0.08921843 10.68472 7.25701 0.09148496 8.369383 7.667072 2.521933 6.973421 4.763123 2.864866 7.568487 -7.19613 4.317599 10.02688 -7.649406 5.3831 11.56201 -5.559497 3.902084 9.377963 -3.085386 2.521114 6.973555 -4.762918 2.865052 7.567724 7.195581 3.908309 9.373736 3.084831 5.382709 11.56203 5.558714 4.317599 10.02688 7.649406 8.082946 15.30949 9.9986 7.550592 14.52672 -9.999609 9.502346 18.8871 -10 9.543144 19.32064 10 8.852668 23.62814 -10 8.678406 24.02721 10 5.988248 27.4615 -10 5.642524 27.72626 10 0.7197276 29.72204 -9.999561 1.195004 29.49237 10 -4.980558 28.38034 9.999561 -5.303499 27.96279 -10 -8.496341 24.39833 -10 -8.687678 24.00717 10 -9.563583 19.73351 -10 -9.541551 19.29862 10 -8.359535 15.01944 -10.00025 -8.370737 15.04571 10.00028 -1.905585 -8.580884 4.188623 -1.869584 -6.362804 -10 -1.908712 -7.922303 -4.933115 -1.908397 -10.52739 5.158289 -1.908712 -8.248266 -6.515534 -1.911759 -10.41501 -6.218118 -1.855983 -6.370539 10 -1.911782 -9.534227 6.84336 -1.908712 -7.922303 6.066885 -1.909153 -9.534096 -4.156549 0.007529437 -10.61701 -5.463642 0.02034467 -10.17968 -6.61971 -0.02380919 -8.561699 -6.881064 0.005460917 -7.755261 -5.647101 -0.03901714 -8.162877 -4.422775 -0.003743112 -9.894058 -4.196851 0.08913314 -10.68472 -7.257004 0.09348732 -11.43833 -4.819708 0.09147328 -8.951988 -3.092081 0.09148496 -8.369383 -7.667072 0.08932608 -6.839509 -5.551402 -0.06007462 -9.630922 4.106814 -0.2600339 -7.987737 4.900096 -0.08329379 -8.720709 6.938798 -0.03186267 -10.6418 5.90879 0.1370301 -7.022926 5.595688 0.1570611 -8.412877 3.520137 0.08986777 -11.27653 4.210031 0.09148496 -8.369383 7.667072 0.08936357 -10.68472 7.257024 2.090666 -6.375121 9.999999 2.112295 -6.403706 -9.999998 2.521113 -6.973555 -4.762918 2.865026 -7.56759 7.195481 4.317599 -10.02688 7.649406 5.383659 -11.56202 5.559351 3.901223 -9.377507 3.085307 2.521933 -6.973421 4.763123 3.909531 -9.374053 -3.08488 5.382092 -11.56205 -5.558848 4.317599 -10.02688 -7.649406 2.86519 -7.567537 -7.195442 8.022111 -15.17016 -9.998634 7.683182 -14.75047 9.998655 -8.36803 -15.06573 10.00024 -8.362977 -14.99871 -10.00024 -9.541551 -19.29862 -10 -9.563583 -19.73351 10 -8.687678 -24.00717 -10 -8.496341 -24.39833 10 -4.980558 -28.38034 -9.999561 -5.303499 -27.96279 10 0.7197276 -29.72204 9.999561 1.195004 -29.49237 -10 5.642524 -27.72626 -10 5.988248 -27.4615 10 8.678406 -24.02721 -10 8.852668 -23.62814 10 9.543144 -19.32064 -10 9.502346 -18.8871 10 -12.30056 -12.77989 -8.577495 -11.6185 -12.47454 8.480523 -9.120112 -13.11372 9.961143 -9.332304 -12.8589 -9.985394 -9.036237 13.1402 -10.02722 -9.073178 13.12516 10.00695 -10.81428 12.36951 -9.595578 -12.79351 13.31078 -8.136539 -11.46609 12.40554 8.754669 -20.09648 -25.13248 -4.745114 -14.74984 -16.63132 -6.680712 -18.65749 -23.40273 -0.01833736 -15.52363 -17.97813 1.189025 -19.95689 25.04877 -4.764316 -18.48243 23.21634 -0.03828394 -15.31048 17.62409 1.514027 -14.6438 16.26754 -6.622138 -23.10683 -26.94167 0.003614246 -25.41998 -27.45888 -4.418761 -37.5 -27.5 0 -42.5 -27.5 0 -60.94014 -27.45009 -2.248101 -52.5 -27.5 0 -57.5 -27.5 0 -47.5 -27.5 0 -32.5 -27.5 0 -61.25091 -27.36755 0 -23.69935 27.21566 0.001334726 -25.41998 27.45888 -4.41876 -61.78073 27.31628 -2.192659 -61.25091 27.36755 0 -64.55882 -24.94152 0.00561726 -64.95833 -23.42187 -1.448224 -63.97775 -25.80469 -2.092757 -64.70764 -15.67502 -2.082115 -65 22.5 0 -64.17612 25.43333 0.007000327 -64.67045 16.08957 -1.955531 -61.69026 -15.18203 -5.617612 -63.40566 -15.2176 -4.450107 -16.96004 -15.46743 -5.904761 -19.30134 -16.06986 -4.903683 -16.07989 -13.05881 -6.016458 -60.79527 -12.96588 -5.870409 -19.16872 -12.45512 -4.895774 -63.97118 -12.82208 -3.814394 -62.69356 -12.65493 -4.967637 -64.95025 -13.07227 -1.561645 -63.96566 -12.39697 -2.148474 -25.02071 -12.45036 -4.441867 -21.42723 -10.07213 -4.65711 -23.97034 -11.96752 -2.240445 -21.57727 -9.606663 -2.254511 -21.42797 9.266805 -2.251801 -24.88934 12.11357 -2.179642 -23.15979 11.55436 -2.467796 -64.95694 13.17261 -1.480087 -25.02071 12.45036 -4.441867 -21.61025 10.27365 -4.652022 -19.87411 12.48882 -4.800417 -64.29062 12.40675 -2.087673 -62.26731 12.66354 -5.229167 -64.12853 12.95836 -3.663183 -60.88789 13.29391 -5.932374 -64.6579 15.42322 -2.465919 -63.27112 14.99995 -4.705933 -16.1737 12.98286 -5.975797 -19.32737 16.06224 -4.901571 -17.95585 15.36371 -5.887598 -61.51295 15.23737 -5.611346 -5.857523 -6.454538 9.836854 -5.85598 11.88631 9.813316 -8.49157 -6.348106 9.861813 -5.851799 -12.03688 9.878538 -5.856288 6.323165 9.862915 -8.490221 6.41006 9.851874 -8.504804 -11.93591 9.848521 -8.408713 -6.674291 4.056624 -5.908712 -6.674291 4.056624 -5.908712 -9.174291 2.613249 -5.908712 -11.67429 4.056624 -8.408713 -11.67429 4.056624 -8.408713 -9.174291 2.613249 -8.408713 -8.248266 6.515534 -8.405968 -10.41542 6.225082 -8.408713 -7.922303 4.933115 -8.407134 -9.483774 4.131 -8.412184 11.8441 9.63859 -8.408713 11.67429 4.056624 -5.908712 11.67429 4.056624 -5.908712 9.174291 2.613249 -5.908712 6.674291 4.056624 -8.408713 9.174291 2.613249 -8.408713 6.674291 4.056624 -8.41456 8.213578 6.643909 -8.398215 10.42586 6.008888 -8.408713 8.123713 4.669444 -8.406901 9.783504 4.246017 -9.915529 7.927484 4.925203 -9.950969 9.499984 4.146038 -10.00104 10.37601 6.229809 -9.915528 8.242342 6.508162 -10.68983 9.174291 5.5 -9.945535 -9.758102 4.242989 -9.912123 -8.118984 4.676194 -9.952122 -8.242354 6.62903 -9.983161 -10.41543 5.997279 -10.68983 -9.174291 5.5 -27.34264 -23.66858 -4.301386 -61.19958 -25.30718 -2.217517 -29.4321 -19.67012 -4.173577 -60.67972 -19.69506 -2.22395 -27.37092 -21.17295 -4.302413 -29.03641 -25.29524 -4.198009 -61.10429 -21.25489 -2.19723 -29.51556 -19.66189 -2.2 -42.5 -25.35 -2.2 -37.5 -25.35 -2.2 -47.5 -25.35 -2.2 -52.5 -25.35 -2.2 -57.5 -25.35 -2.2 -32.5 -25.35 -2.2 -27.31625 -21.06627 -2.203123 -27.92644 -24.74048 -2.202395 -61.16201 19.69195 -2.213612 -29.4321 19.67012 -4.173577 -27.37092 21.17295 -4.302745 -64.49342 25.00402 -2.117207 -27.80038 24.69303 -4.262251 -27.95731 24.78351 -2.202481 -37.5 19.65 -2.2 -32.5 19.65 -2.2 -42.5 19.65 -2.2 -47.5 19.65 -2.2 -52.5 19.65 -2.2 -57.5 19.65 -2.2 -27.15111 22.04879 -2.199973 -28.44281 20.01699 -2.197591 -32.5 24.675 -2.2 -33.53369 23.19069 -2.21106 -34.3459 21.0554 -2.2 -37.5 24.675 -2.2 -36.07841 23.72151 -2.204356 -36.1089 21.37226 -2.203725 -42.5 24.675 -2.2 -41.07841 23.72151 -2.204356 -38.53369 23.19069 -2.21106 -41.1089 21.37226 -2.203725 -39.3459 21.0554 -2.2 -47.5 24.675 -2.2 -44.62902 24.06304 -2.198122 -45.16372 20.89749 -2.201733 -46.64806 22.82133 -2.197828 -43.41241 22.2728 -2.202252 -50.16372 20.89749 -2.201733 -52.5 24.675 -2.2 -49.62902 24.06304 -2.198122 -51.64806 22.82133 -2.197828 -48.41241 22.2728 -2.202252 -58.61849 23.35057 -2.193378 -54.62902 24.06304 -2.198122 -55.16372 20.89749 -2.201733 -56.64806 22.82133 -2.197828 -53.41241 22.2728 -2.202252 -30.53684 21.05098 -2.2 -28.52807 21.76016 -2.200175 -31.61304 22.6317 -2.199912 -29.78021 24.09402 -2.201767 -61.464 21.70334 -2.200592 -59.08658 21.18341 -2.197459 -60.7221 23.92412 -2.199065 -55.14186 24.10666 0.002405107 -53.39275 22.6458 5.90463e-4 -54.6621 20.93653 -0.002469599 -56.64806 22.17867 -0.002172529 -36.57603 22.67567 0 -34.81097 24.14423 -0.002599418 -33.51247 21.81197 0.00421071 -35.6541 21.0554 0 -31.59402 22.28021 0.00178045 -30.1317 24.11304 -8.86613e-5 -28.55098 23.03684 0 -29.26016 21.02807 1.82646e-4 -41.46632 23.19069 0.01105892 -38.9216 23.72151 0.004355132 -38.8911 21.37226 0.003724515 -40.6541 21.0554 0 -50.14186 24.10666 0.002405107 -48.39275 22.6458 5.90463e-4 -49.6621 20.93653 -0.00197643 -51.64806 22.17867 -0.002172529 -60.14186 24.10666 0.002449214 -58.39275 22.6458 5.90463e-4 -59.6621 20.93653 -0.00197643 -61.64446 22.16463 -3.94391e-4 -45.14186 24.10666 0.002405107 -43.39275 22.6458 5.90463e-4 -44.6621 20.93653 -0.002469599 -46.64806 22.17867 -0.002172529 -32.5 25.75 0 -37.5 25.75 0 -42.5 25.75 0 -47.5 25.75 0 -52.5 25.75 0 -28.52807 -21.76016 2.61017e-5 -35 0 0 -45 0 0 -55 0 0 -57.5 25.75 0 -35.18903 -24.14423 -0.002599656 -33.42397 -22.67567 0 -36.48753 -21.81197 0.00421065 -34.3459 -21.0554 0 -41.07841 -23.72151 0.004355192 -38.53369 -23.19069 0.01105904 -39.3459 -21.0554 0 -41.1089 -21.37226 0.003724336 -44.62902 -24.06304 -0.001878917 -43.41241 -22.2728 0.002251923 -46.64806 -22.82133 -0.002172648 -45.16371 -20.8975 0.002165019 -49.62902 -24.06304 -0.001878917 -48.41241 -22.2728 0.002251923 -51.64806 -22.82133 -0.002172648 -50.16372 -20.89749 0.001732826 -56.64806 -22.82133 -0.002172648 -54.62902 -24.06304 -0.001878917 -53.41241 -22.2728 0.002251923 -55.16371 -20.8975 0.002165019 -61.57603 -22.32433 0 -60.73092 -23.91446 0.001390695 -58.61754 -23.34815 0.001739144 -58.66934 -21.77335 0 -60.16372 -20.89749 0.001732826 -29.78021 -24.09402 0.00178045 -30.53684 -21.05098 0 -31.61304 -22.6317 -8.86613e-5 -32.5 -20.325 -2.2 -33.8911 -21.37226 -2.203725 -38.89117 -21.37219 -2.201067 -35.6541 -21.0554 -2.2 -36.46632 -23.19069 -2.211059 -33.9216 -23.72151 -2.204355 -41.46632 -23.19069 -2.211059 -40.6541 -21.0554 -2.2 -38.9216 -23.72151 -2.204355 -47.5 -20.325 -2.2 -44.6621 -20.93653 -2.198024 -43.39275 -22.6458 -2.200591 -45.14186 -24.10666 -2.202405 -46.64806 -22.17867 -2.197828 -50.14186 -24.10666 -2.202405 -48.39275 -22.6458 -2.200591 -52.5 -20.325 -2.2 -49.6621 -20.93653 -2.198024 -51.64806 -22.17867 -2.197828 -55.14186 -24.10666 -2.202405 -53.39275 -22.6458 -2.200591 -58.77126 -21.49582 -2.194347 -54.6621 -20.93653 -2.198024 -56.64806 -22.17867 -2.197828 -30.1317 -24.11304 -2.199947 -28.55098 -23.03684 -2.2 -31.59402 -22.28021 -2.201781 -29.26016 -21.02807 -2.200209 -61.14398 -23.61119 -2.195042 -58.95455 -23.73299 -2.197023 -5.908712 0 -2.613249 -5.908712 2.5 -4.056624 -5.908712 -2.5 -4.056624 -5.863348 2.83154 -9.839535 -5.849609 -2.722916 -9.83687 -8.408713 2.5 -4.056624 -8.408713 0 -2.613249 -8.408713 -2.5 -4.056624 -8.480873 -2.811568 -9.8413 -8.488121 2.77375 -9.870197 -8.407047 0.5540915 -4.212014 -8.408828 -1.350739 -5.830023 -8.410428 0.9125 -6.631034 -11.4168 -0.9448899 -6.589968 -11.41553 0.9319486 -6.508162 -11.41553 1.246807 -4.925204 -11.52057 -0.553348 -4.24516 -12.18983 0 -5.5 -5.847296 6.43428 -9.875733 -5.843902 -11.90641 -9.856719 -8.474453 6.378784 -9.842977 -5.851852 12.03634 -9.878891 -5.872077 -6.36667 -9.808793 -8.503124 -6.402957 -9.867525 -8.407159 11.82331 -9.617231 -5.908712 11.67429 -4.056624 -8.408713 11.67429 -4.056624 -5.908712 9.174291 -2.613249 -5.908712 6.674291 -4.056624 -8.408713 9.174291 -2.613249 -8.408713 6.674291 -4.056624 -8.407134 9.483774 -4.131 -8.408713 7.922303 -4.933115 -8.408713 8.248266 -6.515534 -8.406457 10.41542 -6.225108 -8.410625 -11.84464 -9.63983 -5.908712 -6.674291 -4.056624 -8.408713 -6.674291 -4.056624 -5.908712 -9.174291 -2.613249 -5.908712 -11.67429 -4.056624 -8.408713 -9.174291 -2.613249 -8.408713 -11.67429 -4.056624 -8.408713 -8.123713 -4.669444 -8.406901 -9.783504 -4.246017 -8.398195 -10.42586 -6.008893 -8.414571 -8.213578 -6.643907 -10.00104 -10.37601 -6.229809 -9.915528 -8.242342 -6.508162 -9.915529 -7.927484 -4.925203 -9.950969 -9.499984 -4.146038 -10.68983 -9.174291 -5.5 -9.952122 8.242354 -6.62903 -9.983161 10.41543 -5.997279 -9.945535 9.758102 -4.242989 -9.912123 8.118984 -4.676194 -10.68983 9.174291 -5.5</float_array>
          <technique_common>
            <accessor source="#Link04_realsense-mesh-positions-array" count="578" stride="3">
              <param name="X" type="float"/>
              <param name="Y" type="float"/>
              <param name="Z" type="float"/>
            </accessor>
          </technique_common>
        </source>
        <source id="Link04_realsense-mesh-normals">
          <float_array id="Link04_realsense-mesh-normals-array" count="3393">0.8039438 0.2506452 0.5393066 0.8203408 0.5608876 -0.1115633 0.8044509 0.02641218 -0.5934315 0.7224927 -0.686421 0.08264672 0.1368272 0.3570476 0.9240105 0.1704468 -0.9731078 0.154949 0.04053324 0.04353749 -0.9982292 0.001629173 0.9807854 -0.1950832 -0.1895869 0.9713005 0.1436393 -0.1896731 -0.3274747 -0.9256266 -0.2169048 -0.6321119 0.7438998 0.9999998 6.74208e-4 -2.05286e-4 0.9999996 -9.22541e-4 -4.49266e-5 0.9999995 -3.14596e-4 9.73813e-4 0.9999867 0.004695355 0.002130866 0.9999987 -8.13133e-4 -0.001408636 1 -4.22651e-5 7.31812e-5 0.9999986 0.001542508 -5.92235e-4 0.9999996 7.67907e-4 5.98516e-4 0 -0.9993227 0.03680056 0.0144152 -0.9994335 0.03041261 0 0.999642 0.02675855 0.08326464 0.9944664 0.06405991 0 0.5000001 0.8660255 0 -0.5000001 0.8660255 0.6509104 -0.002748489 0.7591497 0.6182634 0.00108844 0.7859703 -1 0 0 -0.9997556 -0.02165406 0.004460453 -0.999154 0.04042106 0.007585525 -0.9998969 0.002733886 -0.01409834 -0.9999769 -0.005983352 -0.003228902 -0.999673 -5.54964e-4 0.02556991 -0.999839 -0.01627147 0.007577955 -0.9999809 0.003089606 -0.005351483 -0.999934 -0.006604552 0.009405493 -0.04534131 0.5154567 0.8557153 -0.05013978 -0.5075232 0.8601781 0.2580606 0.4262172 0.8670316 0.2791312 -0.8969222 0.3429526 0.39366 -0.07033401 -0.9165616 0.2517683 0.9478861 -0.1952555 -0.1834084 0.5648925 -0.8045234 -0.159894 -0.7092685 -0.6865654 0.3084969 -0.880529 0.3598589 -0.08325797 0.08074903 0.9932511 -0.08754611 0.9533775 0.2888032 0.9999525 0.009163796 0.003342688 0.9954149 0.08876323 -0.03564059 0.9993471 0.03612083 8.71777e-4 0.9805824 0.1702646 0.09730476 0.9981745 -0.05998152 -0.007068276 0.9978613 0.06535607 -0.001224935 0.9977935 0.007996439 0.06591153 0.9982886 -0.001862466 -0.05845189 0.9990733 0.04234522 0.007713556 0.9998872 -0.01009917 -0.01111549 0.9984973 0.001403391 0.05478388 0.9988262 -0.04843121 8.9515e-4 0.999233 0.01027584 -0.03778839 0.999197 -0.04006344 -6.47757e-4 0.9995703 -0.02926284 0.001712679 0.9992934 -0.03748655 -0.002738475 0.0132541 0.9999117 -0.001092731 -0.001292765 0.9999985 0.001144886 -0.8889054 0.45809 9.58978e-4 0.01244246 -0.9999222 9.67959e-4 -0.001292765 -0.9999985 -0.001144886 -0.8889054 -0.45809 -9.58978e-4 -0.7474904 -0.6641735 0.01148676 -0.7474904 0.6641735 -0.01148676 0.9943339 0.1062963 -0.001109898 0.9613333 0.2749633 0.01528435 0.9943339 -0.1062963 0.001109898 0.9613333 -0.2749633 -0.01528435 0.06031048 0.9981796 -4.29474e-4 0.06363737 0.9979727 -9.42179e-4 0.06239086 -0.9980424 0.004363059 0.03868687 -0.999251 9.68658e-4 0.7335293 -0.6796427 -0.00453788 0.08947092 0.08171159 0.992632 0.08030962 -0.9762726 0.2011026 0.1483291 -0.435869 -0.8877031 0.3743828 0.8657103 -0.3322397 0.002335011 0.9990761 -0.04291576 -0.05191117 0.3702268 -0.9274898 0.2520641 -0.5027245 -0.8268808 -0.03047883 -0.9927011 0.1166863 0.0537706 0.1041111 0.9931111 0.9994673 -0.03245919 0.003416895 0.9999985 0.001795411 -3.76592e-5 0.9999998 6.55013e-4 -2.14104e-4 0.9999024 -0.01397079 2.93027e-4 0.9998791 -0.0112766 0.01071149 0.9999452 0.01046282 -5.62024e-4 0.9999723 -0.00737828 0.001089274 0.9999976 4.38404e-4 -0.002147734 0.9999749 -0.00685364 -0.001872301 0.9999297 -0.01165574 0.002206623 0.9995642 -0.029509 9.04347e-4 0.9999167 4.50242e-4 -0.01290589 0.9998745 -0.01584404 -4.11545e-4 0.9999969 -0.002461791 -5.07112e-4 -0.0484119 -0.9988228 0.003072679 -0.4863968 -0.873723 -0.005144715 -0.8857574 -0.4635297 -0.02396386 -0.9655821 0.2593114 -0.02022373 -0.6242799 0.781184 -0.005144894 -0.1141399 0.9934514 -0.005144774 0.4308491 0.9024094 -0.005144715 0.8441644 0.5357707 -0.01834356 0.998448 -0.0508933 -0.02261942 0.7244882 -0.6891772 -0.01231658 0.6866969 -0.7269435 -7.23487e-4 0.9475204 -0.319113 0.01928871 0.9595142 0.2808215 0.02171951 0.5316243 0.8467841 0.01823437 -0.06370753 0.9979554 0.005144953 -0.5839388 0.8117814 0.005144774 -0.9258878 0.3777636 0.005144834 -0.9810906 -0.1920602 0.02396386 -0.5914368 -0.8060977 0.02022379 -0.0537436 -0.9985467 0.004050314 0.0500949 0.1188448 0.9916484 0.02328938 -0.9791706 0.2016995 0.05691355 -0.4561612 -0.8880754 0.0909022 0.9156389 -0.3915891 0.04580205 0.9387196 -0.3416253 -0.07359021 -0.2473047 -0.9661391 -0.08507871 -0.9952931 0.04640394 -0.08860886 0.2745078 0.9574937 -0.03394228 0.9391371 0.3418618 0.07349473 -0.2473058 0.9661462 0.08541369 -0.9951041 -0.04972308 0.08249682 0.2790552 -0.956725 -0.05262291 0.1302334 -0.990086 -0.02033412 -0.9792337 -0.2017127 -0.05691629 -0.4561415 0.8880853 -0.08966845 0.9107812 0.4030354 0.9999998 -6.50659e-4 2.33058e-4 0.9997887 0.02055525 -4.31134e-4 0.9999983 -0.001898765 3.98322e-5 0.9999438 -0.01059222 5.85742e-4 0.9999095 1.36156e-4 0.01345628 0.9994009 0.0344249 -0.003587305 0.9998474 0.01547753 -0.008117496 0.9998915 0.01416325 -0.00407195 0.9999642 0.008273124 0.00182265 0.9998155 0.01920765 -2.45755e-4 0.9999423 -9.81139e-4 0.01070815 0.9999212 0.01229906 0.002533435 0.9997983 0.0200842 -3.56799e-4 0.9995739 0.02918201 -7.45394e-4 0.6865727 0.727061 6.8639e-4 0.9475203 0.3191133 -0.0192883 0.9595142 -0.2808215 -0.02171951 0.5316243 -0.8467841 -0.01823437 -0.06370753 -0.9979554 -0.005144953 -0.5839388 -0.8117814 -0.005144774 -0.9258878 -0.3777636 -0.005144834 -0.9810905 0.1920605 -0.02396386 -0.5914368 0.8060978 -0.02022379 -0.0537436 0.9985467 -0.004050314 -0.0484119 0.9988228 -0.003072679 -0.4863968 0.873723 0.005144715 -0.8857574 0.4635295 0.02396386 -0.965582 -0.2593117 0.02022373 -0.6242799 -0.781184 0.005144894 -0.1141399 -0.9934514 0.005144774 0.4308491 -0.9024094 0.005144715 0.8441644 -0.5357707 0.01834356 0.998448 0.05089211 0.0226193 0.7244881 0.6891773 0.01231652 0.08255553 -0.2790955 0.9567081 -0.03396129 -0.9391372 -0.3418599 0.07348418 0.2473066 -0.9661468 0.08541744 0.9951019 0.04976081 -0.05691677 0.4561348 -0.8880887 -0.08965879 -0.91081 -0.4029721 -0.052652 -0.1302422 0.9900833 -0.02030545 0.9792342 0.2017133 0.05691355 0.4561612 0.8880754 0.09088474 -0.9155632 0.3917704 0.05006688 -0.1190081 -0.9916303 0.02326303 0.9791712 -0.2016991 -0.08850711 -0.2745444 -0.9574925 0.04562187 -0.9387281 0.341626 -0.07359021 0.2473047 0.9661391 -0.08507657 0.9952943 -0.046382 -0.999567 0.02926939 0.003030598 -1 -3.91688e-4 -1.32358e-4 -0.999958 0.008633315 -0.003079593 -0.9999033 -0.004494428 -0.01317036 -0.9999189 -0.007026314 -0.01063317 -0.9998354 0.005680203 0.01723599 -0.9999361 1.46128e-4 0.01130753 -0.9991431 0.04134052 0.002051234 -0.999996 -0.001721322 0.002268195 -0.9994106 -0.03421384 -0.002812802 -0.9999986 -0.001675665 -4.6377e-4 -0.9999977 0.001278758 -0.001767635 -0.999481 -0.03220796 -6.92169e-4 -0.9998823 -0.01502865 0.003095746 0.010329 -0.9999428 0.002810835 -0.005925834 -0.9999824 -3.90779e-4 0.2348057 0.4222109 0.8755595 0.2198631 -0.840613 0.4950051 0.1081493 -0.4431534 -0.8898982 0.193216 0.9257891 -0.324934 -0.1800022 0.5097336 -0.8412913 0.5134294 -0.6832163 -0.5192356 -0.0111522 -0.9866917 0.1622195 -0.08980065 -0.3247001 0.9415444 -0.2513427 0.9190523 0.3035949 0.7144999 0.5780935 -0.3940785 0.948566 0.256665 0.1853263 0.9592621 -0.02897548 -0.2810276 0.9745939 0.1969555 0.1066546 0.9655246 -0.1304932 -0.2252417 0.974524 -0.03817594 0.2210107 0.9962329 -0.06568622 0.05661815 0.9817947 -0.173799 0.07663738 0.9927012 -0.1156626 0.03415554 0.1932073 0.4259222 0.8838899 0.1375453 -0.910766 0.3893416 0.3163155 -0.1285697 -0.9399012 0.2012704 0.9593927 -0.1976251 -0.1677723 0.4677862 -0.8677722 -0.1285568 -0.8630063 -0.4885625 0.3666477 -0.7467186 0.5549603 -0.03025257 0.1162458 0.9927597 -0.06156986 0.9493467 0.3081399 0.9940437 0.03309595 -0.1038367 0.9556161 0.2381622 -0.1734262 0.9536283 0.2277336 0.1968007 0.9849947 0.1436199 0.09570187 0.9962639 0.02221059 0.08345699 0.9932548 -0.1112346 -0.03274053 0.9698956 -0.04154759 -0.2399508 0.9953539 -0.08630967 0.04267728 0.9620612 -0.156046 0.2238032 0.9870532 -0.1477054 -0.06252372 0.85009 -0.5265651 0.008738756 0.8115071 -0.5843425 -7.80831e-5 0.8480353 -0.5298503 -0.009744763 0.8129538 -0.5823282 -2.07822e-4 0.06412297 -0.1739677 0.9826615 0.06349229 -0.9534628 0.2947496 -0.0789572 -0.7234237 -0.6858747 -0.05997836 0.5941018 -0.8021507 -0.05985659 0.9715619 0.2290955 0.1487448 0.8306171 0.5366098 -0.09630125 0.2352304 0.9671571 0.2074355 0.811892 -0.5457122 0.1683782 -0.2206343 -0.9607129 0.1111138 -0.5118116 -0.8518818 -0.06576097 -0.7879038 0.6122772 -0.1241941 0.9678029 -0.218937 0.1670094 0.7478183 0.6425541 0.06448197 -0.5694412 0.8194992 -0.06578856 -0.7880105 -0.6121367 -0.09636574 0.2353951 -0.9671105 0.06412541 -0.1739735 -0.9826603 0.06347846 -0.9534803 -0.2946965 -0.0790162 -0.7228374 0.6864857 -0.06441235 0.5965511 0.7999861 0.1333616 0.8030197 -0.5808393 0.8306984 -0.556651 -0.008930146 0.8659141 -0.5001927 -8.15497e-5 0.8675156 -0.4974086 -0.001215994 0.830717 -0.5566531 0.006844639 0.8160797 -0.577876 -0.008567929 0.8235607 -0.4151145 -0.3865591 0.8276708 -0.5612142 3.00352e-5 0.829961 -0.5578203 -0.001219511 0.8105646 -0.5856478 0.001346111 0.8072861 -0.5901603 2.94293e-5 0.8146814 -0.579813 0.01054841 0.8408848 -0.4383823 0.3173859 0.9127039 -0.4085374 -0.008305132 0.9907291 0.1357625 -0.004963815 0.8010521 0.5985741 -0.004963994 0.3942963 0.9189678 -0.005349397 -0.2803283 0.9597789 -0.01551139 -0.7448673 0.66721 -0.001901865 -0.9748013 0.22302 -0.004963815 -0.9688865 -0.2474682 -0.004313766 -0.9641321 -0.2654231 -1.91373e-4 -0.9839396 0.178433 0.004963815 -0.7627947 0.6466187 0.005349099 -0.1772001 0.9840527 0.01551139 0.3690665 0.929401 0.001902222 0.7729856 0.6344044 0.004963815 0.9835253 0.180703 0.004963874 0.9396584 -0.3420702 0.00549823 -0.9994106 0.03421384 0.002812802 -0.9999986 0.001675605 4.6377e-4 -0.9998823 0.01502877 -0.003095746 -0.9998354 -0.005680203 -0.01723599 -0.9999189 0.007026374 0.01063317 -0.999996 0.001721322 -0.002268195 -0.9999361 -1.46128e-4 -0.01130753 -0.999958 -0.008633315 0.003079593 -0.999481 0.03220796 6.92169e-4 -0.9995655 -0.02931934 -0.00304532 -1 3.2918e-4 1.16288e-4 -0.9999033 0.004494428 0.01317036 -0.9999978 -0.001196861 0.001775383 -0.9991431 -0.04134052 -0.002051234 0.001160919 0.9999994 3.85998e-4 0.01027125 0.9999462 -0.001418054 0.209912 0.1326693 0.9686775 0.1586887 -0.9670256 0.1991969 0.1866987 -0.4264595 -0.8850288 0.1631745 0.907167 -0.3878428 0.2746323 0.8361715 -0.4747573 -0.04554313 -0.1301836 -0.9904434 -0.03547143 -0.9478145 -0.3168429 -0.03292304 -0.8362776 0.547317 0.1819162 0.1616387 0.9699379 -0.04044497 0.9346971 0.3531366 0.9678028 0.1441588 -0.2063401 0.9946624 0.09906733 0.02885454 0.9957635 -0.09177976 0.005618214 0.9964285 0.07685047 -0.03499162 0.9881584 0.02578502 0.1512552 0.9830784 -0.147964 0.1079981 0.9956526 0.008178293 -0.09278577 0.9847763 0.1586894 0.07094705 0.9007142 -0.329144 -0.2835103 0.996307 0.03950291 0.07623505 0.9947175 -0.09512805 0.03857445 0.2813487 0.4275565 0.8590917 0.1932163 -0.9257894 0.3249332 0.2336148 -0.4223331 -0.875819 0.2475111 0.8349115 -0.4915903 -0.1605226 0.463056 -0.8716718 -0.2541117 -0.916944 -0.3076379 -0.2150608 -0.4456858 0.8689725 -0.1417918 0.8623794 0.4860009 0.7144688 -0.5781419 0.394064 0.954529 -0.02716737 0.2968776 0.9484904 -0.2629155 -0.1767527 0.9667356 -0.2236448 -0.1241189 0.9935122 0.07324391 -0.08700007 0.9265803 0.3692266 -0.07156068 0.9949986 0.09295487 0.03656828 0.9664325 0.04394483 -0.2531347 0.8360195 0.1098945 0.5375821 0.8491637 0.5280561 -0.008829653 0.8113932 0.5845008 4.20749e-5 0.8128693 0.5824463 -7.81051e-5 0.8486748 0.5288304 0.009472429 -0.05974537 -0.9716113 -0.228915 0.1488659 -0.8305831 -0.536629 0.06412464 0.1739714 -0.9826607 0.1010147 0.9766372 -0.1896731 -0.1411074 0.6986345 0.7014261 -0.0599271 -0.5941714 0.802103 0.2073622 -0.8119073 0.5457174 0.1698629 0.2270409 0.9589574 -0.06576639 0.7879135 -0.612264 -0.09637862 -0.2354288 -0.9671011 0.1671058 -0.7478337 -0.6425111 0.06449699 0.5694658 -0.8194808 -0.06578415 0.7879999 0.6121508 -0.09638011 -0.2354335 0.9670999 -0.1242769 -0.9678345 0.2187503 0.1333863 -0.8030299 0.5808193 0.06412553 0.1739734 0.9826603 0.06349259 0.953478 0.2947006 -0.0790193 0.7229251 -0.686393 -0.06443184 -0.5965082 -0.8000167 0.8291423 0.5589591 0.009368956 0.8651973 0.5014297 0.001445353 0.8673583 0.4976843 -8.17021e-5 0.8316219 0.5553045 -0.006492972 0.8139706 0.5807818 0.0120204 0.8220807 0.4131836 0.3917432 0.8275224 0.5614329 -1.18145e-4 0.8303572 0.5572297 0.001429677 0.8069698 0.5905927 -1.15481e-4 0.810127 0.5862529 0.001426517 0.8162532 0.5776399 -0.007932841 0.8389207 0.4351764 -0.3268544 -0.9644286 0.2643429 6.42155e-4 -0.9839396 -0.178433 -0.004963815 -0.7627947 -0.6466187 -0.005349099 -0.1772001 -0.9840527 -0.01551139 0.3690665 -0.929401 -0.001902222 0.7729856 -0.6344044 -0.004963815 0.9835253 -0.180703 -0.004963874 0.9389204 0.3440898 -0.005543529 0.9153693 0.4025532 0.007065653 0.9907291 -0.1357625 0.004963815 0.8010521 -0.5985741 0.004963994 0.3942963 -0.9189678 0.005349397 -0.2803283 -0.9597789 0.01551139 -0.7448673 -0.66721 0.001901865 -0.9748013 -0.22302 0.004963815 -0.9687205 0.2481168 0.004328131 -0.2423778 -0.9701323 -0.009814679 -0.9331257 -0.3595474 -0.001440644 -0.9108761 -0.4126565 0.004418373 -0.01778465 -0.9996687 0.01860606 -0.9408514 0.3388163 -0.0014804 -0.3977036 0.917514 -4.44315e-5 0.4377064 0.8990123 0.0137825 -0.2822475 0.9592678 -0.01190876 -0.9391552 0.3434918 -9.77233e-4 -0.8815944 1.99346e-4 0.4720077 -0.8829278 9.99869e-4 0.4695079 0.8391414 -0.5408619 -0.05753558 0.8659327 -0.5001606 -4.54089e-4 0.8416232 -0.5399791 -0.009658753 0.8295727 -0.5579172 -0.02318328 0.8482672 0.5260816 -0.06067174 0.8427312 0.5379391 -0.02063703 0.8710238 0.4911285 -0.01051414 0.8271667 0.5608692 -0.03494548 -0.4473518 -0.005485951 0.8943414 -0.3621541 0.001758754 0.9321166 0.6198901 -0.7787607 0.09627085 0.3933814 -0.9140447 -0.09886074 0 -0.9999568 -0.009306609 0 -0.9997537 -0.02219474 -0.001174807 -0.9998842 -0.01517599 0 -0.9997536 -0.02219748 0.05908554 -0.9945921 0.08541399 0 -0.9999568 -0.009303808 -0.03527206 -0.9988718 0.03179919 0.3959342 0.9123793 -0.1039236 0.6047981 0.7877739 0.1167538 0.004044353 0.9996953 -0.02435261 -5.39395e-4 0.998478 0.05515044 -0.9292274 -0.3519548 -0.1125361 -0.5830401 -0.7953614 0.1657243 -0.4773508 -0.8780645 -0.03375148 -0.6210935 -0.04393094 -0.7825043 -0.9842298 -0.009132206 0.176659 -0.9996073 -1.67361e-4 -0.02802443 -0.9790527 0.0274927 -0.2017422 -0.9632551 0.00369668 0.2685633 -0.6485773 0.759047 -0.05652725 -0.9589937 0.26914 0.08885234 -0.5478335 0.8289219 0.1129913 -0.1675353 -0.9467361 -0.2749962 -0.007238864 -0.9895283 -0.1441574 -0.04355943 -0.8077217 -0.5879524 -0.003356516 -0.04509997 -0.9989769 -0.007085144 -0.1105076 -0.9938501 -0.2997187 0.06538438 -0.9517844 -0.003779828 0.9430068 -0.3327524 2.83258e-4 0.8807152 -0.4736463 -0.3295128 0.9150962 -0.2324222 -0.6298337 0.7531104 -0.1900902 -0.5624677 -0.01066786 -0.8267505 -0.6722776 0.03749805 -0.7393489 -0.9168834 -0.00565356 -0.3991152 -0.8677114 -0.07442307 -0.4914653 -0.9134084 -0.003746926 -0.4070271 -0.4196681 0.0662201 -0.9052589 -0.004109263 0.9956613 -0.09296041 -0.004467844 0.9976719 -0.06805235 -0.0109803 0.9778055 -0.2092269 -0.07728362 0.02657192 -0.9966551 -0.691518 0.6998865 -0.1787787 -0.5469506 0.8335089 0.07815349 -0.9973662 -0.00898987 0.07197171 -0.9979282 0.007903337 -0.06385219 -0.01937508 0.001785039 -0.9998107 -0.006066501 1.91529e-4 -0.9999817 -0.002315998 0.002436518 -0.9999943 -0.002325475 0.002420783 -0.9999943 -0.2430504 -0.2719214 -0.9311205 -0.5096579 -0.00456798 -0.860365 -0.6724505 0.002128839 -0.7401391 -0.5291366 -0.84038 0.1173707 -0.7731352 -0.6036765 -0.194517 -0.3235715 -0.9384452 -0.120922 -0.06940108 -0.01243054 -0.9975114 -0.007702589 -0.9891344 -0.146812 -0.003927886 -0.9964596 -0.08398103 -0.002624034 -0.9896011 -0.1438158 -0.4181031 -0.8430963 -0.3381991 -0.8213267 -0.5067679 -0.2619332 -0.8795301 0.008839607 -0.475761 -0.9892213 0.07684278 -0.1246459 -0.9355006 -0.02991259 -0.3520568 -0.6500662 -0.1109437 -0.751735 -0.8407548 0.07955914 -0.5355387 -0.4580729 0.002263367 -0.8889119 -0.4545204 9.52559e-4 -0.890736 -0.005794465 -0.7389312 -0.673756 1.15857e-4 -0.9220051 -0.3871778 -0.3444358 -0.00979036 -0.9387589 -0.6322687 0.001148045 -0.7747484 -0.3718401 -0.09015566 -0.9239085 -0.4402981 0.003017604 -0.8978466 -0.3892326 3.60144e-5 -0.9211395 -0.3021328 -0.004899859 -0.9532533 -0.3410226 2.39212e-4 -0.9400551 -0.1041954 8.55497e-4 -0.9945566 -0.08451634 -5.11094e-4 -0.996422 -0.361992 0.0154522 -0.9320532 -0.615608 0.003387212 -0.7880452 -0.1880443 -0.1045804 -0.9765768 -0.3164142 0.5088422 -0.8006007 -0.006726145 0.1608657 -0.9869534 -7.16675e-4 0.03648418 -0.999334 -0.05117714 0.6066675 -0.7933067 -0.04426091 0.7851169 -0.6177642 -0.3019092 0.8851094 -0.3541641 -0.003289759 0.9980543 -0.06226372 0 0 1 5.78138e-4 5.79686e-4 0.9999998 -1.39115e-4 -8.8774e-5 1 9.8396e-7 -8.38284e-7 1 -5.3557e-5 -3.8539e-5 1 7.32384e-5 -1.60196e-4 1 8.2206e-4 6.05713e-4 0.9999996 2.41631e-4 -5.13474e-6 1 2.24869e-4 -1.00756e-5 1 5.43735e-7 -2.49031e-4 1 5.90549e-4 -8.08523e-5 0.9999999 0.001152038 0.002066731 0.9999972 5.87131e-7 3.08511e-7 1 -0.7341893 -0.5152806 0.4420996 -0.04970771 0.007406532 0.9987364 2.49911e-5 -2.19958e-4 1 -5.78784e-7 -1.92671e-4 1 -0.1447734 0.01383924 0.9893682 2.0324e-4 2.0813e-4 1 -0.05133879 0.04235005 0.997783 0.001261591 -0.001954793 0.9999974 -2.81696e-5 6.95203e-4 0.9999998 -0.001430392 0.001314222 0.9999982 1.40808e-4 1.05457e-4 1 -0.009472846 0.04800474 0.9988023 -0.06635129 7.483e-4 0.9977961 1.38728e-4 1.35908e-4 1 -1.05674e-4 1.92084e-4 1 -0.04391294 0.04136449 0.9981787 0.001690506 -9.64271e-4 0.9999982 -8.5818e-4 -1.23117e-4 0.9999997 0.0024423 1.78235e-4 0.999997 -0.06520015 -0.01511842 0.9977577 -0.05504256 -7.7967e-4 0.9984838 0.04343122 -0.04321706 0.9981213 0.02925413 0.01585805 0.9994462 -0.07359957 1.37315e-4 0.9972879 -4.19147e-4 4.04811e-4 0.9999999 0.008855402 -0.01527899 0.9998441 0.06131172 0.03302651 0.9975721 -0.05370378 -0.04888445 0.9973597 -0.0794577 0.008891403 0.9967986 -6.19891e-4 0.003694951 0.999993 -0.001044094 0.09484529 0.9954916 -0.06297409 -0.06668823 0.9957846 0.03371489 -0.03419888 0.9988463 -0.4635021 -7.1769e-4 0.8860956 -0.5110168 -0.006340801 0.8595474 0.3012391 0.004131317 0.9535397 5.12051e-4 -0.001746475 0.9999983 0.1851837 -0.002776265 0.9827 0.08287596 0.05186635 0.9952093 0.2494198 -0.008954524 0.9683541 0.1459358 3.96823e-4 0.9892941 0 -0.9992782 0.03799062 -0.03978615 -0.9976663 0.0554893 -0.9996823 0.02392274 0.007943451 -0.9998824 -0.008358001 0.01286458 -0.9999576 -0.003587186 -0.008484065 -0.9999995 -5.30725e-4 -9.19293e-4 -0.9999996 8.16948e-4 -4.1722e-4 -0.9997637 -8.63116e-4 0.02171963 -0.9999954 -3.21184e-4 -0.003024697 -0.999791 -0.01854467 0.008618712 0 0.9989815 0.04512357 0.03726172 0.9973957 0.06175386 0 0.5000001 0.8660253 0 -0.4999999 0.8660255 0 -0.5000001 0.8660253 0.9996525 -0.002429783 0.02624768 0.9996592 -0.002220869 0.02601331 0.9994761 -0.02852386 0.01529353 0.9994667 0.03198128 0.006587743 1 0 0 0.9999992 -6.81423e-4 -0.001179337 0.9999995 -6.91434e-4 -8.64215e-4 0.9999988 0.001400172 -7.55201e-4 0.9998594 0.00964117 0.01372915 0.5244216 0.02587282 0.8510656 -0.05995827 -0.3042975 0.9506882 0 -0.9993225 0.03680533 0.01442515 -0.9994333 0.03041297 -0.9990441 0.04305601 0.007565557 -0.9997906 -0.02004593 0.00412923 -0.9996732 2.83394e-4 0.02556449 -0.9998441 -1.63995e-4 -0.01766312 -0.9999997 4.08306e-4 -7.07479e-4 -0.9999997 -8.37814e-4 -4.52244e-4 -0.9998334 -0.01734912 0.005680859 -0.999944 -0.006082653 0.008660376 0 0.9989623 0.04554694 0.03266197 0.9976617 0.06003701 0 0.4999999 0.8660255 0.9999657 -0.005650162 0.00605601 0.9997429 -0.01842451 0.01322084 0.99978 -0.01373487 0.01585823 0.9999991 -0.001255691 -6.41382e-4 0.9999987 8.16813e-4 -0.001414418 0.999987 4.47727e-4 -0.005090534 0.9999946 -0.001277506 0.003019332 0.9999599 0.008956074 3.49444e-4 0.09349524 0.443728 0.891271 0.1422947 -0.9112432 0.3865076 0.08697623 -0.1254426 -0.9882811 0.03641515 0.9801362 -0.1949537 -0.1230184 -0.2729665 -0.9541257 0.07614868 -0.9369612 0.3410354 -0.1075223 0.2458685 0.9633212 -0.1365842 0.9895856 -0.04544377 0.7560178 -0.5967105 0.2690241 0.8159235 0.2713535 0.5105255 0.8203408 0.5608875 -0.1115631 0.7679555 -0.05249994 -0.638348 -0.05048501 0.9355825 0.3494804 0.1155164 -0.2560085 0.9597478 0.1394922 -0.9884289 -0.05958592 0.1374511 0.2746992 -0.9516552 -0.07218807 0.1324006 -0.9885642 -0.0185846 -0.979267 -0.2017198 -0.09182626 -0.4550729 0.8857069 -0.1321551 0.9056174 0.4029795 0.796601 -0.6041105 -0.0218482 0.8135415 -0.1640291 0.5578932 0.8061358 0.5482206 0.2227087 0.7524805 0.1739246 -0.6352348 -0.06114327 -1.06308e-4 -0.998129 -0.06146103 0.006803631 -0.9980864 -0.04640412 0.008638381 -0.9988854 -0.0622335 -0.02720552 -0.9976909 -0.06099671 -1.15782e-4 -0.998138 -0.06222718 -0.02714854 -0.9976928 -0.06092488 4.83559e-6 -0.9981424 -0.03410774 -0.001407563 -0.9994172 -0.06701737 -0.01157647 -0.9976847 -0.06876879 -0.008796036 -0.9975939 -0.0459479 0.006081223 -0.9989254 -0.04109919 -0.005928039 -0.9991376 -0.06134426 -0.001105964 -0.9981161 0.001061081 -0.9999907 0.004213392 0 0.9996247 0.02739733 0 0.9996246 0.02740341 0 0.9996247 0.02739739 0.01055037 0.9841017 0.1772926 0 0.9996247 0.02739733 -0.1295883 0.9715957 -0.1980122 -0.538109 -0.8426556 -0.01924151 -0.969026 0.1608934 -0.1873551 -0.9995819 -0.01131618 0.02660924 -0.6760626 0.715218 0.1772081 -0.5859054 -0.8084185 0.05634194 -0.06165653 -0.01145219 -0.9980317 -0.06109243 -0.00390166 -0.9981245 -0.06760072 0.01050204 -0.9976572 -0.06481087 0.01979631 -0.9977012 -0.05802267 0.03551501 -0.9976834 -0.06404483 0.003666281 -0.9979404 -0.06879597 0.008613228 -0.9975937 -0.06380933 -0.001554071 -0.997961 -0.05598568 -0.01699358 -0.998287 -0.005927979 -0.9990388 0.04343247 0 0.9999482 0.01019269 0 0.9999481 0.01019579 0 0.9999481 0.01019269 0.01069998 0.9866927 0.162244 -0.0892623 0.9876596 -0.128689 -0.957413 -0.2823027 -0.06054288 -0.836361 0.5315557 -0.1339733 -0.5766301 0.8035557 0.1476352 -0.9807256 -0.1214122 0.1530894 0 -1.69645e-7 -1 -9.43037e-4 0.008107483 -0.9999668 -0.003064155 0 -0.9999954 0 0.00456804 -0.9999896 -0.00305736 -0.004016101 -0.9999873 0.001505315 -0.003378391 -0.9999932 -0.002382278 -2.37695e-4 -0.9999972 0.001505255 -0.003378391 -0.9999932 -9.4298e-4 0.008107423 -0.9999667 0 -1.69644e-7 -1 0 -0.003069579 -0.9999953 -0.001292765 0.001428663 -0.9999982 0 -0.001389384 -0.9999991 4.48379e-4 -9.65744e-4 -0.9999995 -0.001293003 0.001032292 -0.9999987 0.002549529 0 -0.9999969 2.97117e-4 -7.55469e-4 -0.9999998 0 -0.003069579 -0.9999954 -0.001691639 0.002817511 -0.9999946 -0.00161606 0.002391159 -0.9999959 -0.001934647 0.001204669 -0.9999975 0 -0.001389384 -0.9999991 0 -0.02286064 -0.9997387 0 0.2440311 -0.9697675 -0.006246566 0.02385914 -0.9996958 -2.74087e-4 -9.98107e-4 -0.9999995 -1.11063e-4 -7.41935e-4 -0.9999998 4.29169e-4 -0.001461446 -0.9999989 6.8018e-4 -9.53166e-4 -0.9999994 -2.69911e-5 3.77059e-5 -1 -5.5657e-4 4.36329e-4 -0.9999998 9.94972e-5 0 -1 0.00302577 -0.001334369 -0.9999946 -7.26316e-4 -3.58623e-4 -0.9999997 0.003780663 0.005568981 -0.9999774 0.002826511 0.006897151 -0.9999722 1.80355e-4 0.001844048 -0.9999983 -0.02446919 0.002797365 -0.9996967 -0.01962655 0.007243931 -0.9997811 0.2325332 0.8481594 -0.4759768 -0.001163542 0.1870976 -0.9823407 0.002468168 0 -0.999997 0.01069849 0 -0.9999428 0.775756 -0.6056237 -0.1772645 -0.6354199 -0.760625 -0.1330087 -0.7992423 0.5937079 -0.09339553 0.5254293 0.8400989 -0.1347523 0.7795585 0.6011097 0.1759428 -0.6126867 0.7802346 0.1258932 -0.8226588 -0.5593025 0.1020449 0.5188849 -0.8436889 0.1376503 0.6244006 -0.7508524 -0.2152785 -0.8377035 -0.4672237 -0.2827633 -0.3264226 0.9250798 -0.1941022 0.8641011 0.4916736 -0.1076396 0.9766457 -0.01262319 0.2144854 0.175712 0.9788812 0.1044836 -0.9103227 0.3474342 0.2249489 -0.1945778 -0.9364776 0.2918036 0.7772531 -0.6202407 -0.1057315 -0.5608602 -0.8237977 -0.08242237 -0.9241212 0.3262336 -0.1989264 0.4568492 0.8518449 -0.2562207 0.8237987 0.5608584 0.08242464 -0.3262338 0.9241212 0.1989263 -0.8518437 -0.4568515 0.2562207 0.6202393 -0.7772542 0.1057321 0.1997853 -0.9602216 -0.1950905 -0.9854488 -0.0127477 -0.1694941 -0.1757106 0.9788814 -0.104484 0.9251873 0.3526507 -0.1402359 0.9854486 -0.0127477 0.1694951 0.1757127 0.9788811 0.104484 -0.9251893 0.3526453 0.1402366 -0.1997858 -0.9602214 0.195091 -0.6354184 -0.7606263 -0.1330084 -0.7992568 0.5936889 -0.09339225 0.5254524 0.8400875 -0.1347319 -0.6126883 0.7802379 0.1258649 0.7813508 -0.6043241 -0.155832 -0.6309436 -0.7552086 -0.1776806 -0.7946048 0.5903077 -0.1419164 0.5218261 0.8424875 -0.133837 0.2105622 0.9637991 0.1635699 -0.9639662 0.2079042 0.1659672 -0.2605291 -0.95409 0.147773 0.9387285 -0.3136994 0.1427647 0.7757546 -0.6056255 -0.1772642 0.5254306 0.840098 -0.1347526 0.7795571 0.6011114 0.1759425 -0.8226604 -0.5593004 0.1020451 0.5188862 -0.843688 0.1376506 -1.99322e-4 -7.06892e-6 1 -1.14951e-4 -2.20469e-4 1 5.93111e-4 -1.70582e-4 0.9999998 -5.07866e-4 2.7022e-4 0.9999998 -1.7331e-5 -3.95511e-6 1 -1.52786e-4 -1.4203e-4 1 4.78467e-4 6.38065e-4 0.9999998 0.006682038 -6.48747e-4 0.9999775 0 -0.001618742 0.9999987 0.001178085 3.54075e-4 0.9999994 -0.00194478 -6.04163e-5 0.9999981 -0.002273976 0.00165385 0.9999961 0.001598298 0.004966557 0.9999864 0.002690732 2.61242e-4 0.9999964 -5.56909e-4 -2.75661e-4 0.9999998 0.008825957 -0.001821696 0.9999595 -0.002015292 -5.41191e-4 0.9999979 0 0.002146959 0.9999977 9.98464e-4 -9.6938e-5 0.9999995 2.21149e-4 1.14389e-4 1 -0.002626657 1.6035e-4 0.9999966 -0.001731693 -0.001021385 0.999998 0 0.001463532 0.9999989 9.6464e-4 -8.72082e-5 0.9999995 4.94472e-4 4.8007e-5 0.9999999 -3.42293e-5 1.0313e-4 1 -0.001653492 -2.73805e-4 0.9999987 0 9.44024e-5 1 0 0.001463532 0.9999989 9.6464e-4 -8.72099e-5 0.9999995 9.98464e-4 -9.69385e-5 0.9999995 2.21149e-4 1.14389e-4 1 -0.001731693 -0.001021385 0.999998 0 0.001463532 0.9999989 9.6464e-4 -8.72071e-5 0.9999995 -0.001270353 -2.43314e-4 0.9999992 0.002966642 -0.001268327 0.9999948 0 7.74683e-4 0.9999997 -0.008499562 7.72692e-4 0.9999637 0.00194472 6.0415e-5 0.9999981 -0.00199902 -0.003045797 0.9999934 0 -0.001152575 0.9999994 -0.008826017 0.001821696 0.9999595 -0.002467393 -2.24309e-4 0.999997 0.00775808 -7.05281e-4 0.9999697 5.57499e-4 2.75762e-4 0.9999999 0.002015233 5.41163e-4 0.9999979 0 5.46685e-4 0.9999999 -0.002197086 -8.14326e-4 0.9999973 0.005150616 4.68244e-4 0.9999867 3.15433e-5 1.03356e-4 1 1.25996e-4 4.41437e-4 1 0.005092859 -4.62989e-4 0.999987 -0.003087878 1.27793e-4 0.9999952 0 8.29229e-5 1 -0.002197086 -8.14322e-4 0.9999973 0.001622855 -1.47537e-4 0.9999987 -1.93692e-4 1.30783e-4 1 0.001700997 1.54639e-4 0.9999986 -0.002106726 -4.04634e-4 0.9999978 0 5.46686e-4 0.9999999 1.25996e-4 4.41438e-4 1 -0.002197086 -8.1433e-4 0.9999973 0.005150616 4.68243e-4 0.9999867 3.15433e-5 1.03356e-4 1 0.001263201 -5.92976e-4 0.9999991 7.60972e-4 0.001278996 0.9999989 -1.49336e-5 -4.22906e-4 1 -0.005482733 9.23979e-4 0.9999846 -5.93392e-5 -3.93811e-4 1 0.001163303 -1.05757e-4 0.9999994 -0.001139044 -8.70101e-5 0.9999994 1.1991e-4 5.32934e-5 1 0.001764893 1.34817e-4 0.9999985 0.001055359 -1.77854e-4 0.9999995 3.74067e-5 7.31633e-4 0.9999997 -8.77695e-4 1.78121e-4 0.9999997 -1.40451e-5 -2.9778e-6 1 -3.7133e-4 -2.26229e-4 1 6.66858e-5 6.06235e-6 1 -6.28209e-5 -1.33191e-5 1 0.002392113 0.003195285 0.9999921 0.007041335 -7.20958e-4 0.999975 0.001930415 4.20613e-4 0.9999982 -3.58817e-5 -8.32055e-5 1 4.94472e-4 4.80068e-5 0.9999999 5.15431e-4 -0.001863062 0.9999982 -1.17679e-4 -0.002353429 0.9999973 -1.33747e-5 -0.001309752 0.9999992 0.001058578 -2.11398e-4 0.9999994 4.25683e-4 1.89193e-4 1 9.84987e-4 -9.30624e-5 0.9999995 9.44659e-4 0.00219053 0.9999973 0.004300177 4.17499e-4 0.9999907 0.001812398 -1.75967e-4 0.9999984 0.004300177 4.17498e-4 0.9999907 -0.008624911 8.37374e-4 0.9999625 -0.001432538 1.39085e-4 0.9999991 0 -9.10707e-4 0.9999997 0 -9.10708e-4 0.9999997 0 -9.10699e-4 0.9999996 0 -9.107e-4 0.9999996 0 -0.00267446 -0.9999965 -0.001189231 0.005136609 -0.9999862 -0.005858302 -0.00231707 -0.9999802 -1.84146e-4 0.005249083 -0.9999862 5.70384e-4 -0.002464413 -0.9999969 0.001423835 -0.005803167 -0.9999822 0.002499878 2.35977e-4 -0.9999969 0.001423835 -0.005803167 -0.9999822 -0.1040807 0.04473656 -0.9935622 -6.83193e-4 -0.006400883 -0.9999793 -4.58559e-4 0.001161158 -0.9999992 4.9278e-4 -9.45436e-4 -0.9999995 -0.001609027 0.001117169 -0.9999982 0.00254935 0 -0.9999969 0 -0.001934587 -0.9999982 9.56339e-4 9.72122e-5 -0.9999995 0 -0.001934587 -0.9999982 -0.001106262 6.8018e-4 -0.9999992 -0.001609086 0.001117169 -0.9999982 0 -0.003231585 -0.9999948 -0.001609086 0.001117169 -0.9999982 -0.001116216 0.001626968 -0.999998 -0.001306533 0.001035869 -0.9999987 -8.76752e-4 -1.30717e-4 -0.9999997 6.36309e-4 -0.002863287 -0.9999957 -2.48488e-4 0.001985549 -0.999998 0 1.50244e-7 -1 0 -3.59546e-7 -1 0.001809418 -0.01451987 -0.999893 -5.18446e-4 -0.01698613 -0.9998556 3.84757e-4 -6.93635e-4 -0.9999997 -7.93098e-4 0.001115143 -0.9999992 -7.10702e-4 0.001403987 -0.9999988 -0.001965761 0 -0.9999981 -0.001641929 -0.00726813 -0.9999722 1.48049e-4 9.79302e-4 -0.9999996 -0.001511991 -6.37725e-4 -0.9999988 0.004805922 0.006164312 -0.9999696 -1.66749e-4 0.01325583 -0.9999122 0.6646577 -0.01189064 -0.7470534 -6.57008e-4 0.001249969 -0.9999991 -0.00301063 3.01986e-4 -0.9999955 -3.66635e-4 0.001649618 -0.9999986 7.97634e-4 -0.02764749 -0.9996175 6.61992e-4 0 -0.9999998 2.87214e-4 -1.2359e-4 -1 0.004598677 0.001340031 -0.9999886 0.003063797 0 -0.9999954 0.8237986 -0.5608584 -0.08242464 -0.326246 -0.9241157 -0.1989318 -0.8518488 0.4568375 -0.2562288 0.6202406 0.7772533 -0.10573 0.7772555 0.6202378 0.1057315 -0.5608618 0.8237967 0.08242082 -0.9241201 -0.3262289 0.1989393 0.4568516 -0.8518443 0.256219 0.3264198 -0.9250812 -0.1941006 -0.8641027 -0.4916707 -0.1076406 -0.624402 0.7508513 -0.2152779 0.8377032 0.4672235 -0.2827644 0.1945779 0.9364777 0.291803 -0.9766455 0.01262027 0.2144864 -0.1757106 -0.9788814 0.104484 0.9103239 -0.3474318 0.2249485 0.9854485 0.01275062 -0.1694951 0.1757127 -0.9788813 -0.1044821 -0.9251677 -0.3526425 -0.1403853 -0.1997858 0.9602214 -0.195091 0.1997858 0.9602214 0.195091 -0.9854425 0.01253104 0.1695466 -0.175829 -0.9788525 0.1045557 0.9251882 -0.3526483 0.1402354 0.7795746 -0.6010902 -0.1759375 -0.612708 -0.7802256 -0.1258444 -0.8226588 0.5593025 -0.1020449 0.5188848 0.8436889 -0.1376503 0.7757559 0.6056237 0.1772645 -0.6354183 0.7606263 0.1330085 -0.7992553 -0.5936911 0.09339207 0.5254561 -0.8400899 0.1347031 0.7795584 -0.6011097 -0.1759428 -0.6126868 -0.7802392 -0.1258646 0.7757546 0.6056255 0.1772642 0.5254537 -0.8400868 0.1347323 -0.6127095 -0.7802245 -0.1258447 -0.7992537 -0.5936931 0.09339189 0.5254548 -0.8400907 0.1347028 0.6983715 -0.691037 -0.1864008 -0.503888 -0.859546 -0.08531004 -0.9985693 -0.03280967 0.04222816 -0.2566726 0.9579416 -0.1283249 0.8785762 0.4668516 -0.1007648 0.9791892 -0.01631271 0.2022927 0.05521309 0.9904456 0.1263689 -0.9872497 0.08072489 0.1371914 -0.1008602 -0.974283 0.2014943 -0.9996572 -0.002485275 -0.02606612 -0.9998402 0.01751071 -0.003606975 -0.9998529 0.01665574 -0.004096925 -0.9990686 -0.04228937 -0.008584558 -0.9998958 -0.002729892 0.0141794 -0.9999809 -0.003089606 0.005351483 -0.9999769 0.005983352 0.003228902 -0.9999576 0.00529623 -0.007540404 0 -0.9988932 -0.04703599 0.02264189 -0.9981149 -0.05704534 0 -0.5000001 -0.8660255 0 0.5000001 -0.8660255 0 0.9992573 -0.03853654 -0.03353494 0.9980134 -0.05333554 1 2.72375e-5 -4.73525e-5 0.9999989 -0.00140655 5.54677e-4 0.9997775 -0.01767456 -0.01151949 0.9997278 0.001176774 -0.02330279 0.9998574 -0.005004048 -0.01613545 0.9999062 0.001938343 -0.01356637 0.9985794 0.0528928 0.006441116 0.9999989 7.5288e-4 0.001302719 0.1704431 0.9731084 -0.1549493 0.04053419 -0.04353749 0.9982292 0.001629054 -0.9807855 0.1950829 0.1368336 -0.3570474 -0.9240096 -0.2169094 0.632098 -0.7439103 -0.1895929 -0.9712985 -0.1436452 -0.1896708 0.3274671 0.9256297 0.8203408 -0.5608876 0.1115633 0.8044509 -0.02641218 0.5934315 0.7224927 0.686421 -0.08264672 0.8039438 -0.2506452 -0.5393066 5.43735e-7 2.49031e-4 -1 0 0 -1 -5.78784e-7 1.92671e-4 -1 -0.04517596 0.03717058 -0.9982873 2.49911e-5 2.19958e-4 -1 7.32384e-5 1.60007e-4 -1 -1.39115e-4 8.8774e-5 -1 -0.050713 -6.04344e-4 -0.9987131 -2.81696e-5 -6.95203e-4 -0.9999998 5.90549e-4 8.0757e-5 -0.9999999 5.79987e-4 -3.50086e-4 -0.9999998 -1.05674e-4 -1.92084e-4 -1 0.04578644 -0.002151012 -0.9989489 3.17959e-4 -2.27906e-4 -1 2.51066e-4 -3.06372e-4 -1 1.17979e-4 -1.19948e-4 -1 -0.1094745 -1.53868e-4 -0.9939896 -0.05027383 -7.7825e-4 -0.9987353 9.84679e-7 5.03338e-7 -1 -0.001430392 -0.001314222 -0.9999982 0.02969586 -0.01569646 -0.9994358 2.72161e-4 -4.88141e-4 -0.9999999 1.84086e-4 -1.17177e-4 -1 -0.1064775 -7.40551e-4 -0.9943149 2.37772e-4 4.8708e-6 -1 1.38728e-4 -1.3622e-4 -1 -0.04376417 -0.04130274 -0.9981878 2.0324e-4 -2.0813e-4 -1 -0.02002966 -0.016218 -0.9996678 -4.19147e-4 -4.04811e-4 -0.9999999 -8.5818e-4 1.23117e-4 -0.9999997 0.02739584 0.03462606 -0.9990249 -0.09439623 -0.009581327 -0.9954887 -0.1334496 0.007895052 -0.9910242 0.001134693 0.001784265 -0.9999978 0.001643896 9.32466e-4 -0.9999982 1.19913e-4 -8.9326e-5 -1 0.01190334 -0.01009905 -0.9998782 0.001437664 0.007293045 -0.9999725 0.001174449 3.5371e-4 -0.9999994 -0.04737013 0.04247003 -0.9979742 -0.05966091 6.95442e-4 -0.9982185 0.002025067 0.007856309 -0.9999671 0.02417016 -0.1536877 -0.9878239 -0.04898816 0.05185997 -0.9974522 -0.0126276 0.007597506 -0.9998915 -0.5926278 0.002416431 -0.8054729 -0.4287712 -0.01122903 -0.9033433 0.08926522 0.006719887 -0.9959853 -0.07150185 0.01121079 -0.9973776 0.2211996 -0.004758536 -0.9752169 -0.2173686 -0.04463076 -0.9750688 -0.08525604 0.007845938 -0.9963282 0.5840522 0.02641963 -0.8112861 -0.06929737 -0.3265761 -0.9426271 0 -0.9996411 -0.02679032 0.07670509 -0.9951779 -0.06113505 -0.9999995 5.30725e-4 9.19293e-4 -0.9999996 -8.16948e-4 4.1722e-4 -0.9997912 0.01853173 -0.008611381 -0.9998825 0.008395373 -0.01283514 -0.9997183 -8.26623e-4 -0.02372694 -0.9996037 -0.02651733 -0.009456276 -0.9999954 3.21735e-4 0.003024458 -0.9999572 0.003608822 0.00853455 0 -0.5000001 -0.8660253 0 0.4999999 -0.8660255 0 0.5000001 -0.8660253 0 0.9991506 -0.04121047 -0.02172452 0.9984754 -0.05074465 0.9999992 6.81423e-4 0.001179337 0.9999126 -0.0121411 -0.005246102 0.9999997 6.99618e-4 6.34057e-4 0.9999988 -0.001400172 7.55201e-4 0.9996551 -0.02572214 -0.005298495 0.9999992 0.00125277 3.12951e-4 0.9997837 0.001736402 -0.02072894 0.9999102 -0.007701635 -0.01096689 0.3817208 -0.03216224 -0.923718 -0.06895798 0.3773094 -0.9235164 0 -0.9989116 -0.04664301 0.01496082 -0.9984664 -0.05330187 -0.9998934 0.01430964 -0.002947449 -0.9999719 0.004310131 -0.006138086 -0.9999997 -4.08306e-4 7.07479e-4 -0.9999997 8.37814e-4 4.52244e-4 -0.9996306 -0.004852652 -0.02674442 -0.9998424 1.66793e-4 0.01775723 -0.999837 0.01803797 -8.16035e-4 -0.9988888 -0.04620063 -0.009312689 0 -0.4999999 -0.8660255 0 0.9992002 -0.03998738 0.02147018 0.9993042 -0.03049755 0.9999991 0.001255691 6.41382e-4 0.9999987 -8.16813e-4 0.001414418 0.9999869 -4.47726e-4 0.005101501 0.9999673 0.005772054 -0.005678772 0.9997 0.01622539 -0.01834827 0.9996468 0.02178353 -0.01522421 0.9999635 -0.008551776 -8.15272e-5 0.9999946 0.001278877 -0.003025293 0.08697509 0.1254428 0.9882811 0.03641498 -0.9801363 0.1949537 0.09349524 -0.443728 -0.891271 0.1422947 0.9112432 -0.3865076 0.07614839 0.9369615 -0.3410349 -0.1075223 -0.2458685 -0.9633212 -0.1365844 -0.9895855 0.0454446 -0.1230145 0.2729618 0.9541276 0.8203408 -0.5608875 0.1115631 0.7679555 0.05249994 0.638348 0.7560178 0.5967105 -0.2690241 0.8159235 -0.2713535 -0.5105255 0.1375086 -0.2746966 0.9516477 -0.05050569 -0.9355817 -0.3494797 0.1155164 0.2560085 -0.9597478 0.1394922 0.9884289 0.05958592 -0.09182626 0.4550729 -0.8857069 -0.1321594 -0.9056302 -0.402949 -0.07218742 -0.1324046 0.9885637 -0.0185846 0.979267 0.2017198 0.7524805 -0.1739246 0.6352348 0.796601 0.6041105 0.0218482 0.8135415 0.1640291 -0.5578932 0.8061358 -0.5482206 -0.2227087</float_array>
          <technique_common>
            <accessor source="#Link04_realsense-mesh-normals-array" count="1131" stride="3">
              <param name="X" type="float"/>
              <param name="Y" type="float"/>
              <param name="Z" type="float"/>
            </accessor>
          </technique_common>
        </source>
        <vertices id="Link04_realsense-mesh-vertices">
          <input semantic="POSITION" source="#Link04_realsense-mesh-positions"/>
        </vertices>
        <triangles count="1248">
          <input semantic="VERTEX" source="#Link04_realsense-mesh-vertices" offset="0"/>
          <input semantic="NORMAL" source="#Link04_realsense-mesh-normals" offset="1"/>
          <p>0 0 2 0 1 0 0 1 3 1 2 1 0 2 4 2 3 2 0 3 1 3 4 3 1 4 2 4 5 4 4 5 1 5 6 5 3 6 4 6 7 6 2 7 3 7 7 7 7 8 5 8 2 8 6 9 7 9 4 9 5 10 6 10 1 10 8 11 9 11 7 11 9 12 10 12 5 12 7 13 6 13 8 13 5 14 7 14 9 14 5 15 10 15 11 15 11 16 12 16 6 16 6 17 5 17 11 17 6 18 12 18 8 18 12 19 13 19 23 19 23 20 8 20 12 20 14 21 10 21 9 21 9 22 22 22 14 22 10 23 14 23 15 23 15 23 11 23 10 23 11 24 15 24 13 24 13 24 12 24 11 24 16 25 9 25 8 25 8 26 17 26 16 26 15 27 14 27 20 27 22 28 19 28 20 28 23 29 13 29 21 29 13 30 18 30 21 30 20 31 18 31 15 31 21 32 22 32 23 32 21 33 19 33 22 33 18 34 13 34 15 34 20 35 14 35 22 35 9 36 16 36 22 36 23 37 17 37 8 37 18 38 20 38 25 38 21 39 18 39 26 39 19 40 21 40 28 40 20 41 19 41 24 41 28 42 24 42 19 42 27 43 28 43 21 43 26 44 27 44 21 44 25 45 26 45 18 45 24 46 25 46 20 46 29 47 26 47 25 47 35 48 32 48 30 48 30 49 34 49 35 49 34 50 25 50 24 50 31 51 38 51 26 51 29 52 31 52 26 52 38 53 33 53 32 53 28 54 39 54 34 54 25 55 34 55 29 55 34 56 30 56 29 56 32 57 35 57 38 57 31 58 33 58 38 58 24 59 28 59 34 59 27 60 38 60 39 60 27 61 26 61 38 61 39 62 28 62 27 62 35 63 34 63 36 63 36 64 37 64 35 64 36 65 44 65 37 65 39 66 38 66 40 66 40 67 41 67 39 67 40 68 42 68 41 68 42 69 43 69 41 69 44 70 45 70 37 70 48 71 49 71 45 71 45 72 44 72 48 72 46 73 47 73 43 73 43 74 42 74 46 74 53 75 54 75 47 75 47 76 46 76 53 76 52 77 51 77 49 77 49 78 48 78 52 78 52 79 50 79 51 79 56 80 55 80 33 80 57 81 56 81 33 81 58 82 57 82 31 82 55 83 58 83 30 83 30 84 32 84 55 84 29 85 30 85 58 85 31 86 29 86 58 86 33 87 31 87 57 87 32 88 33 88 55 88 59 89 68 89 61 89 62 90 65 90 59 90 60 91 62 91 59 91 51 92 65 92 62 92 50 93 67 93 64 93 61 94 60 94 59 94 51 95 50 95 65 95 64 96 66 96 50 96 68 97 59 97 64 97 63 98 68 98 51 98 64 99 67 99 68 99 63 100 61 100 68 100 62 101 63 101 51 101 66 102 65 102 50 102 69 103 87 103 88 103 71 104 69 104 70 104 73 105 71 105 72 105 75 106 73 106 74 106 77 107 75 107 76 107 79 108 77 108 78 108 81 109 79 109 80 109 83 110 81 110 82 110 84 111 83 111 85 111 67 112 84 112 86 112 86 113 68 113 67 113 85 114 86 114 84 114 82 115 85 115 83 115 80 116 82 116 81 116 78 117 80 117 79 117 76 118 78 118 77 118 74 119 76 119 75 119 72 120 74 120 73 120 70 121 72 121 71 121 88 122 70 122 69 122 90 123 89 123 63 123 91 124 90 124 63 124 92 125 91 125 62 125 89 126 92 126 60 126 60 127 61 127 89 127 62 128 60 128 92 128 63 129 62 129 91 129 61 130 63 130 89 130 93 131 96 131 64 131 94 132 93 132 59 132 95 133 94 133 65 133 96 134 95 134 64 134 66 135 64 135 95 135 65 136 66 136 95 136 59 137 65 137 94 137 64 138 59 138 93 138 98 139 99 139 97 139 100 140 99 140 53 140 100 141 97 141 99 141 97 142 103 142 98 142 102 143 103 143 101 143 97 144 101 144 103 144 53 145 105 145 104 145 102 146 101 146 54 146 101 147 97 147 104 147 53 148 99 148 102 148 104 149 106 149 53 149 106 150 100 150 53 150 102 151 54 151 53 151 104 152 105 152 101 152 107 153 101 153 105 153 109 154 107 154 108 154 110 155 109 155 111 155 113 156 110 156 112 156 115 157 113 157 114 157 117 158 115 158 116 158 119 159 117 159 118 159 121 160 119 160 120 160 123 161 121 161 122 161 125 162 123 162 124 162 124 163 126 163 125 163 122 164 124 164 123 164 120 165 122 165 121 165 118 166 120 166 119 166 116 167 118 167 117 167 114 168 116 168 115 168 112 169 114 169 113 169 111 170 112 170 110 170 108 171 111 171 109 171 105 172 108 172 107 172 128 173 127 173 104 173 129 174 128 174 104 174 130 175 129 175 97 175 127 176 130 176 100 176 97 177 100 177 130 177 104 178 97 178 129 178 106 179 104 179 127 179 100 180 106 180 127 180 132 181 131 181 99 181 133 182 132 182 98 182 134 183 133 183 102 183 131 184 134 184 102 184 103 185 102 185 133 185 98 186 103 186 133 186 99 187 98 187 132 187 102 188 99 188 131 188 137 189 126 189 135 189 135 190 136 190 137 190 138 191 135 191 126 191 138 192 126 192 139 192 140 193 138 193 139 193 141 194 125 194 142 194 142 195 144 195 141 195 142 196 125 196 126 196 141 197 143 197 140 197 136 198 143 198 141 198 135 199 143 199 136 199 137 200 142 200 126 200 140 201 139 201 141 201 144 202 136 202 141 202 145 203 146 203 141 203 141 204 139 204 145 204 138 205 140 205 147 205 135 206 138 206 148 206 143 207 135 207 149 207 140 208 143 208 151 208 150 209 151 209 143 209 149 210 150 210 143 210 148 211 149 211 135 211 147 212 148 212 138 212 151 213 147 213 140 213 152 214 153 214 151 214 147 215 151 215 153 215 151 216 150 216 152 216 153 217 155 217 147 217 150 218 149 218 154 218 155 219 156 219 147 219 148 220 147 220 156 220 154 221 149 221 148 221 148 222 156 222 154 222 137 223 136 223 157 223 142 224 137 224 158 224 144 225 142 225 160 225 136 226 144 226 161 226 160 227 161 227 144 227 159 228 160 228 142 228 158 229 159 229 142 229 157 230 158 230 137 230 161 231 157 231 136 231 166 232 161 232 160 232 166 233 162 233 161 233 162 234 163 234 157 234 162 235 157 235 161 235 158 236 157 236 163 236 164 237 165 237 160 237 165 238 166 238 160 238 164 239 159 239 158 239 158 240 163 240 164 240 160 241 159 241 164 241 146 242 167 242 173 242 167 243 145 243 172 243 168 244 172 244 145 244 167 245 146 245 145 245 156 246 155 246 169 246 154 247 156 247 170 247 154 248 170 248 171 248 152 249 171 249 172 249 172 250 168 250 153 250 155 251 153 251 168 251 168 252 169 252 155 252 172 253 153 253 152 253 171 254 152 254 150 254 171 255 150 255 154 255 169 256 170 256 156 256 162 257 173 257 167 257 163 258 162 258 167 258 164 259 163 259 174 259 165 260 175 260 176 260 166 261 176 261 173 261 176 262 166 262 165 262 175 263 165 263 164 263 174 264 175 264 164 264 167 265 174 265 163 265 173 266 162 266 166 266 177 267 146 267 173 267 172 268 174 268 167 268 172 269 171 269 174 269 168 270 145 270 178 270 177 271 176 271 175 271 177 272 173 272 176 272 175 273 171 273 170 273 175 274 174 274 171 274 178 275 177 275 175 275 175 276 170 276 178 276 170 277 169 277 178 277 169 278 168 278 178 278 177 279 178 279 179 279 180 280 179 280 181 280 182 281 181 281 183 281 184 282 183 282 185 282 187 283 185 283 188 283 187 284 188 284 189 284 190 285 189 285 191 285 192 286 191 286 193 286 193 287 194 287 192 287 191 288 192 288 190 288 189 289 190 289 187 289 185 290 187 290 186 290 185 291 186 291 184 291 183 292 184 292 182 292 181 293 182 293 180 293 179 294 180 294 177 294 195 295 196 295 197 295 197 296 198 296 195 296 196 297 199 297 197 297 200 298 196 298 88 298 201 299 203 299 202 299 196 300 195 300 203 300 200 301 199 301 196 301 87 302 202 302 198 302 203 303 201 303 196 303 198 304 204 304 87 304 197 305 204 305 198 305 202 306 87 306 201 306 204 307 200 307 87 307 200 308 88 308 87 308 196 309 201 309 225 309 225 310 226 310 196 310 199 311 200 311 207 311 197 312 199 312 208 312 204 313 197 313 209 313 200 314 204 314 210 314 210 315 205 315 200 315 209 316 210 316 204 316 208 317 209 317 197 317 207 318 208 318 199 318 206 319 207 319 200 319 205 320 206 320 200 320 213 321 212 321 210 321 212 322 211 322 206 322 215 323 209 323 208 323 205 324 210 324 212 324 211 325 214 325 207 325 214 326 215 326 207 326 213 327 210 327 209 327 206 328 205 328 212 328 209 329 215 329 213 329 207 330 206 330 211 330 208 331 207 331 215 331 195 332 198 332 216 332 203 333 195 333 217 333 202 334 203 334 218 334 198 335 202 335 219 335 218 336 219 336 202 336 217 337 218 337 203 337 216 338 217 338 195 338 219 339 216 339 198 339 221 340 220 340 217 340 217 341 216 341 221 341 218 342 217 342 220 342 223 343 218 343 220 343 224 344 219 344 218 344 224 345 222 345 219 345 216 346 219 346 222 346 218 347 223 347 224 347 221 348 216 348 222 348 226 349 227 349 236 349 226 350 225 350 232 350 227 351 226 351 232 351 228 352 232 352 225 352 232 353 228 353 220 353 223 354 220 354 228 354 224 355 223 355 229 355 222 356 224 356 230 356 222 357 230 357 231 357 221 358 231 358 232 358 232 359 220 359 221 359 231 360 221 360 222 360 229 361 230 361 224 361 228 362 229 362 223 362 213 363 215 363 227 363 212 364 213 364 233 364 211 365 234 365 235 365 214 366 235 366 236 366 215 367 236 367 227 367 236 368 215 368 214 368 235 369 214 369 211 369 234 370 211 370 212 370 233 371 234 371 212 371 227 372 233 372 213 372 237 373 226 373 236 373 231 374 233 374 227 374 232 375 231 375 227 375 228 376 225 376 238 376 237 377 235 377 234 377 237 378 236 378 235 378 234 379 231 379 230 379 234 380 233 380 231 380 237 381 234 381 230 381 230 382 238 382 237 382 230 383 229 383 238 383 229 384 228 384 238 384 239 385 240 385 241 385 242 386 241 386 243 386 244 387 243 387 245 387 247 388 245 388 248 388 247 389 248 389 249 389 250 390 249 390 251 390 252 391 251 391 253 391 254 392 253 392 237 392 237 393 238 393 254 393 253 394 254 394 252 394 251 395 252 395 250 395 249 396 250 396 247 396 245 397 247 397 246 397 245 398 246 398 244 398 243 399 244 399 242 399 241 400 242 400 239 400 258 401 257 401 256 401 240 402 239 402 257 402 257 403 258 403 240 403 256 404 255 404 258 404 193 405 259 405 260 405 259 406 261 406 260 406 263 407 261 407 262 407 263 408 260 408 261 408 260 409 194 409 193 409 263 410 267 410 256 410 263 411 270 411 267 411 264 412 265 412 266 412 265 413 267 413 266 413 265 414 255 414 267 414 255 415 256 415 267 415 269 416 271 416 268 416 270 417 262 417 271 417 271 418 269 418 270 418 270 419 263 419 262 419 267 420 270 420 269 420 269 421 266 421 267 421 264 422 266 422 272 422 273 423 264 423 272 423 273 424 274 424 275 424 276 425 277 425 278 425 276 426 273 426 279 426 273 424 280 424 274 424 279 427 277 427 276 427 273 428 272 428 280 428 275 429 279 429 273 429 278 430 281 430 276 430 282 431 268 431 283 431 282 432 269 432 268 432 284 433 285 433 282 433 282 434 283 434 284 434 287 435 288 435 286 435 281 436 286 436 288 436 288 437 276 437 281 437 289 438 288 438 287 438 302 439 286 439 290 439 290 440 311 440 302 440 290 441 382 441 311 441 302 442 287 442 286 442 291 443 284 443 382 443 382 444 290 444 291 444 284 445 291 445 285 445 294 446 293 446 289 446 293 447 295 447 289 447 295 448 296 448 289 448 298 449 297 449 295 449 295 450 293 450 298 450 297 451 265 451 295 451 298 452 301 452 299 452 299 453 297 453 298 453 300 454 303 454 301 454 302 455 303 455 300 455 301 456 293 456 294 456 294 457 300 457 301 457 289 458 302 458 300 458 294 459 289 459 300 459 287 460 302 460 289 460 293 461 301 461 298 461 304 462 301 462 303 462 299 463 301 463 304 463 303 464 306 464 304 464 304 465 305 465 299 465 306 466 307 466 305 466 305 467 304 467 306 467 308 468 313 468 305 468 305 469 307 469 308 469 306 470 309 470 308 470 308 471 307 471 306 471 315 472 309 472 306 472 306 473 303 473 315 473 308 474 309 474 310 474 315 475 303 475 302 475 302 476 311 476 315 476 310 477 312 477 313 477 313 478 308 478 310 478 310 479 309 479 312 479 314 480 313 480 312 480 312 481 309 481 315 481 315 482 316 482 312 482 312 483 316 483 314 483 317 484 316 484 315 484 315 485 311 485 317 485 292 486 311 486 382 486 292 487 319 487 311 487 317 488 311 488 319 488 316 489 317 489 320 489 317 490 319 490 320 490 320 491 324 491 316 491 318 492 316 492 324 492 321 493 316 493 318 493 316 494 321 494 314 494 322 495 268 495 271 495 255 496 271 496 262 496 296 497 295 497 265 497 271 498 265 498 297 498 297 499 321 499 271 499 314 500 321 500 299 500 297 501 299 501 321 501 314 502 299 502 305 502 305 503 313 503 314 503 265 504 264 504 296 504 255 505 265 505 271 505 323 506 271 506 321 506 271 507 323 507 322 507 318 508 324 508 323 508 323 509 321 509 318 509 319 510 292 510 322 510 319 511 322 511 323 511 324 512 320 512 319 512 319 513 323 513 324 513 36 514 34 514 52 514 73 515 254 515 238 515 201 516 87 516 69 516 141 517 146 517 123 517 83 518 239 518 242 518 252 519 73 519 75 519 71 520 73 520 238 520 123 514 125 514 141 514 123 521 146 521 177 521 180 514 182 514 119 514 182 514 184 514 117 514 184 514 115 514 117 514 238 522 225 522 69 522 50 514 52 514 34 514 117 514 119 514 182 514 186 514 113 514 115 514 83 514 242 514 244 514 244 514 81 514 83 514 246 523 247 523 79 523 73 524 252 524 254 524 69 525 71 525 238 525 69 526 225 526 201 526 34 527 22 527 50 527 325 528 328 528 67 528 41 514 47 514 54 514 190 514 192 514 109 514 77 529 79 529 247 529 247 530 250 530 77 530 39 531 23 531 22 531 36 532 48 532 44 532 329 533 39 533 54 533 54 514 39 514 41 514 177 534 121 534 123 534 115 514 184 514 186 514 187 535 110 535 113 535 187 536 190 536 110 536 192 537 194 537 107 537 81 514 244 514 246 514 75 514 77 514 250 514 328 538 331 538 239 538 67 539 50 539 325 539 119 540 121 540 180 540 113 541 186 541 187 541 107 514 109 514 192 514 79 514 81 514 246 514 75 514 250 514 252 514 328 542 84 542 67 542 52 514 48 514 36 514 177 543 180 543 121 543 109 544 110 544 190 544 239 545 83 545 84 545 50 546 22 546 325 546 329 547 54 547 101 547 260 548 326 548 107 548 239 549 84 549 328 549 22 550 34 550 39 550 43 551 47 551 41 551 327 552 325 552 22 552 330 553 17 553 23 553 23 554 39 554 330 554 101 555 326 555 329 555 107 556 194 556 260 556 329 557 330 557 39 557 101 558 107 558 326 558 22 559 16 559 327 559 260 560 263 560 257 560 256 561 257 561 263 561 260 562 17 562 330 562 260 563 257 563 16 563 257 564 331 564 327 564 331 565 257 565 239 565 327 566 16 566 257 566 16 567 17 567 260 567 332 568 333 568 325 568 325 569 327 569 332 569 325 570 333 570 95 570 95 571 96 571 328 571 333 572 94 572 95 572 334 573 335 573 93 573 334 574 93 574 94 574 95 575 328 575 325 575 94 27 333 27 334 27 96 576 93 576 335 576 96 577 335 577 328 577 335 578 336 578 331 578 331 579 328 579 335 579 336 580 335 580 334 580 334 580 337 580 336 580 337 581 334 581 333 581 333 582 332 582 337 582 327 583 331 583 339 583 339 584 338 584 327 584 331 585 336 585 339 585 327 586 338 586 340 586 337 587 332 587 340 587 341 588 336 588 337 588 336 589 341 589 339 589 340 590 341 590 337 590 340 591 332 591 327 591 342 592 260 592 330 592 326 593 260 593 342 593 343 594 344 594 326 594 326 595 342 595 343 595 326 596 344 596 133 596 345 27 346 27 131 27 329 597 134 597 131 597 329 598 326 598 133 598 132 599 133 599 344 599 132 600 344 600 345 600 131 601 132 601 345 601 133 602 134 602 329 602 131 603 346 603 329 603 347 582 345 582 344 582 344 582 343 582 347 582 346 604 348 604 330 604 330 605 329 605 346 605 348 580 346 580 345 580 345 606 347 606 348 606 349 607 350 607 342 607 330 608 348 608 349 608 349 609 342 609 330 609 347 610 352 610 351 610 347 611 343 611 352 611 343 612 350 612 352 612 351 587 348 587 347 587 351 613 349 613 348 613 350 614 343 614 342 614 354 615 353 615 351 615 355 616 354 616 352 616 356 617 355 617 349 617 353 618 356 618 349 618 350 619 349 619 355 619 352 620 350 620 355 620 351 621 352 621 354 621 349 622 351 622 353 622 357 623 354 623 355 623 357 624 353 624 354 624 357 625 356 625 353 625 357 626 355 626 356 626 358 627 361 627 339 627 359 628 358 628 341 628 360 629 359 629 340 629 361 630 360 630 339 630 338 631 339 631 360 631 340 632 338 632 360 632 341 633 340 633 359 633 339 634 341 634 358 634 362 635 359 635 360 635 362 636 358 636 359 636 362 637 361 637 358 637 362 638 360 638 361 638 363 639 264 639 273 639 276 640 364 640 368 640 364 641 276 641 288 641 289 642 296 642 365 642 368 643 273 643 276 643 365 644 366 644 289 644 273 645 368 645 363 645 288 646 289 646 369 646 367 647 296 647 264 647 296 648 367 648 365 648 288 649 369 649 364 649 366 650 369 650 289 650 363 651 367 651 264 651 370 652 366 652 365 652 368 653 371 653 372 653 368 654 373 654 371 654 368 655 374 655 373 655 368 653 375 653 374 653 375 656 368 656 364 656 372 657 376 657 368 657 376 658 378 658 368 658 377 659 370 659 365 659 378 660 377 660 363 660 377 661 367 661 363 661 378 662 363 662 368 662 365 663 367 663 377 663 292 664 379 664 380 664 284 665 283 665 383 665 268 666 322 666 381 666 380 667 322 667 292 667 383 668 382 668 284 668 268 669 381 669 383 669 380 670 381 670 322 670 283 671 268 671 383 671 379 672 292 672 382 672 383 673 384 673 382 673 380 674 385 674 386 674 380 675 387 675 385 675 380 676 388 676 387 676 380 676 389 676 388 676 380 676 390 676 389 676 390 677 380 677 379 677 386 678 392 678 380 678 383 679 391 679 384 679 392 680 391 680 381 680 392 681 381 681 380 681 383 682 381 682 391 682 386 683 385 683 395 683 393 684 394 684 397 684 385 685 396 685 397 685 397 686 396 686 393 686 386 687 395 687 394 687 398 688 395 688 385 688 397 689 398 689 385 689 399 686 396 686 400 686 387 690 402 690 403 690 387 685 399 685 400 685 401 691 400 691 396 691 385 687 403 687 401 687 403 692 385 692 387 692 400 689 402 689 387 689 404 693 399 693 405 693 399 694 408 694 405 694 387 695 388 695 406 695 405 696 407 696 404 696 407 697 406 697 388 697 388 698 404 698 407 698 406 699 408 699 387 699 404 694 413 694 411 694 388 695 389 695 409 695 411 696 412 696 410 696 412 697 409 697 389 697 389 698 410 698 412 698 411 700 410 700 404 700 409 699 413 699 388 699 414 701 410 701 415 701 410 694 418 694 415 694 415 702 417 702 414 702 417 697 416 697 390 697 390 703 414 703 417 703 416 704 389 704 390 704 416 699 418 699 389 699 393 705 396 705 384 705 396 705 399 705 384 705 399 705 404 705 384 705 404 706 410 706 382 706 410 707 414 707 382 707 391 708 392 708 384 708 384 709 420 709 422 709 419 710 420 710 392 710 419 711 392 711 386 711 421 712 419 712 386 712 393 713 384 713 422 713 386 714 393 714 421 714 384 715 392 715 420 715 422 716 421 716 393 716 390 717 379 717 424 717 379 718 423 718 424 718 390 719 424 719 414 719 379 720 382 720 423 720 382 721 425 721 423 721 425 722 382 722 414 722 382 723 384 723 404 723 418 724 410 724 389 724 413 724 404 724 388 724 408 724 399 724 387 724 401 725 396 725 385 725 394 725 393 725 386 725 426 726 429 726 417 726 427 727 426 727 415 727 428 728 427 728 418 728 429 729 428 729 416 729 416 730 417 730 429 730 418 731 416 731 428 731 415 732 418 732 427 732 417 733 415 733 426 733 431 734 430 734 397 734 432 735 431 735 394 735 433 736 432 736 395 736 430 737 433 737 398 737 398 738 397 738 430 738 395 739 398 739 433 739 394 740 395 740 432 740 397 741 394 741 431 741 435 742 434 742 421 742 436 743 435 743 422 743 437 744 436 744 420 744 434 745 437 745 419 745 419 746 421 746 434 746 420 747 419 747 437 747 422 748 420 748 436 748 421 749 422 749 435 749 439 750 438 750 400 750 440 751 439 751 401 751 441 752 440 752 403 752 438 753 441 753 402 753 402 754 400 754 438 754 403 755 402 755 441 755 401 756 403 756 440 756 400 757 401 757 439 757 442 726 445 726 412 726 443 758 442 758 411 758 444 759 443 759 413 759 445 760 444 760 409 760 409 730 412 730 445 730 413 761 409 761 444 761 411 732 413 732 443 732 412 733 411 733 442 733 446 762 449 762 425 762 447 763 446 763 414 763 448 764 447 764 424 764 449 765 448 765 423 765 424 766 423 766 448 766 414 767 424 767 447 767 425 768 414 768 446 768 423 769 425 769 449 769 450 770 453 770 407 770 451 758 450 758 405 758 452 728 451 728 408 728 453 771 452 771 406 771 406 772 407 772 453 772 408 731 406 731 452 731 405 773 408 773 451 773 407 774 405 774 450 774 459 775 282 775 437 775 282 776 454 776 435 776 437 777 434 777 460 777 436 778 437 778 282 778 437 779 460 779 459 779 435 780 436 780 282 780 434 781 435 781 454 781 460 782 454 782 432 782 454 783 455 783 431 783 455 784 430 784 431 784 460 785 432 785 433 785 454 786 431 786 432 786 433 514 430 514 460 514 456 787 438 787 439 787 460 788 455 788 439 788 439 789 440 789 460 789 461 514 460 514 441 514 441 790 438 790 461 790 460 791 440 791 441 791 439 792 455 792 456 792 461 793 456 793 451 793 461 794 452 794 453 794 461 795 451 795 452 795 457 796 453 796 450 796 450 797 456 797 457 797 450 798 451 798 456 798 461 799 457 799 443 799 462 800 444 800 445 800 461 801 443 801 444 801 458 796 445 796 442 796 462 802 461 802 444 802 442 803 457 803 458 803 442 804 443 804 457 804 462 805 458 805 427 805 462 806 428 806 429 806 462 795 427 795 428 795 463 807 429 807 426 807 426 808 458 808 463 808 426 809 427 809 458 809 280 810 465 810 464 810 464 811 466 811 274 811 464 812 274 812 280 812 460 514 467 514 465 514 460 813 274 813 466 813 465 514 280 514 460 514 460 814 466 814 467 814 274 815 469 815 468 815 468 816 275 816 274 816 460 817 470 817 469 817 461 818 275 818 468 818 469 819 274 819 460 819 460 514 461 514 470 514 468 820 471 820 461 820 461 821 471 821 470 821 279 822 275 822 472 822 275 823 473 823 472 823 473 824 275 824 461 824 461 825 475 825 473 825 472 826 474 826 279 826 461 827 279 827 474 827 461 828 474 828 475 828 461 829 462 829 479 829 279 830 477 830 476 830 477 831 279 831 461 831 461 832 479 832 477 832 462 833 277 833 478 833 476 826 478 826 277 826 462 834 478 834 479 834 476 835 277 835 279 835 278 836 481 836 480 836 278 822 277 822 481 822 277 837 482 837 481 837 462 827 278 827 480 827 482 838 277 838 462 838 462 828 480 828 483 828 483 839 482 839 462 839 286 840 281 840 485 840 485 841 484 841 286 841 281 842 278 842 486 842 462 843 487 843 486 843 486 844 485 844 281 844 486 845 278 845 462 845 290 846 484 846 488 846 488 847 462 847 290 847 484 848 290 848 286 848 488 849 487 849 462 849 459 850 489 850 272 850 280 851 489 851 491 851 459 852 460 852 490 852 489 853 280 853 272 853 460 854 280 854 491 854 491 855 490 855 460 855 272 856 266 856 459 856 459 857 269 857 282 857 459 858 266 858 269 858 463 859 282 859 285 859 462 860 463 860 447 860 291 861 449 861 446 861 291 862 290 862 449 862 290 863 448 863 449 863 462 801 447 801 448 801 463 864 291 864 446 864 290 865 462 865 448 865 446 866 447 866 463 866 285 867 291 867 463 867 429 868 463 868 462 868 445 869 458 869 462 869 453 870 457 870 461 870 438 871 456 871 461 871 430 514 455 514 460 514 434 872 454 872 460 872 282 873 463 873 458 873 282 874 458 874 457 874 282 875 457 875 456 875 282 876 456 876 455 876 282 875 455 875 454 875 376 877 372 877 497 877 492 878 493 878 495 878 372 879 494 879 496 879 494 880 495 880 496 880 495 881 494 881 492 881 496 882 497 882 372 882 492 883 497 883 493 883 372 877 371 877 500 877 498 884 500 884 371 884 371 885 499 885 498 885 501 886 499 886 502 886 499 887 503 887 502 887 502 888 505 888 501 888 505 889 504 889 373 889 373 890 501 890 505 890 504 891 371 891 373 891 504 892 503 892 371 892 373 893 374 893 506 893 501 894 507 894 509 894 374 895 510 895 506 895 509 888 510 888 508 888 374 890 508 890 510 890 509 896 508 896 501 896 506 892 507 892 373 892 374 893 375 893 511 893 508 894 512 894 514 894 375 897 515 897 511 897 514 898 515 898 513 898 375 899 513 899 515 899 514 900 513 900 508 900 511 892 512 892 374 892 492 901 494 901 370 901 494 902 499 902 370 902 499 903 501 903 370 903 501 904 508 904 370 904 508 905 513 905 366 905 366 906 513 906 369 906 376 907 518 907 516 907 516 908 517 908 378 908 516 909 378 909 376 909 376 910 492 910 518 910 492 911 377 911 519 911 492 912 519 912 518 912 377 913 517 913 519 913 375 914 364 914 521 914 364 915 520 915 521 915 369 916 520 916 364 916 521 917 513 917 375 917 517 918 377 918 378 918 370 919 377 919 492 919 366 920 370 920 508 920 512 921 508 921 374 921 507 921 501 921 373 921 503 922 499 922 371 922 500 923 494 923 372 923 497 924 492 924 376 924 490 925 491 925 518 925 459 926 490 926 519 926 489 927 459 927 517 927 491 928 489 928 516 928 516 929 518 929 491 929 517 930 516 930 489 930 519 931 517 931 459 931 518 932 519 932 490 932 467 933 466 933 495 933 465 934 467 934 493 934 464 935 465 935 497 935 466 936 464 936 496 936 497 937 496 937 464 937 493 938 497 938 465 938 495 939 493 939 467 939 496 940 495 940 466 940 471 941 468 941 498 941 470 942 471 942 499 942 469 943 470 943 494 943 468 944 469 944 500 944 500 945 498 945 468 945 494 946 500 946 469 946 499 947 494 947 470 947 498 948 499 948 471 948 475 949 474 949 505 949 473 950 475 950 502 950 472 951 473 951 503 951 474 952 472 952 504 952 504 953 505 953 474 953 503 954 504 954 472 954 502 955 503 955 473 955 505 956 502 956 475 956 479 957 478 957 510 957 477 958 479 958 509 958 476 951 477 951 507 951 478 952 476 952 506 952 506 959 510 959 478 959 507 954 506 954 476 954 509 955 507 955 477 955 510 960 509 960 479 960 483 949 480 949 515 949 482 961 483 961 514 961 481 951 482 951 512 951 480 952 481 952 511 952 511 953 515 953 480 953 512 954 511 954 481 954 514 962 512 962 482 962 515 963 514 963 483 963 488 964 484 964 369 964 487 965 488 965 513 965 486 966 487 966 513 966 485 967 486 967 521 967 484 968 485 968 520 968 520 969 369 969 484 969 521 970 520 970 485 970 513 971 521 971 486 971 369 972 513 972 488 972 55 973 525 973 526 973 525 974 56 974 57 974 55 975 56 975 525 975 522 27 523 27 57 27 526 976 524 976 55 976 524 977 58 977 55 977 58 978 524 978 522 978 57 979 58 979 522 979 57 980 523 980 525 980 523 981 527 981 531 981 531 982 525 982 523 982 527 983 523 983 522 983 522 983 528 983 527 983 528 984 522 984 524 984 524 984 529 984 528 984 529 985 524 985 526 985 526 986 530 986 529 986 528 987 529 987 533 987 533 988 532 988 528 988 533 989 529 989 530 989 530 990 531 990 534 990 534 991 533 991 530 991 531 992 527 992 532 992 532 993 534 993 531 993 532 994 527 994 528 994 535 995 538 995 533 995 536 996 535 996 534 996 537 997 536 997 534 997 538 998 537 998 532 998 532 999 533 999 538 999 534 1000 532 1000 537 1000 533 1001 534 1001 535 1001 539 1002 536 1002 537 1002 539 1003 535 1003 536 1003 539 1004 538 1004 535 1004 539 1005 537 1005 538 1005 188 1006 185 1006 114 1006 53 1007 46 1007 40 1007 185 1008 183 1008 116 1008 53 1009 38 1009 540 1009 116 1010 114 1010 185 1010 118 1007 183 1007 181 1007 181 1011 120 1011 118 1011 139 1012 126 1012 124 1012 540 1013 543 1013 105 1013 248 1007 80 1007 78 1007 245 1014 82 1014 80 1014 118 1007 116 1007 183 1007 120 1015 181 1015 179 1015 120 1016 179 1016 178 1016 80 1017 248 1017 245 1017 543 1018 259 1018 193 1018 191 1019 111 1019 108 1019 122 1020 120 1020 178 1020 178 1021 145 1021 124 1021 38 1022 35 1022 526 1022 40 1007 38 1007 53 1007 105 1023 53 1023 540 1023 196 1024 226 1024 70 1024 245 1025 243 1025 82 1025 193 1026 108 1026 543 1026 111 1007 191 1007 189 1007 189 1007 112 1007 111 1007 124 1027 122 1027 178 1027 124 1028 145 1028 139 1028 526 1029 525 1029 38 1029 70 1007 88 1007 196 1007 70 1030 226 1030 237 1030 74 1031 72 1031 253 1031 253 1007 251 1007 74 1007 251 1007 249 1007 76 1007 112 1007 189 1007 188 1007 543 1032 108 1032 105 1032 40 1033 46 1033 42 1033 541 1034 35 1034 51 1034 37 1007 49 1007 51 1007 243 1007 241 1007 85 1007 45 1035 49 1035 37 1035 51 1007 35 1007 37 1007 76 1007 74 1007 251 1007 85 1036 82 1036 243 1036 258 1037 541 1037 86 1037 114 1007 112 1007 188 1007 525 1038 540 1038 38 1038 35 1039 541 1039 544 1039 237 1040 72 1040 70 1040 237 1041 253 1041 72 1041 249 1007 78 1007 76 1007 241 1042 240 1042 86 1042 540 1043 525 1043 531 1043 545 1044 530 1044 526 1044 78 1007 249 1007 248 1007 86 1007 85 1007 241 1007 108 1045 193 1045 191 1045 526 1046 35 1046 545 1046 51 1047 68 1047 541 1047 86 1048 240 1048 258 1048 544 1049 545 1049 35 1049 68 1050 86 1050 541 1050 531 1051 542 1051 540 1051 255 1052 262 1052 261 1052 261 1053 258 1053 255 1053 258 1054 530 1054 545 1054 258 1055 261 1055 531 1055 531 1056 530 1056 258 1056 261 1057 259 1057 542 1057 542 1058 531 1058 261 1058 259 1059 546 1059 542 1059 546 1060 259 1060 543 1060 547 1061 548 1061 546 1061 546 1062 543 1062 547 1062 549 1063 547 1063 129 1063 549 1064 129 1064 130 1064 128 1065 547 1065 543 1065 127 1066 128 1066 543 1066 130 27 550 27 549 27 127 1067 543 1067 540 1067 540 1068 550 1068 127 1068 128 1069 129 1069 547 1069 130 1070 127 1070 550 1070 548 1071 547 1071 549 1071 549 1071 551 1071 548 1071 551 1072 549 1072 550 1072 550 1073 552 1073 551 1073 552 1074 550 1074 540 1074 540 1075 542 1075 552 1075 551 587 552 587 554 587 553 1076 548 1076 551 1076 542 1077 546 1077 556 1077 548 1078 553 1078 556 1078 554 1079 553 1079 551 1079 542 1080 555 1080 554 1080 546 1081 548 1081 556 1081 556 1082 555 1082 542 1082 554 1083 552 1083 542 1083 557 1084 258 1084 545 1084 541 1085 258 1085 557 1085 558 1086 559 1086 545 1086 545 1087 544 1087 558 1087 560 27 558 27 91 27 544 1088 90 1088 91 1088 91 1089 558 1089 544 1089 92 1090 561 1090 560 1090 91 1091 92 1091 560 1091 89 1092 544 1092 541 1092 92 1093 89 1093 561 1093 89 1094 90 1094 544 1094 541 1095 561 1095 89 1095 559 1071 558 1071 560 1071 560 1096 562 1096 559 1096 562 1073 560 1073 561 1073 561 1073 563 1073 562 1073 563 1097 561 1097 541 1097 541 1098 557 1098 563 1098 562 1099 565 1099 564 1099 562 1100 563 1100 565 1100 564 587 559 587 562 587 563 1101 566 1101 565 1101 567 1102 566 1102 557 1102 557 1103 545 1103 567 1103 545 1104 559 1104 567 1104 566 1105 563 1105 557 1105 564 1106 567 1106 559 1106 569 1107 568 1107 567 1107 570 1108 569 1108 567 1108 571 1109 570 1109 564 1109 568 1110 571 1110 565 1110 565 1111 566 1111 568 1111 564 1112 565 1112 571 1112 567 1113 564 1113 570 1113 566 1114 567 1114 568 1114 572 1115 569 1115 570 1115 572 1116 568 1116 569 1116 572 1117 571 1117 568 1117 572 1118 570 1118 571 1118 574 1119 573 1119 556 1119 575 1120 574 1120 556 1120 576 1121 575 1121 553 1121 573 1122 576 1122 554 1122 553 1123 554 1123 576 1123 556 1124 553 1124 575 1124 555 1125 556 1125 573 1125 554 1126 555 1126 573 1126 577 1127 573 1127 574 1127 577 1128 576 1128 573 1128 577 1129 575 1129 576 1129 577 1130 574 1130 575 1130</p>
        </triangles>
      </mesh>
    </geometry>
  </library_geometries>
  <library_visual_scenes>
    <visual_scene id="Scene" name="Scene">
      <node id="Link04_realsense" name="Link04 realsense" type="NODE">
        <matrix sid="transform">0.001 0 0 0 0 0.001 0 0 0 0 0.001 0 0 0 0 1</matrix>
        <instance_geometry url="#Link04_realsense-mesh" name="Link04 realsense"/>
      </node>
    </visual_scene>
  </library_visual_scenes>
  <scene>
    <instance_visual_scene url="#Scene"/>
  </scene>
</COLLADA>