<?xml version="1.0" encoding="utf-8"?>
<COLLADA xmlns="http://www.collada.org/2005/11/COLLADASchema" version="1.4.1" xmlns:xsi="http://www.w3.org/2001/XMLSchema-instance">
  <asset>
    <contributor>
      <author>Blender User</author>
      <authoring_tool>Blender 2.90.1 commit date:2020-09-23, commit time:06:43, hash:3e85bb34d0d7</authoring_tool>
    </contributor>
    <created>2020-11-18T10:35:52</created>
    <modified>2020-11-18T10:35:52</modified>
    <unit name="meter" meter="1"/>
    <up_axis>Z_UP</up_axis>
  </asset>
  <library_images/>
  <library_geometries>
    <geometry id="Interface_Plate-mesh" name="Interface Plate">
      <mesh>
        <source id="Interface_Plate-mesh-positions">
          <float_array id="Interface_Plate-mesh-positions-array" count="1347">-0.01297342 -0.001571059 0.005999982 -0.01302456 -0.001066505 0 -0.012434 0.004021525 0.005999982 -0.01173073 0.00593394 -6.03296e-6 -0.009513795 0.008989512 0.006000101 -0.00490415 0.01210695 0.006000101 -0.004538416 0.01256024 -1.99621e-5 0.003888964 0.01242566 0 0.003570079 0.01288056 0.006040871 0.01112192 0.007009685 0.006006002 0.008722305 0.009731292 0 0.01200222 0.005169451 0 0.01314848 -0.002115905 0.006027519 0.01085078 -0.007519364 2.0323e-6 0.008058607 -0.01043605 0.006000339 0.005811691 -0.01170474 0 -2.25227e-4 -0.01323473 0.005985498 -0.001343548 -0.01317733 -2.13158e-5 -0.007243692 -0.01089251 0.006000041 -0.007612049 -0.01062172 1.75968e-7 -0.0111342 -0.006814002 0.005999922 -0.01130264 -0.006533265 0 0.01741117 -0.02647709 0.005987405 0.008968055 -0.01838845 0.005926012 -0.004238963 -0.03137171 0.00599265 -0.01103287 -0.01999098 0.005943596 0.0153771 -0.01851272 0.005958914 0.01827543 -0.01438236 0.005903363 -0.01637876 -0.02153855 0.005904495 -0.003311872 -0.01519459 0.005909442 0.005846083 -0.01672613 0.005871355 0.004034757 -0.01438242 0.005911767 0.01601427 -0.009238958 0.005949437 -0.009932875 -0.01515859 0.005950927 0.02954709 -0.01123672 0.005995154 0.01546323 -0.001888453 0.005939126 -0.02670723 -0.01700508 0.00599122 -0.024333 -0.008475661 0.005875408 -0.0205987 -0.01069712 0.005966484 -0.01579511 -0.007507801 0.005933284 0.02097982 -8.46528e-4 0.005839705 0.03098481 -0.001480042 0.005999982 -0.02057385 9.17953e-4 0.005931258 -0.01514118 0.00326693 0.005947172 -0.01599961 -0.002975225 0.005892157 -0.01660549 -2.86886e-4 0.00585699 -0.01830422 -0.001787364 0.005900859 0.01244294 0.009105324 0.005901455 0.01521342 0.004238009 0.005939483 0.01723003 -3.38819e-4 0.005953073 0.02243202 0.007860302 0.005930602 0.01578289 0.00655055 0.005788266 0.01757901 0.004577755 0.005897343 0.02651721 0.007756829 0.005757331 0.02773457 0.005512893 0.005716502 0.02431464 0.008414387 0.005757749 0.02690595 0.002324163 0.00598216 0.0223996 0.002009093 0.005983471 0.0212602 0.005722522 0.005717873 -0.0313695 0.004680395 0.006022334 -0.02330809 0.006363034 0.005967199 -0.02073019 0.01080203 0.005786359 -0.01340341 0.01011747 0.005965232 0.00569719 0.01473826 0.005962669 0.01070874 0.01020932 0.005931913 0.008347332 0.01541781 0.005958318 -0.01470464 0.01593685 0.00591135 0.00705105 0.02192276 0.005987048 -0.01872873 0.01531213 0.005794465 -0.01532113 0.01866245 0.005931019 -0.009066462 0.01805722 0.005990505 0.001148045 0.02017247 0.00596708 -0.001923322 0.02461361 0.005846619 0.01077216 -0.01257014 0.005935549 0.008855104 -0.01283788 0.005862772 -0.003962278 -0.01796942 0.005906224 0.00144416 -0.01745927 0.005909264 -0.004956722 -0.01668411 0.00592035 -0.002169311 -0.01717406 0.005866765 0.01492959 -0.00701332 0.005894482 -0.01086795 -0.01250845 0.005951583 -0.008527457 -0.01317369 0.00586915 -0.01370066 -0.007490158 0.005923509 0.007377386 0.01421821 0.00593239 -0.01133036 0.01082807 0.005823552 -0.01179444 0.01251363 0.005966544 4.45274e-4 0.01564812 0.005889356 -0.006137907 0.01437491 0.005891621 -0.001348137 0.0176438 0.00590229 -0.006135165 0.01672291 0.005919396 0.001253426 0.01784074 0.005865991 0.003579378 -0.0188713 0.005804955 -0.002459228 -0.02214515 0.005938827 0.001753211 -0.0153312 0.005829036 -0.005446612 -0.02053093 0.005892753 -0.004174113 -0.01944994 0.005926311 -0.0050264 -0.02245199 0.0058797 -0.002499878 -0.02031457 0.005881011 0.01062512 -0.01519274 0.005976259 0.008926451 -0.01467698 0.005923032 0.01134443 -0.01403737 0.005879938 0.01335084 -0.01503431 0.005847096 -0.0172494 -0.01525878 0.005904436 -0.02033358 -0.01439577 0.005876541 -0.01741421 -0.009332954 0.005893409 -0.01580578 -0.009799718 0.006015896 -0.01369792 -0.009520947 0.005888819 -0.01479208 -0.01306343 0.005887448 -0.01130795 -0.01428669 0.005945742 0.01493626 0.01080316 0.005878865 0.0174573 0.009317994 0.005929529 0.02047795 0.01068603 0.0058797 0.01054072 0.01213604 0.005860447 0.01166725 0.0133748 0.00585711 0.01482093 0.0120176 0.005858838 0.01364004 0.01333433 0.00587064 0.0164529 0.01510095 0.005947053 -0.02460706 -0.001911938 0.00586903 -0.02292233 0.001431703 0.005801856 -0.02437978 0.004180252 0.005881369 -0.02057182 0.006893098 0.005822539 -0.01669925 0.007393062 0.005886256 -0.01877993 0.002237021 0.00596559 -0.0170347 0.003282248 0.005815565 -0.01851844 0.005230605 0.005793809 -0.01410299 0.004570484 0.005829632 0.006028234 0.01663321 0.005924761 0.005787134 0.01885527 0.005934357 0.007573604 0.01674735 0.005910694 0.002832353 0.01860523 0.005881369 0.001378834 0.02330428 0.005972802 0.005211174 0.02427273 0.005887448 -0.008150398 0.01494282 0.005901813 -0.00803399 0.01643913 0.005934178 -0.01138228 0.01489228 0.005931675 -0.01373606 0.01237398 0.00585699 -0.01299345 0.02089101 0.00595051 0.020527 -0.006904423 0.005872905 0.02331262 -0.006354093 0.005943477 0.01734983 -0.003221392 0.005956888 0.01842147 -0.002290725 0.006002724 0.01999241 -0.01108634 0.005844473 0.02363568 -0.01258909 0.005877256 0.02196443 -0.01105529 0.005803763 0.01858901 -0.01234656 0.005764305 0.02546721 -0.01865106 0.005999982 0.02335619 -0.015064 0.005749225 0.02032172 -0.01633435 0.005770087 -0.01702195 -0.02678787 0.006003081 -0.01485747 -0.02349221 0.005755484 -0.01534676 -0.01870197 0.00576359 -0.01245844 -0.01849579 0.005794644 -0.01231938 -0.02338486 0.005849897 -0.01105463 -0.02191561 0.005795538 0.01629638 0.02719497 0.006008565 0.01213318 0.02326089 0.005845367 0.01498085 0.02346867 0.005785942 0.01081007 0.02075237 0.005776405 0.01532697 0.01869606 0.00576204 0.01245445 0.01849502 0.005822181 0.01635223 0.02122151 0.00587511 -0.02331513 0.01215678 0.005858063 -0.02775216 0.01506865 0.005999982 -0.0235005 0.0148586 0.005755603 -0.02124094 0.01643288 0.005844175 -0.01838934 0.01266789 0.005793988 0.006317794 -0.02750676 0.005806326 0.0084486 -0.02432996 0.005807936 0.003470957 -0.02729767 0.005716264 0.007880032 -0.02623897 0.005749344 0.007703423 -0.02241539 0.005752265 0.005654931 -0.0211969 0.005799174 0.002909183 -0.02207201 0.005711793 -0.02672785 -0.002892434 0.005720198 -0.02774035 -0.005498826 0.005716204 -0.02651733 -0.007756829 0.005757391 -0.02245366 -0.00772649 0.005751788 -0.02134782 -0.006067335 0.005753457 -0.02139472 -0.004081785 0.005810558 -0.02266812 -0.002515614 0.005749344 -0.008076131 0.02278882 0.005814075 -0.01074153 0.02050215 0.005818724 -0.006403744 0.02136176 0.005813717 -0.008421003 0.02642959 0.005985379 -0.01585495 0.02723693 0.006000101 -0.005482673 0.02773767 0.005716204 -0.002892434 0.02672785 0.005720198 -0.004070222 0.02140831 0.005813002 -0.002515554 0.02266812 0.005749404 -0.01447486 0.006753146 0.005839169 0.01358324 -0.009299457 0.005919575 -0.02254831 0.02211982 0.006000041 0.001948833 -0.02457815 0.005817353 0.01247787 -0.02094852 0.005870103 0.03122651 -0.004018485 0.005999982 0.0244221 -0.002880156 0.005941212 0.02674829 0.01715981 0.005975425 0.02015966 0.01449054 0.005874812 0.004397869 0.03126728 0.005993723 0.02724266 0.01574087 0 0.02130544 0.02338731 -3.38911e-6 0.01047825 0.0299139 -2.49448e-6 -0.02623653 0.01770114 -3.86092e-6 -0.03130936 0.005197286 3.77834e-7 -0.02731114 -0.01561617 0 -0.01970767 -0.02492815 -2.5583e-7 -0.004380583 -0.03148519 3.15967e-5 0.01654607 -0.0269339 9.58252e-7 0.02500772 -0.01926285 0 0.02927643 -0.01180398 0 0.03133416 -0.003347814 0 -0.01691579 0.02675169 1.19651e-5 0.00263518 0.03120762 0 0.02211827 0.003095209 0.005345344 0.02573812 0.002333521 0.005349159 0.02156531 0.003404319 7.35491e-5 0.02120715 0.005718231 2.41848e-4 0.0223788 0.007697224 1.85654e-4 0.02421963 0.008473813 1.32703e-4 0.02617788 0.007919728 2.50606e-4 0.02747195 0.006408572 1.93616e-4 0.02757531 0.00439912 2.50443e-4 0.02647948 0.002684473 2.50033e-4 0.02363282 0.001958012 2.43016e-4 -0.008269965 0.02509808 0.005349099 -0.008477151 0.02422142 1.28792e-4 -0.007919669 0.026178 2.50589e-4 -0.006408572 0.02747195 1.93663e-4 -0.004355072 0.02756965 2.50328e-4 -0.002455592 0.0262677 1.75941e-4 -0.002072632 0.02349311 3.45707e-4 -0.00356096 0.0215916 2.38117e-4 -0.005710244 0.02117699 1.87256e-4 -0.007681369 0.02240449 2.41914e-4 -0.02747154 -0.006398379 1.8635e-4 -0.02757519 -0.004399061 2.50662e-4 -0.02655553 -0.00269109 1.57369e-4 -0.02462911 -0.001944661 1.92203e-4 -0.02190065 -0.003110647 3.53383e-4 -0.02110862 -0.00568968 8.85645e-5 -0.02270525 -0.007977068 1.9864e-4 -0.02555829 -0.008280277 3.57292e-4 0.002072155 -0.02347642 3.45369e-4 0.003707647 -0.02148389 1.83553e-4 0.006336331 -0.02141976 2.6823e-4 0.008313894 -0.02337807 2.8357e-4 0.008204281 -0.02580684 2.38122e-4 0.006709694 -0.02740591 1.86868e-4 0.0043509 -0.02756708 2.41319e-4 0.00246936 -0.02625375 2.16361e-4 -0.01827585 0.01429569 6.3903e-5 -0.01996815 0.01632124 8.65929e-5 -0.02146595 0.01614099 5.12215e-4 -0.02322965 0.01530009 1.99743e-4 -0.02349662 0.01224374 1.67411e-4 -0.02079349 0.01079505 1.3292e-4 -0.0185554 0.01232457 2.04553e-4 0.01614099 0.02146595 5.12215e-4 0.01530003 0.02322959 1.99866e-4 0.01229262 0.02352637 1.36576e-4 0.01080238 0.02122139 8.65164e-5 0.01151978 0.01917517 2.89553e-4 0.01411372 0.01822626 6.55412e-5 0.01632112 0.01996129 8.61619e-5 -0.01081198 -0.02094751 1.24917e-4 -0.01190483 -0.01879292 9.93408e-5 -0.01413244 -0.01825302 1.19303e-4 -0.01632094 -0.01996135 8.64977e-5 -0.01614099 -0.02146595 5.12215e-4 -0.01530009 -0.02322965 1.99743e-4 -0.01230669 -0.02351027 1.75552e-4 0.02351915 -0.0122987 1.5373e-4 0.02122426 -0.01080513 8.87697e-5 0.01917606 -0.0115202 2.90736e-4 0.01823443 -0.01412647 8.16186e-5 0.02035146 -0.01642245 2.24747e-4 0.02322947 -0.01530021 1.99786e-4 0.02319419 -0.001574277 0.001999795 0.01930475 -0.001748681 0.001999318 0.0189169 -0.005680501 0.001999855 0.02187901 -0.006857872 0.001999974 0.02417415 -0.004809379 0.001998305 0.02000397 -0.004825115 0.002009868 0.02204281 -0.005464732 0.001999974 0.02286392 -0.003170847 0.001996397 0.02054244 -0.002511739 0.001990258 0.02269643 -0.002802371 7.87931e-5 0.02092981 -0.002311468 1.12197e-4 0.01978468 -0.003312706 1.54788e-4 0.02035564 -0.005446851 8.62889e-5 0.02284997 -0.004977226 1.18258e-4 -0.009964048 0.01982331 0.001978218 -0.01392954 0.02042019 0.001999795 -0.01519918 0.0170536 0.001994013 -0.0127446 0.01501965 0.001999974 -0.009952247 0.01605588 0.001999676 -0.0115323 0.01639562 0.001995801 -0.01117563 0.01914823 0.002006113 -0.01402771 0.01808059 0.00200808 -0.01060271 0.01775705 1.12002e-4 -0.01140254 0.01939892 4.25525e-5 -0.01348739 0.01925927 2.18332e-4 -0.01408964 0.01746112 2.77527e-5 -0.0120958 0.01612806 1.41558e-4 0.004864156 0.02418333 0.001994192 0.001622378 0.02326858 0.001995801 0.001363396 0.02002227 0.001999974 0.003785669 0.01842296 0.001999616 0.006989717 0.02078497 0.002002298 0.002511739 0.02054244 0.001990258 0.004825115 0.02000397 0.002009868 0.005464732 0.02204281 0.001999974 0.003170847 0.02286392 0.001996397 0.004977345 0.02285015 1.17865e-4 0.002802371 0.02269625 7.89918e-5 0.002295553 0.02093487 6.86819e-5 0.00329113 0.01976406 7.22095e-5 0.005443334 0.02034944 7.71278e-5 -0.01888263 0.005618274 0.001995801 -0.02187901 0.006857872 0.001999974 -0.02417433 0.004812598 0.001998186 -0.02319484 0.001574635 0.001999855 -0.01929384 0.001735806 0.00200057 -0.02000397 0.004825115 0.002009868 -0.02054244 0.002511739 0.001990258 -0.02286392 0.003170847 0.001996397 -0.02204281 0.005464732 0.001999974 -0.0201531 0.005183458 1.27556e-4 -0.02189046 0.005729556 3.82823e-5 -0.02317297 0.004000663 5.17671e-5 -0.02222549 0.002353191 5.21325e-5 -0.02004873 0.002713501 2.07281e-4 0.02040374 0.01398694 0.001999199 0.01697462 0.01519429 0.00199902 0.01501965 0.0127446 0.001999974 0.01612013 0.009930551 0.001996874 0.01985031 0.009939908 0.001972138 0.01914936 0.01340812 0.001999974 0.0191552 0.01118081 0.002004623 0.01639562 0.0115323 0.001996397 0.01726764 0.01382046 0.001999974 0.01969522 0.01238197 1.22404e-4 0.01770824 0.01415961 9.22677e-5 0.01615327 0.01242518 5.97042e-5 0.01680076 0.01094543 1.34879e-4 0.0187357 0.01069045 6.78011e-5 -0.0161159 -0.009933233 0.001996874 -0.01986128 -0.009905576 0.001976072 -0.02042663 -0.01396405 0.002000093 -0.01697468 -0.01519429 0.001998782 -0.01501965 -0.0127446 0.001999974 -0.01808732 -0.01397716 0.002009868 -0.01640415 -0.01152849 0.00200361 -0.01916801 -0.01119124 0.002003669 -0.01656299 -0.01121717 6.20578e-5 -0.01826357 -0.01063299 6.25479e-5 -0.01947951 -0.01167124 1.2323e-4 -0.01918524 -0.01360106 1.57138e-4 -0.01687228 -0.01372206 1.10777e-4 0.01389944 -0.01536291 0.001998186 0.009947896 -0.01608669 0.001998186 0.009719073 -0.01928818 0.001999974 0.012187 -0.02090114 0.001997113 0.01512175 -0.01894056 0.001998603 0.01118081 -0.0191552 0.002005338 0.01340812 -0.01914936 0.001999974 0.01382046 -0.01726764 0.001999974 0.01151245 -0.01638877 0.00200355 0.01351577 -0.01654154 6.86815e-5 0.01169627 -0.01638036 1.11433e-4 0.01050323 -0.01796334 8.18014e-5 0.0121724 -0.01971042 1.4257e-4 0.01384991 -0.01871985 5.81028e-5 -0.003970682 -0.01946389 1.47503e-4 -0.005553543 -0.02090728 9.65931e-5 -0.005087196 -0.02236634 1.13266e-4 -0.003523707 -0.02269905 1.40237e-4 -0.002232074 -0.02133989 5.93836e-5 0.01435726 0.01269352 2.48023e-4 0.0125603 0.01362812 1.35749e-4 0.0104168 0.0117731 5.00163e-5 0.01128172 0.009617865 2.23856e-4 0.0134859 0.009266078 7.13006e-5 0.01472175 0.010881 1.56234e-4 -0.01410216 0.006175637 7.07123e-5 -0.01543915 0.007427155 8.17301e-5 -0.01728934 0.007186949 2.31431e-4 -0.01833337 0.004737675 2.04504e-4 -0.01629364 0.002967178 1.12596e-4 -0.01407599 0.004467964 1.51669e-4 0.005773603 -0.01653224 6.15739e-5 0.004282057 -0.01446557 1.38678e-4 0.001926302 -0.01512008 1.57641e-4 0.001347303 -0.01671171 5.27384e-5 0.0022704 -0.0184673 2.11161e-4 0.004760384 -0.01849424 1.83458e-4 -0.008000791 0.01662534 4.34801e-5 -0.006170809 0.01671814 5.6361e-5 -0.005545139 0.01541227 1.29864e-4 -0.007255017 0.01407498 1.17268e-4 -0.001325905 0.01746255 6.91884e-5 5.81351e-4 0.01825839 1.476e-4 0.001255989 0.01638126 8.67323e-5 -8.44104e-4 0.0157656 3.33871e-5 -0.01411539 0.01146477 8.31351e-5 -0.01291495 0.01271754 9.1153e-5 -0.01132965 0.01201868 1.17175e-5 -0.01235044 0.009956061 8.04299e-5 0.005707979 0.016272 4.10842e-5 0.007931351 0.01672202 5.52055e-5 0.008089065 0.01478266 5.44109e-5 0.006649255 0.0141412 1.56733e-4 -0.01761996 -5.40676e-4 7.21384e-5 -0.0156911 -0.001050889 1.26087e-4 -0.01620489 -0.003039002 4.11215e-5 -0.01823979 -0.00226289 3.32645e-5 0.01476114 0.005099236 6.26518e-5 0.01548838 0.006439864 9.91501e-5 0.01722478 0.006263494 2.11566e-5 0.0173037 0.004460453 1.03663e-4 0.01575905 0.003906428 8.69434e-5 -0.01617151 -0.008668422 8.65319e-5 -0.01536178 -0.007180273 6.46694e-5 -0.01365458 -0.007481098 6.55647e-5 -0.01353901 -0.009277462 3.69677e-5 -0.0148701 -0.009859383 9.91501e-5 0.01548469 -0.001844763 8.98901e-5 0.01645779 -4.72169e-4 9.58487e-5 0.0179485 -9.06735e-4 1.18167e-4 0.01826637 -0.002247273 4.31052e-5 0.01697343 -0.003178715 6.9773e-5 -0.01127564 -0.01428109 1.07582e-4 -0.01070696 -0.01256924 2.08258e-4 -0.009124338 -0.0126602 2.57564e-5 -0.008672773 -0.01415693 9.58486e-5 -0.009846031 -0.01521903 8.03507e-5 0.01404416 -0.00722295 1.33127e-4 0.01605087 -0.008081555 9.22068e-5 0.01544564 -0.009830713 0 0.01366496 -0.009398519 1.07582e-4 -0.004724979 -0.01588588 3.74498e-5 -0.00271058 -0.0154199 1.09954e-4 -0.002379536 -0.01742202 9.53642e-5 -0.004164159 -0.0179181 1.63547e-4 0.01016241 -0.01229953 6.73166e-5 0.01306354 -3.47904e-4 0 0.01134145 -0.01433306 1.52517e-4 0.009974479 -0.01512265 6.89923e-5 0.008575141 -0.01396358 1.43857e-4</float_array>
          <technique_common>
            <accessor source="#Interface_Plate-mesh-positions-array" count="449" stride="3">
              <param name="X" type="float"/>
              <param name="Y" type="float"/>
              <param name="Z" type="float"/>
            </accessor>
          </technique_common>
        </source>
        <source id="Interface_Plate-mesh-normals">
          <float_array id="Interface_Plate-mesh-normals-array" count="3066">0.9952448 -0.09598857 -0.01656144 0.8605284 -0.5058215 -0.06029599 0.5599818 -0.8280206 -0.02832341 0.09101778 -0.9934375 -0.06926691 -0.610244 -0.7843144 -0.1115942 -0.9733287 -0.2163283 -0.07637763 -0.8442325 0.5169251 -0.1416335 -0.3189137 0.9443799 -0.08025503 0.3160745 0.9474268 -0.04979348 0.7235234 0.6901723 -0.01327073 0.9435688 0.3309938 -0.0110051 0.9536646 0.3003844 0.0171225 0.7422571 0.6700329 0.01050812 0.3775144 0.9258167 0.01860934 -0.2014914 0.9783686 0.04686355 -0.6370843 0.7669992 0.0763933 -0.9508038 0.2933946 0.09945803 -0.9811502 -0.1887311 -0.04153448 -0.8104715 -0.5827227 0.05975335 -0.4865174 -0.8727531 0.0400362 -0.01609718 -0.9971111 0.07423311 0.6725605 -0.7297478 0.1230064 0.9817445 -0.181401 0.05719828 0.015778 0.01683408 0.9997339 0.004901289 0.003019809 0.9999834 -0.02625304 -0.005201637 0.9996418 -0.06020742 -5.19654e-4 0.9981858 0.00978434 -0.02939254 0.9995201 0.0205245 0.005966961 0.9997715 0.008646845 0.009468495 0.9999178 -0.01554477 0.008376419 0.9998442 0.016366 0.01018035 0.9998143 -0.0075863 -3.72864e-4 0.9999712 -0.01006621 -0.0573967 0.9983007 -0.01526063 0.01242494 0.9998064 0.07036221 0.04783684 0.9963738 -0.02736341 0.03032481 0.9991655 -0.00883919 -0.02296882 0.9996971 -0.1628057 -0.03570276 0.986012 0.1071946 -0.05453538 0.9927413 -0.006670057 -0.02302259 0.9997127 -0.003314614 0.00112456 0.9999939 0.001416146 -0.01606428 0.9998701 0.6881574 -0.4350149 0.5806906 0.05879193 0.0676946 0.9959724 -0.02696543 -0.0133025 0.999548 0.002710223 -0.002024531 0.9999943 0.0257284 -0.04864329 0.9984849 -0.02856576 -0.06658464 0.9973718 -0.006652653 0.06454849 0.9978924 0.006901323 -0.00565505 0.9999602 -0.003442108 0.03051424 0.9995285 -0.01361614 -0.02340894 0.9996333 -3.96877e-4 0.007756412 0.9999698 -0.007985472 -0.02618747 0.9996252 -0.05637836 -0.002827227 0.9984055 0.006459057 0.03659468 0.9993093 -0.02455842 -0.04346776 0.998753 -0.03778028 -0.03602015 0.9986367 0.00576961 -0.1339567 0.9909704 0.02290284 0.01584142 0.9996122 0.02207052 0.01820993 0.9995906 -0.01309627 -0.01101326 0.9998537 0.02626353 0.1212505 0.9922745 -0.2432538 -0.1482912 0.9585601 -0.007194519 0.03898 0.9992141 0.001362264 -0.005262494 0.9999853 -0.00734049 0.04377597 0.9990144 -0.0113821 0.01485747 0.9998248 0.01048761 -0.03595548 0.9992984 -0.05359429 -0.04567652 0.9975176 0.01716822 -0.0425409 0.9989473 0.005850791 -0.01183885 0.9999128 0.009151518 -0.03313463 0.9994091 -0.03114414 0.09812891 0.9946863 0.03416955 -0.02216053 0.9991704 -0.02174931 -0.007979094 0.9997317 0.1026051 0.02261149 0.9944652 0.005475461 -0.03749811 0.9992817 0.01642149 0.01411068 0.9997656 0.008632063 -0.004905641 0.9999508 0.01281094 -0.02760106 0.999537 -0.02955031 0.03092002 0.999085 0.002372503 0.001862525 0.9999955 -0.02674901 0.01501804 0.9995294 -3.34829e-4 0.03272795 0.9994643 -0.003506243 -0.01992827 0.9997953 0.04401236 0.05575704 0.9974739 -0.003091573 -0.03910392 0.9992304 0.02139288 -0.01349657 0.9996801 -0.01455307 0.02365928 0.9996142 0.001922726 0.03921216 0.9992291 -0.04053771 -0.02719473 0.9988079 0.05189913 -0.06780368 0.9963479 -0.01701635 0.004876077 0.9998434 -0.06539452 0.03623104 0.9972016 -0.02527135 -0.01709955 0.9995344 0.06275904 -0.01976269 0.9978331 -0.03273677 -0.0100246 0.9994138 -0.0164383 7.86571e-4 0.9998646 -0.01004827 0.01898252 0.9997693 0.001481771 0.008332431 0.9999642 -0.1044718 0.6050038 0.7893391 -0.006567716 0.02295935 0.9997149 0.006341338 0.02238434 0.9997293 -0.004914641 -0.01602935 0.9998595 0.02061319 -0.01604491 0.9996588 -5.81523e-4 -0.05044186 0.9987269 -0.01377904 -0.02131301 0.999678 7.13976e-4 -0.01733821 0.9998495 -0.007498145 -0.03130537 0.9994818 0.01674413 -0.04749059 0.9987314 0.0188055 -0.01893788 0.9996439 -0.04558193 0.04300642 0.9980344 0.02831864 0.005802512 0.9995821 -0.01224994 -0.03241676 0.9993994 -0.01505017 -0.01077896 0.9998288 0.1032333 -0.2718436 0.9567884 -0.06517535 0.2475652 0.9666767 0.05428421 0.05248647 0.9971451 -0.004731237 -0.01522547 0.9998729 0.009317755 -0.003318965 0.9999512 -0.1045101 -0.02521711 0.9942042 0.08564424 0.004978358 0.9963134 -0.01855027 0.007278919 0.9998015 -0.08601284 -0.02513098 0.9959771 0.02535325 -0.01223671 0.9996038 0.009596228 -0.02237868 0.9997036 0.009043335 0.01307344 0.9998737 0.01183968 -0.02723479 0.9995591 -0.00211358 0.04661458 0.9989107 0.01184105 -0.02723407 0.999559 0.008830547 0.01339244 0.9998714 -0.05806738 0.02467501 0.9980077 -0.01193547 -0.0184955 0.9997577 0.4500906 0.1088477 0.8863242 0.003576993 -0.01248794 0.9999157 0.01987397 -0.005650639 0.9997866 -0.008896648 7.34613e-4 0.9999603 -0.02189558 -0.01738381 0.9996092 0.001134634 0.03056395 0.9995322 0.03664594 0.04774641 0.9981871 -0.01716852 -0.09351605 0.9954698 -0.02472567 0.02095544 0.9994746 -0.001590311 -0.7564718 -0.6540244 -0.002082884 -0.06118232 0.9981245 0.128921 0.04781115 0.9905017 -0.01792788 0.05922436 0.9980837 -0.002778768 0.09263557 0.9956963 0.04665058 -0.01930058 0.9987248 -0.1707946 -0.03166753 0.9847977 0.1048967 0.005816102 0.9944661 0.0260111 0.04016494 0.9988545 0.009858429 -0.06781548 0.9976493 -0.007836043 -0.04085814 0.9991343 -0.08529883 0.01790267 0.9961946 0.01133018 0.02932345 0.9995058 0.01021999 0.0282008 0.9995501 -0.0412904 0.1017884 0.9939489 -0.1320174 -0.07455086 0.98844 0.05346488 -0.09780955 0.993768 0.02580541 -0.06868654 0.9973046 0.0407027 -0.04889446 0.9979743 0.05818039 0.007186055 0.9982803 -0.008236169 0.07723236 0.9969792 0.0116164 0.02872455 0.99952 0.01966685 0.01798498 0.9996448 -0.0184319 -0.02250111 0.9995769 -0.1026306 -0.0231744 0.9944496 -0.02340495 -0.03524094 0.9991047 0.04434192 0.01887106 0.9988382 0.03759104 0.01886814 0.9991151 0.05939668 0.04188358 0.9973555 0.07029354 -0.2244842 0.9719392 0.001104295 -0.04183536 0.999124 0.0505886 -0.1283233 0.9904413 -0.02218097 0.02373224 0.9994723 -0.03682208 -0.004901051 0.9993099 -0.02426618 -0.01774847 0.999548 -0.02323901 0.1113736 0.9935069 -0.02307158 0.07322961 0.9970483 -0.02763777 0.1233142 0.9919828 -0.1021278 -0.01084482 0.9947122 0.026003 -0.07569766 0.9967918 -0.02553576 -0.02305859 0.999408 -0.002333343 -0.04237389 0.9990991 0.04426944 -0.2358438 0.9707822 0.1981741 0.04120016 0.9793006 -0.0453487 0.02618002 0.9986281 0.03825533 -0.016411 0.9991332 0.01252716 0.0250166 0.9996085 0.02947062 0.09035044 0.9954739 -0.05663233 0.03674679 0.9977186 0.0378617 -0.07588273 0.9963977 -0.4756938 -0.03652787 0.8788522 -0.06454896 -0.0134927 0.9978234 -0.1653807 0.003342866 0.9862241 0.04886591 -0.05493736 0.9972934 -0.0112133 0.06242614 0.9979867 9.86546e-4 8.77219e-4 0.9999992 0.03544694 -0.1765677 0.98365 0.01930171 0.1597499 0.9869688 -0.01538854 -0.03549063 0.9992516 -0.08097219 0.1496698 0.9854149 -0.09682279 0.1960352 0.9758051 -7.84707e-4 0.05405312 0.9985378 -0.05167615 -0.034123 0.9980809 -0.09002727 -0.00864017 0.9959018 -0.1089509 -0.02290385 0.9937833 -0.007667362 0.004480421 0.9999607 -0.004478871 0.006630659 0.999968 -0.00964874 0.05306875 0.9985443 0.02513182 0.02640056 0.9993356 0.03515511 0.02768725 0.9989983 0.05127108 0.01750481 0.9985314 0.03712272 0.01059693 0.9992546 0.01748633 -0.01396584 0.9997496 0.04000616 -0.01259344 0.9991201 0.008829236 -0.03143453 0.9994669 -0.1114325 -0.03909188 0.9930028 0.001187384 -0.007278561 0.9999728 -0.02429598 0.01051473 0.9996496 0.04188907 0.0260095 0.9987837 0.04277312 -0.01317995 0.9989979 0.0278117 4.63249e-4 0.9996131 0.0891292 0.1005517 0.9909316 -0.02768397 -0.00350058 0.9996106 -0.004031419 0.002541542 0.9999887 -0.00745052 0.00106436 0.9999717 -0.008095622 0.003250241 0.999962 -0.008778929 -8.35947e-4 0.9999611 -0.01439553 0.02550637 0.999571 -0.01974308 0.004347085 0.9997957 -0.01526689 1.02649e-5 0.9998835 0.009423673 -0.06086689 0.9981015 -0.03410857 0.01030743 0.999365 -0.001652657 -0.001181542 0.999998 -0.02297651 0.01329421 0.9996476 0.01402902 0.009668409 0.9998549 0.006891727 -2.5053e-4 0.9999763 0.007058024 -0.005212187 0.9999615 0.00443542 -0.005813896 0.9999733 -0.02003735 0.001932501 0.9997974 -0.007120728 -0.02754861 0.9995951 0.03941875 -0.01280796 0.9991408 0.1142695 0.0467689 0.9923483 -0.05675524 0.1343982 0.9893007 -0.05801093 0.03305089 0.9977688 0.04419314 -0.04277038 0.9981071 -0.04018145 -0.06440752 0.9971144 0.2175531 0.1813399 0.9590551 0.02017861 -0.05342346 0.9983681 0.009498298 -0.04045683 0.9991362 -0.009804129 -0.01223486 0.9998771 -0.02026832 -0.005196332 0.9997811 -0.003742575 -0.07793742 0.9969513 0.03320342 -0.006941139 0.9994245 -0.02944552 0.002669155 0.9995629 -0.01951444 0.05200606 0.9984562 -0.0335918 0.06104707 0.9975696 -0.01490914 -6.71419e-4 0.9998887 0.04224419 0.02419811 0.9988143 -0.04762887 -0.5394989 0.8406382 0.01653057 -0.009316861 0.99982 -0.01192367 -0.01419115 0.9998282 0.006248295 -0.002941906 0.9999762 0.7873374 0.6113064 -0.08002758 0.5130264 0.8510887 -0.111589 0.3215799 0.9400036 0.1139281 0.6878042 0.7159749 0.1196053 -0.6067878 0.7936906 0.04317408 -0.6930733 0.7139432 -0.09967255 -0.9244481 0.3750259 -0.06892883 -0.9442033 0.3288269 0.0187962 -0.8032892 0.5928399 0.05716001 -0.7727757 -0.630984 -0.06838881 -0.3908191 -0.9140723 -0.1083161 -0.3374105 -0.9410005 0.0259298 -0.7071703 -0.7000034 0.09952622 0.671094 -0.7402655 -0.04049664 0.8678086 -0.4966467 -0.01582437 0.9714205 -0.2363905 -0.02148699 0.973956 -0.2266014 -0.007850289 0.8761048 -0.4820826 0.006063401 0.69664 -0.7171486 0.0197677 0.2203227 -0.9744998 0.04252177 0.2125189 -0.977063 0.01355278 0.9750621 0.2215965 -0.01220417 0.9773178 0.2094805 0.03110837 -0.9817128 -0.1885856 -0.02599215 -0.9764355 -0.2100003 0.04973608 -0.2220628 0.9742275 -0.0396108 -0.1949391 0.9796611 0.0475707 0.1624612 0.9850331 -0.0575875 0.9950943 0.0947532 0.02844756 0.9505055 0.2979571 0.08809572 -0.06901264 0.9874813 0.1418383 -0.4663983 0.1931172 0.8632372 0.1094757 0.5244545 0.8443711 0.9440978 0.3197399 -0.08028626 0.8772019 -0.4800531 -0.00812596 0.2843562 -0.9584038 0.0245704 -0.286055 -0.9581986 -0.005292832 -0.8779743 -0.4770339 0.03999596 -0.8393682 0.5368858 -0.08493942 0.2035842 0.9667064 -0.1550236 0.5738219 0.8188896 -0.01218104 -0.2472178 0.968473 0.03071582 -0.8395501 0.5365709 -0.08513122 -0.997965 -0.05020517 0.03931105 -0.7590246 -0.6474059 -0.06890088 -0.2716014 -0.9623385 -0.01172447 0.3882598 -0.921406 -0.01628923 0.8605488 -0.5093266 0.006483972 0.9880776 0.1536515 -0.009693741 0.9948056 0.09220248 0.04313486 0.2558795 -0.3930196 0.8832108 0.6910626 -0.7152714 -0.1040158 -0.3627892 -0.9307242 -0.04622429 -0.9075939 -0.4182334 -0.03679966 -0.9556407 0.2926051 -0.0336638 -0.6265036 0.776517 0.06719237 -0.01991248 0.99932 0.03103673 0.6481416 0.7595356 0.05494022 0.9933176 0.09622329 0.06372845 0.9135185 0.3937075 -0.1023635 0.5280758 0.848934 -0.02114999 -0.1878619 0.9806337 -0.05536645 -0.785008 0.6173486 -0.0514146 -0.9896039 -0.1332932 0.05401217 -0.5645635 -0.8250409 0.02399325 0.04637265 -0.9981129 0.04025453 0.6471682 -0.7589414 -0.07198154 0.9615631 -0.2744698 0.007933855 0.9312296 -0.3616895 -0.04463368 0.4207056 -0.9069812 -0.01979869 -0.2968838 -0.9548904 0.006664276 -0.7744827 -0.6312947 -0.04054313 -0.9958081 -0.02605384 0.08767825 -0.8321083 0.5546103 0.001842498 -0.3715824 0.9280622 -0.02504312 0.3141422 0.9486868 -0.03616636 0.8732258 0.4749586 0.109046 0.7026126 0.7069655 -0.0808413 -0.1023043 0.993068 0.0578773 -0.8196924 0.5726926 0.01129388 -0.9559441 -0.2874503 -0.05952483 -0.3947989 -0.9176629 0.04504013 0.3612119 -0.9324753 0.003975033 0.8588065 -0.5122369 0.008055031 0.9979138 0.05043053 0.04031014 0.9318323 -0.3592399 -0.05133479 0.3048192 -0.9506962 -0.05711489 -0.5114889 -0.8588199 -0.02841699 -0.930766 -0.3634296 -0.03992205 -0.9565095 0.282668 0.07203102 -0.629426 0.7766939 0.02386784 0.07251006 0.9971036 0.02295202 0.8697083 0.4891971 -0.065526 0.9889978 0.1391194 0.05029189 0.5711579 0.8192243 0.0514816 -0.0694347 0.9957706 -0.06016391 -0.7294093 0.6829869 -0.03861397 -0.9974203 0.04604119 -0.05507284 -0.7030706 -0.7096027 0.04643177 0.02299278 -0.9988074 0.04306972 0.7739542 -0.6316702 0.04458546 -0.766049 -0.6405864 0.0530855 0.06474477 -0.9801583 -0.1873447 0.4370268 -0.8980541 -0.05006402 0.9953077 -0.08737498 0.04157418 0.4723595 0.8814045 -0.001599311 -0.564346 0.8255215 0.005301535 -0.9896736 0.1418387 0.02068752 -0.9903252 -0.1270883 -0.05571943 -0.6229905 0.7816728 -0.02950704 0.46406 0.8857815 -0.006294786 0.9972602 0.06726545 -0.03078204 0.5709869 -0.8206949 0.0208348 -0.4054016 -0.9116781 0.06702655 0.2597427 -0.7641932 0.5903748 -0.8998814 -0.4348999 -0.03279685 -0.09890705 -0.9944118 0.03691452 0.8397784 -0.5429264 -0.001791238 0.9425411 0.3330628 0.02618229 0.3473127 0.9360516 0.05640345 -0.6169766 0.7841473 0.06673014 -0.9803908 -0.06469488 -0.1861408 -0.9260592 0.373565 0.05351322 -0.07106703 0.9952222 -0.06695109 0.8072322 0.5867283 -0.06423646 0.884257 -0.4653226 -0.03955209 0.07179248 -0.996434 -0.04433184 -0.8537347 -0.520614 0.009903907 -0.7631375 -0.2590313 0.5920509 -0.8913071 -0.4515959 0.04040819 -0.2352305 -0.9715414 0.02782458 0.6132019 -0.7868777 0.06933248 0.9809471 0.06557327 -0.1828743 0.8979588 0.4371274 -0.05089038 0.09357959 0.994826 0.03954988 -0.8638557 0.5035697 -0.01306897 -0.9990842 0.01440542 -0.04029172 -0.754061 0.6520307 0.07904404 -0.04142618 0.9988954 -0.02217829 0.7898493 0.6117869 0.04306989 0.9396834 -0.3400532 0.0368635 0.07174009 -0.9953846 -0.06374025 -0.7216357 -0.6914342 -0.03407007 0.7630093 0.2588369 0.5923011 -0.5445761 -0.8381221 -0.031439 0.3211755 -0.943385 -0.08289206 0.938116 -0.342858 0.04885721 0.7341932 0.6784929 0.02465361 -0.3633384 0.9311299 -0.03134584 -0.9951768 0.09631496 0.01862061 -0.9934991 0.1108646 0.02585864 -0.3862182 0.9222559 -0.01671868 0.6899603 0.7238053 -0.00779581 0.9881139 -0.1531127 -0.01369184 0.6688533 -0.7422997 -0.04033011 0.01726168 -0.9970085 0.07534182 -0.6764471 -0.7343999 0.05546385 -0.9380646 -0.2842535 0.1980773 0.04376721 -0.9766469 0.2103458 0.9746526 -0.09611314 0.2020265 0.3657854 0.9202989 0.1387478 -0.6587605 0.7382135 0.1451734 -0.9488674 0.3029902 -0.08858639 -0.1921648 0.9798026 -0.05531346 0.7516507 0.6508559 -0.106807 0.5147436 -0.6217896 0.5902684 0.4911126 -0.8710434 -0.009582459 -0.5017365 -0.8556219 -0.1271677 -2.98988e-5 3.52351e-6 1 8.51864e-4 -0.01277148 0.9999181 -0.003333568 -0.001470923 0.9999935 3.72558e-4 -0.01126646 0.9999365 0.01097398 0.00592941 0.9999223 3.21907e-4 0.001452267 0.9999989 -0.003071486 -0.001525104 0.9999941 7.97352e-4 -9.37798e-5 0.9999997 -0.01009571 0.001140713 0.9999485 -0.9949001 -0.06890189 0.0736649 -0.2671012 -0.9504133 -0.1592847 0.6583728 -0.7506252 0.0557419 0.9625239 0.2544946 0.09370321 -0.1844187 0.9677478 0.171622 -0.897717 0.3208541 -0.301922 0.2890254 0.9251252 -0.2461864 0.9318597 -0.2193648 -0.2889925 -0.2693444 -0.9501807 -0.1568771 -0.1465443 -0.9787638 0.1433398 0.9218351 -0.3479468 0.1707431 0.6317625 0.7628304 0.1377176 -0.3439931 0.9270371 0.149235 -0.9760468 -0.001820862 0.2175533 -0.8004341 0.5878627 -0.1171449 0.2995399 0.9512903 -0.0729565 0.9735118 0.220624 -0.05999976 0.6898038 -0.7198182 -0.07766932 -0.1593736 -0.9751374 0.1539713 -0.8209952 -0.5671123 -0.0659601 0.0197972 0.005750477 0.9997876 0.004357576 -8.20155e-4 0.9999902 -6.45915e-4 0.003553688 0.9999935 -0.003163039 -0.003333687 0.9999895 -0.01568317 0.004184246 0.9998683 -0.007089912 -0.00561887 0.9999591 -0.001510858 0.004350304 0.9999894 0.009173333 0.02481144 0.9996501 -0.8987507 -0.4358011 0.04821515 0.05509376 -0.9896212 -0.1327202 0.9434692 -0.3236066 0.07172691 0.5462775 0.7943871 -0.2655749 -0.7302709 0.6716216 0.125016 -0.9220713 0.1208512 -0.3676676 0.5365986 0.7967184 -0.2780323 0.3118843 -0.8340337 -0.4550999 -0.8446686 -0.5281049 0.08740979 0.2715798 -0.9624137 -0.002114892 0.9949432 -0.07930141 0.06164103 0.5509914 0.8345094 -0.001682341 -0.5804207 0.7871005 0.2087697 -0.9198797 0.3806394 -0.09452521 -0.08293902 0.9942967 -0.06704723 0.6787941 0.7222217 0.1327948 0.9956772 -0.07347238 0.05682295 0.2454287 -0.9691241 0.02373266 -0.7777546 -0.6011514 0.1836163 -0.008667528 -7.87371e-4 0.9999622 0.007653057 -0.01151734 0.9999044 0.00507909 0.007474899 0.9999592 0.001967072 0.004241764 0.9999891 -6.64255e-4 0.002523303 0.9999966 4.92536e-5 0.001607596 0.9999988 0.008178591 6.32058e-4 0.9999664 9.14651e-4 0.002966463 0.9999952 -9.8705e-4 -0.002358257 0.9999967 0.06906414 -0.9948851 0.07371532 0.9490912 -0.2721739 -0.1585795 0.7609193 0.6471741 0.04655665 -0.2616134 0.9611425 0.08811122 -0.9679024 -0.1831762 0.1720799 -0.9255607 0.2891706 -0.2443724 0.2193638 0.9318499 -0.2890247 0.9494214 -0.2691158 -0.1617895 -0.3208496 -0.8977046 -0.3019639 -0.3784637 -0.9152923 0.1378598 0.6581836 -0.7387707 0.1449562 0.9526057 0.288212 0.0973463 -0.04125624 0.998328 0.04048633 -0.9878476 0.1047705 0.1148052 -0.9902256 0.09248393 0.1044039 -0.5918986 0.8056215 -0.02510529 0.1927198 0.9462753 0.259658 0.8820035 0.4690327 -0.04558753 0.8977641 -0.4398162 -0.02411115 0.1870886 -0.9808058 -0.05493491 -0.6293044 -0.7769278 -0.01895725 -6.82682e-4 0.01218515 0.9999256 0.001330316 -1.56464e-4 0.9999991 -4.1402e-4 -0.001419305 0.999999 4.93757e-4 0.01706004 0.9998544 -8.80078e-4 1.03487e-4 0.9999997 0.00307703 0.001544475 0.9999941 -0.01181769 -0.005732953 0.9999138 0.01264041 -1.11082e-4 0.9999202 0.003253877 0.001507937 0.9999936 -0.9966535 -0.03981107 0.07139348 -0.2894435 -0.9453526 -0.1501031 0.8029542 -0.5957671 -0.01806032 0.8644363 0.4971499 0.0747804 -0.1192849 0.9006199 -0.4179174 -0.9458236 0.222171 -0.2367653 0.2690158 0.945879 0.1815035 0.9035913 -0.3229892 -0.2814262 -0.2949677 -0.9426734 -0.1560805 -0.3304049 -0.9384065 0.1011235 0.7785853 -0.6213104 0.08819472 0.9251043 0.3616318 0.1157784 -0.001457273 0.988009 0.1543899 -0.9821906 0.1334329 0.1322774 -0.9951736 -0.08331471 -0.05184799 -0.4116564 0.9050724 -0.106691 0.5077832 0.8606196 -0.03860336 0.9579291 0.09546101 0.2706638 0.8835335 -0.4664483 -0.04236531 -0.1631716 -0.9855769 -0.04486918 -3.43011e-4 0.00207585 0.9999978 0.006687223 -0.02242404 0.9997262 2.06642e-4 7.40596e-4 0.9999997 0.001722633 -9.83989e-4 0.9999981 1.97866e-4 9.03237e-4 0.9999997 -0.003792405 -1.12145e-4 0.9999928 -0.00286895 7.72662e-4 0.9999957 0.02794426 -0.01051145 0.9995542 0.002462208 -1.4448e-4 0.999997 -0.6539989 -0.727496 0.2074489 0.7430301 -0.6671558 0.05300498 0.9124417 0.402903 0.0715506 0.1161794 0.9542414 -0.2755464 -0.8688933 0.4908533 0.06393295 -0.9606868 -0.003100335 -0.2776174 0.122492 0.95548 -0.2684283 0.8997496 -0.3424665 -0.2704949 -0.2089248 -0.9533835 -0.2177394 -0.9314013 -0.3631519 0.02474659 -0.00813508 -0.9887117 0.1496097 0.978744 -0.1354328 0.1540077 0.3341714 0.9375694 0.09640163 -0.7779885 0.6208285 0.09646815 -0.6659736 0.7451753 -0.03453862 0.2690086 0.9625082 0.03482091 0.9972871 0.07186728 -0.01592999 0.3892857 -0.9145871 -0.1094854 -0.2820736 -0.9578951 0.05358892 -0.9507465 -0.2985695 0.08329057 -0.004253089 -0.01299655 0.9999066 0.005432724 0.003215014 0.9999801 -0.00541526 0.01852017 0.9998139 0.003031373 4.8052e-4 0.9999954 5.28583e-4 0.004101276 0.9999915 -0.004177093 6.05465e-4 0.9999912 0.005035042 -0.00450623 0.9999772 -0.0228849 0.009097754 0.9996967 -0.3223993 -0.9384336 -0.1241015 0.6494484 -0.7556091 0.0852741 0.9696118 0.1444009 -0.1974877 0.05484312 0.9843732 0.1673371 -0.9871867 0.1238479 0.1006188 -0.7515493 0.5155403 -0.4115728 0.8410012 0.3252761 -0.432334 -0.1146112 -0.9392513 -0.3235294 -0.9419752 -0.3218098 0.09550493 0.1790975 -0.9777738 0.1090076 0.9767337 -0.0696913 0.2028162 0.5449497 0.833956 -0.08687579 -0.5547807 0.8303811 0.0518226 -0.6419751 0.7656116 -0.04131585 0.5885956 0.8076987 -0.03432285 0.8870447 -0.4592016 -0.04781043 0.06656706 -0.9758661 0.2079762 -0.8602223 -0.5036653 -0.07961702 0.002431035 -0.003316223 0.9999916 0.001074969 -0.002371251 0.9999966 -0.003099203 -0.006503283 0.9999741 8.08101e-4 -1.77061e-4 0.9999998 0.001868307 8.52733e-4 0.999998 -0.001667916 0.009080886 0.9999574 -0.003766834 8.28367e-4 0.9999926 0.002118349 8.42357e-4 0.9999975 -0.00321871 0.001048326 0.9999943 -0.08851855 -0.9959894 -0.01303184 0.7956851 -0.6010951 0.07463318 0.7090179 0.6834638 0.173698 -0.5041826 0.8602854 0.0755583 -0.9835842 -0.1513553 0.09825426 -0.9622128 0.210859 -0.172294 -0.003202199 0.9578633 -0.287207 0.9141979 -0.1098471 -0.3900976 -0.3416877 -0.8961805 -0.2830374 -0.7287173 -0.6793761 0.08613556 0.6731271 -0.7390879 0.02547883 0.9519973 0.303826 -0.03729403 0.2079148 0.9780692 0.01233285 -0.7213027 0.6894145 0.06655865 -0.998849 -0.02351778 -0.04180335 -0.1167103 0.9904655 -0.07319098 0.9768691 0.2137197 -0.007132112 0.6463895 -0.762083 0.0375539 -0.459086 -0.8882812 -0.01402562 -0.463086 -0.8853254 0.04183626 0.6513066 -0.7557436 0.06820112 0.9251944 0.3756387 0.05395269 0.1611539 0.9853396 0.05599534 -0.7945431 0.6060158 0.03802925 -0.9794745 -0.1986768 0.03401803 -0.9931267 -0.09317237 0.07084071 -0.5616325 0.8237248 -0.0777589 0.5362839 0.8433708 -0.03354781 0.995952 0.08586019 -0.02660208 0.739599 -0.6725362 0.0262382 -0.02016192 -0.9986743 -0.04736256 -0.7444241 -0.6674399 -0.01888513 -0.6829719 -0.7298709 0.02894663 0.1168267 -0.9839687 -0.1347486 0.9177183 -0.3918864 0.06494849 0.6559899 0.7535085 0.04361665 -0.5599814 0.8256942 0.06818997 -0.9998696 -0.01552516 -0.004466056 -0.984745 -0.1675795 -0.04684543 -0.7827827 0.6221157 -0.01494699 0.01181793 0.9984912 -0.05362623 0.7954288 0.6054428 -0.02705937 0.7651972 -0.6413139 -0.05647832 -0.2746595 -0.9594337 0.06363224 -0.8110023 -0.5849673 -0.009406626 0.2678028 -0.9631406 0.02533692 0.9392959 -0.3427394 0.01590579 0.8825188 0.4681041 0.04515838 0.01154595 0.9975265 0.06933689 -0.8875325 0.4599869 0.02642107 -0.6828039 0.7244178 -0.09485632 0.5480038 0.8337054 -0.06802457 0.9888286 -0.1449256 -0.03485172 0.3845725 -0.9228176 -0.02261918 -0.7911927 -0.611052 -0.02509683 0.9969776 -0.07762563 0.003167092 0.1475021 -0.9885938 -0.03042256 -0.9947903 0.002374172 -0.1019157 0.2696829 0.9575412 -0.101912 -0.6145404 0.7850087 0.07811087 -0.9019491 -0.4318032 0.005831718 0.05065411 -0.9987162 4.95433e-4 0.9536446 0.2819041 0.10532 0.07408547 -0.9939324 -0.08130139 -0.9350154 0.3437148 -0.0872153 0.7350541 0.6615301 -0.148571 -0.2822801 0.9558781 0.08133178 -0.9367445 -0.3394597 0.08530628 0.3838558 -0.9229008 0.0301491 0.9619358 0.2732334 -0.004819869 0.9861522 0.1411781 -0.08702129 0.07439184 -0.9960367 -0.04875159 -0.9638968 -0.2608346 -0.05355775 -0.3282601 0.9407962 -0.08454585 0.6469161 0.7566202 0.09500247 -0.8913362 0.4441417 0.09087395 -0.4010861 -0.914947 0.04474312 0.7204844 -0.690744 0.06144076 0.9840256 -0.1727681 -0.04295319 0.07404422 -0.9956192 0.05709546 -0.8624118 -0.5036811 -0.05051082 -0.7768113 0.6288331 -0.03366506 0.2944926 0.9543524 -0.04985582 0.9073197 0.4066066 0.1069678 -0.4043731 0.9137712 0.0387904 -0.9953467 -0.08096283 0.05225074 0.1982559 -0.9800139 0.01635193 0.6585535 -0.7479789 -0.08267408 -0.9675157 -0.219698 -0.1250857 0.4569224 0.8869898 -0.06686687 0.3563465 0.9340785 -0.02268558 -0.9680404 0.2488397 0.03125011 -0.2570438 -0.9624485 0.08730065 0.9399737 -0.3391459 0.03780728 0.9634094 -0.2444407 -0.1099604 -0.7271605 -0.6702262 -0.14844 -0.1430313 0.987291 -0.06927126 0.7661726 0.6416772 0.03507113 -0.3375931 0.9412873 -0.003013849 -0.9979733 -0.04147833 0.04826045 -0.09990799 -0.9946942 0.02453166 0.8788337 -0.4757503 -0.03623437 0.9979972 -0.006898641 -0.0628826 0.008174061 -0.9984459 -0.05512654 -0.9999684 -0.001202285 -0.007865905 -0.1328816 0.9906471 -0.03099834 0.6712821 0.7345945 0.09874886 -0.3993315 0.9164005 0.02728533 -0.9975267 -0.06368982 -0.02973717 -0.1735466 -0.9848215 -0.00288403 0.8779754 -0.4771797 0.03819489 0.6594083 -0.7517782 -0.003202557 -0.8516983 -0.5212284 -0.0541383 -0.656083 0.7543512 0.02256911 0.5769514 0.8161913 -0.03096562 0.6673642 0.7446884 0.008015632 -0.5833563 0.8110677 0.04318404 -0.9724466 -0.2319273 0.02360922 -0.2801959 -0.9581431 0.05875521 0.8123566 -0.5755352 -0.09399986 0.9707101 -0.2401994 0.005131602 -0.2733343 -0.9619159 0.002520382 -0.8151964 0.5740112 -0.07724136 0.5355229 0.8445204 -7.7333e-4 0.5486155 0.836066 0.003833353 -0.6708733 0.7413643 -0.0175507 -0.9557874 -0.2849602 0.07258254 -0.06645578 -0.9945278 -0.08061069 0.9480469 -0.3167204 0.02992355 0.8555954 -0.5051353 -0.1131156 -0.8942053 -0.4380708 -0.09214657 -0.02356415 0.9950334 -0.09671324 0.2350879 0.9718837 -0.01325976 -0.9443722 0.3237114 0.05806934 -0.3900508 -0.9160565 0.09327954 0.9849775 -0.1718655 0.01678478 0.7906104 0.6119126 -0.0223211 0.6691436 -0.7394419 -0.07397586 -0.8645825 -0.4975476 -0.0703113 -0.4058275 0.913622 -0.0244736 -0.2671331 0.9634915 0.01800221 -0.9856437 -0.1632914 0.04292398 0.2228824 -0.972941 0.06090438 0.9601033 0.2695683 0.07439488 -0.02607107 -0.00722599 -0.999634 0.002069175 0.001313924 -0.999997 -0.01193034 -0.01225638 -0.9998537 -0.03051781 -0.02370202 -0.9992532 0.02569967 -0.009616315 -0.9996235 0.005868256 -0.0172488 -0.9998341 0.02723377 0.01472532 -0.9995207 -0.01480776 -0.004592597 -0.9998798 0.001517653 0.009963035 -0.9999492 0.003972947 -9.54585e-4 -0.9999917 0.001709818 0.001762688 -0.9999971 0.004452466 -0.02050256 -0.9997799 0.00143367 -0.05892384 -0.9982615 -0.1913325 -0.1515623 -0.969753 9.21056e-4 0.002517819 -0.9999964 0.02491712 0.06240725 -0.9977397 0.04132521 -0.01306879 -0.9990603 0.008113205 -0.053667 -0.998526 -0.01415085 0.04742848 -0.9987744 -0.01243317 0.005230724 -0.9999091 0.05732148 -0.09312874 -0.9940028 -0.04375475 0.1086798 -0.9931135 0.03022152 -0.05359095 -0.9981057 -0.0440002 0.06695932 -0.9967851 0.02289807 0.04475528 -0.9987356 0.04284596 -0.01981234 -0.9988853 0.002069711 0.01138013 -0.9999331 -0.02353912 -0.01998716 -0.9995231 0.03281015 -0.03687387 -0.9987812 -0.005661308 0.02084237 -0.9997668 -0.008436083 -4.5373e-4 -0.9999644 0.09251332 0.02780151 -0.9953233 -0.1219958 -0.1559659 -0.9801999 0.02692443 -0.001928389 -0.9996357 -0.01635122 0.004106342 -0.999858 0.009603261 -0.01840412 -0.9997846 0.02670615 -0.04093247 -0.9988049 0.02766513 -0.01527512 -0.9995006 -0.06148022 0.04125827 -0.9972553 0.001611292 -0.004878759 -0.9999869 -0.01506978 -0.001739442 -0.999885 -0.007413506 -0.0183348 -0.9998045 -0.01143622 -0.02806878 -0.9995406 -0.00809884 -0.04893046 -0.9987694 -0.006982207 -0.01089042 -0.9999164 -0.1257014 0.1833558 -0.9749768 0.01620274 0.007112264 -0.9998435 -0.01858544 -0.04651528 -0.9987447 0.01525813 0.006744921 -0.9998609 -0.0493682 -0.0448113 -0.997775 0.02774232 0.002851366 -0.9996111 2.43835e-4 0.02948373 -0.9995653 0.02962428 0.01114076 -0.999499 -5.1143e-4 0.02075594 -0.9997845 -0.009114384 -0.001035988 -0.9999579 0.02818769 8.70616e-4 -0.9996023 0.01863461 0.0378834 -0.9991084 -0.001738429 -0.01468026 -0.9998908 -0.04046511 -0.0094226 -0.9991366 -0.001517772 2.86294e-4 -0.9999989 6.91366e-4 0.006517589 -0.9999786 0.004502654 0.00913155 -0.9999482 -0.3042542 0.5599567 -0.7706347 0.07081913 -0.02284014 -0.9972277 -0.002089858 -0.03226107 -0.9994773 -0.01620924 0.01008099 -0.9998178 0.001088678 -0.01356738 -0.9999074 -0.03565418 0.03265118 -0.9988307 0.005434155 0.001192927 -0.9999846 4.76019e-4 0.002349913 -0.9999972 -0.02068507 0.008152365 -0.9997528 -0.03817361 0.01867657 -0.9990966 0.03097289 -0.01906514 -0.9993385 -0.01775157 -0.01810663 -0.9996785 0.002747178 0.02374869 -0.9997142 0.01050627 -0.05117487 -0.9986345 0.07249462 -0.07575303 -0.9944878 -0.02346259 0.03940784 -0.9989477 0.004452049 -0.004789113 -0.9999787 -0.02506899 0.04551428 -0.9986491 -0.02163857 0.01494657 -0.9996542 -0.010374 0.07175272 -0.9973686 0.03526836 -0.01859611 -0.9992049 0.009194314 -0.04262858 -0.9990487 -0.01253795 -0.05554616 -0.9983775 -0.01035422 0.06893849 -0.9975672 -0.02793157 0.1119454 -0.9933218 0.06809151 -0.05409306 -0.9962117 0.01183974 -0.05670684 -0.9983207 0.006155014 0.06353449 -0.9979608 0.01578408 -0.08567225 -0.9961984 -0.06845057 -0.01218438 -0.9975801 -0.06824272 -0.09339684 -0.9932875 -0.02637308 0.02149826 -0.9994211 0.1347793 0.04304057 -0.9899405 0.02739423 -6.87306e-4 -0.9996245 -0.0901876 -0.01976001 -0.9957287 0.01783591 0.03889513 -0.9990841 -0.4693946 -0.04974108 -0.8815864 0.01848775 -0.07006615 -0.9973711 -0.005699396 0.04149037 -0.9991227 -0.02845501 0.02057242 -0.9993834 0.0838859 0.01542413 -0.996356 -0.005428552 0.005542337 -0.99997 2.37496e-4 0.004892706 -0.9999881 0.008093893 0.01261627 -0.9998877 -0.001207828 -0.2691298 0.9631032 -0.02411693 -0.01646393 -0.9995737 0.002859294 0.009162724 -0.9999539 -0.03182351 0.02139008 -0.9992647 0.2113013 0.04285413 -0.9764811 0.02953147 0.01138836 -0.999499 0.01423448 0.006010651 -0.9998807 0.05352997 0.007063508 -0.9985413 0.01510614 0.01712942 -0.9997392 -0.1041855 -0.0364834 -0.9938886 0.05702489 0.08387517 -0.9948434 -0.02655875 -0.002075254 -0.9996451 -8.72195e-4 0.0161255 -0.9998697 0.02017581 -0.03273814 -0.9992603 0.006471693 -0.02457314 -0.9996771 0.1659485 0.04880636 -0.9849259 -0.08855336 0.07148402 -0.9935032 -0.02446335 0.004284918 -0.9996916 -0.05653214 -0.06966936 -0.995967 -0.04818594 0.2039525 -0.9777942 0.02620398 -0.04605799 -0.9985951 -0.0406903 -0.02099984 -0.9989511 0.1172357 0.06317418 -0.9910928 0.024181 -0.07007825 -0.9972484 0.01252079 0.001566827 -0.9999204 -0.1197424 -0.003679096 -0.9927982 -0.02408665 0.03955495 -0.9989271 0.02673465 -0.002399504 -0.9996397 0.09764915 0.04449224 -0.994226 -0.02123814 -0.214949 -0.9763944 0.03590899 -0.02916216 -0.9989296 -0.02396643 -0.005774199 -0.9996961 0.01118022 0.004879057 -0.9999257 0.002363801 0.11089 -0.99383 0.05233854 -0.01824879 -0.9984626 0.008559703 9.94134e-4 -0.9999629 -0.03444582 0.0239976 -0.9991185 -0.02041906 -0.4021288 -0.9153555 5.85077e-4 0.02133548 -0.9997722 -0.03312808 0.1429535 -0.9891749 0.1065843 -0.06110328 -0.9924245 -0.1228164 -0.05329555 -0.9909973 0.01035523 0.03165405 -0.9994453 -0.0104826 0.002443253 -0.9999421 0.0710144 0.004349231 -0.9974658 -0.005824685 -0.09173244 -0.9957666 -0.002460598 0.0192123 -0.9998124 -0.0207979 -0.02883034 -0.999368 -0.02573215 0.01986336 -0.9994716 -0.04288047 -0.01988363 -0.9988824 0.02966827 -0.003545165 -0.9995536 0.0192548 -0.0660004 -0.9976338 -0.03129112 0.1228281 -0.9919345 0.09572213 0.05984407 -0.9936076 -0.02370494 0.1023 -0.9944712 0.03436863 -0.09509408 -0.9948749 0.0184769 -0.09598922 -0.9952109 0.01980608 0.009375691 -0.9997599 -0.06212049 0.06335526 -0.9960558 -0.01108562 0.03267168 -0.9994047 -0.04187482 -0.01884287 -0.9989452 -0.1030277 0.07024055 -0.9921953 0.1700378 0.04048675 -0.9846055 -0.02891117 -0.03730219 -0.9988858 0.1148244 0.02207565 -0.9931406 -0.1070497 -0.07543522 -0.9913879 0.02201652 -0.06958669 -0.997333 0.02483022 -0.1116141 -0.9934415 0.03365343 -0.1328254 -0.990568 0.02989459 0.05361628 -0.9981141 -0.03723102 0.002777159 -0.9993029 -0.009457468 0.1699067 -0.9854148 -0.0111826 0.116623 -0.9931133 0.007653951 0.05674612 -0.9983593 0.07646566 -0.02856224 -0.996663 0.07147151 -0.01468992 -0.9973345 -0.02852481 0.01846867 -0.9994225 -0.006725311 0.03600847 -0.9993289 -0.1086503 -0.0232883 -0.9938073 -0.138288 -0.03510087 -0.9897699 -0.0700913 -0.02241307 -0.9972888 0.03200918 -3.93606e-4 -0.9994875 -0.008020281 -0.04908555 -0.9987624 0.004368484 -0.01206833 -0.9999177 -0.006743788 -0.01044255 -0.9999228 0.02023303 0.02078938 -0.9995791 0.04753518 -0.05646282 -0.9972725 0.06641489 0.08260256 -0.9943672 0.004138231 -0.002017855 -0.9999894 -0.01493936 -0.01204305 -0.9998159 -0.001469969 0.07648336 -0.9970698 -0.004947721 0.005332708 -0.9999735 -0.04556971 -0.008007884 -0.9989291 0.1526065 0.11165 -0.9819601 0.01947242 0.01046288 -0.9997557 -0.08394104 0.02050483 -0.9962598 0.01762133 0.005447924 -0.9998299 0.02282351 -0.01408356 -0.9996404 0.1076488 -0.1831835 -0.9771672 -0.02576768 -0.01816308 -0.999503 -0.01439666 -0.008501291 -0.9998603 0.003718018 -0.01765763 -0.9998372 0.004660069 -0.01125586 -0.9999259 -0.03337949 0.01376169 -0.9993481 -0.008133172 -0.01154053 -0.9999004 0.01713836 -0.06883674 -0.9974808 0.01333993 -0.01557558 -0.9997897 0.03137034 0.006034314 -0.9994897 0.4765554 0.1210085 -0.8707766 0.01581221 0.01136887 -0.9998103 -0.02930581 0.02970862 -0.9991289 -0.0289002 0.004480004 -0.9995723 -0.4944504 0.7424058 -0.4520536 -0.03718405 -0.0478897 -0.9981603 -0.0562644 -0.01773291 -0.9982585 0.009334444 0.01674491 -0.9998162 -0.06262826 0.04003942 -0.9972335 0.04224872 -0.01331877 -0.9990184 -0.007612764 -0.006900489 -0.9999473 -0.007906913 -0.007005035 -0.9999443 0.03911536 -0.05439257 -0.9977533 -0.01307111 0.1300202 -0.9914252 0.009237647 0.007570147 -0.9999287 0.01703703 0.03497028 -0.9992431 -0.02806812 0.01606339 -0.999477 -0.008983433 0.002186059 -0.9999573 -0.006853699 0.03582239 -0.9993347 -0.01592779 -0.02628606 -0.9995276 -0.001854777 -0.009316742 -0.9999549 -0.0250675 -0.009769797 -0.999638 0.1960663 0.06773477 -0.9782485 0.04914838 -0.03867059 -0.9980427 -0.02070486 0.07262599 -0.9971444 0.1104283 0.02200931 -0.9936404 -0.0350703 -0.2169308 -0.9755569 -0.02136445 0.05197054 -0.9984201 -0.008833229 0.03621077 -0.9993051 -0.01209652 0.009333431 -0.9998833 0.04631495 -0.03089189 -0.9984492 0.04484611 -0.2926155 -0.955178 0.002584517 -9.13112e-4 -0.9999963 -1.16949e-4 0.008831858 -0.999961 -0.006056308 0.002333521 -0.999979 0.008461654 0.008004665 -0.9999322 0.004233539 0.00769937 -0.9999615 0.03906202 0.00317496 -0.9992318 -0.003686249 -0.007187783 -0.9999674 -9.92859e-4 -6.23936e-4 -0.9999994 -0.003163754 -0.01347386 -0.9999042 -0.002966463 -0.02093344 -0.9997766 0.9977443 0.03687417 -0.05609548 0.1403208 -0.9882772 -0.06015223 -0.9276658 -0.3648378 0.07955986 -0.8496111 0.5267308 -0.02675551 0.2910562 0.9564818 -0.02070814 0.6386737 0.7674437 0.05591356 -0.5020686 0.8623414 0.06553339 -0.8652885 -0.5005845 0.02629005 0.7223065 -0.6843985 0.09935867</float_array>
          <technique_common>
            <accessor source="#Interface_Plate-mesh-normals-array" count="1022" stride="3">
              <param name="X" type="float"/>
              <param name="Y" type="float"/>
              <param name="Z" type="float"/>
            </accessor>
          </technique_common>
        </source>
        <vertices id="Interface_Plate-mesh-vertices">
          <input semantic="POSITION" source="#Interface_Plate-mesh-positions"/>
        </vertices>
        <triangles count="1022">
          <input semantic="VERTEX" source="#Interface_Plate-mesh-vertices" offset="0"/>
          <input semantic="NORMAL" source="#Interface_Plate-mesh-normals" offset="1"/>
          <p>2 0 0 0 1 0 4 1 2 1 3 1 5 2 4 2 6 2 8 3 5 3 6 3 9 4 8 4 10 4 12 5 9 5 11 5 14 6 12 6 13 6 16 7 14 7 15 7 18 8 16 8 17 8 20 9 18 9 19 9 0 10 20 10 21 10 21 11 1 11 0 11 19 12 21 12 20 12 17 13 19 13 18 13 15 14 17 14 16 14 13 15 15 15 14 15 445 16 13 16 12 16 11 17 445 17 12 17 10 18 11 18 9 18 7 19 10 19 8 19 6 20 7 20 8 20 3 21 6 21 4 21 1 22 3 22 2 22 148 23 28 23 36 23 38 24 39 24 42 24 20 25 43 25 44 25 43 26 45 26 44 26 43 27 42 27 45 27 42 28 46 28 45 28 39 29 44 29 46 29 44 30 39 30 20 30 49 31 52 31 48 31 48 32 35 32 49 32 50 33 47 33 51 33 49 34 50 34 52 34 48 35 51 35 47 35 50 36 51 36 52 36 196 37 53 37 54 37 54 38 41 38 196 38 196 39 50 39 55 39 196 40 55 40 53 40 56 41 49 41 41 41 56 42 57 42 49 42 50 43 49 43 58 43 54 44 56 44 41 44 68 45 66 45 69 45 70 46 71 46 130 46 74 47 14 47 31 47 74 48 73 48 14 48 76 49 78 49 75 49 25 50 75 50 77 50 75 51 25 51 76 51 76 52 16 52 78 52 77 53 29 53 25 53 29 54 78 54 16 54 79 55 32 55 35 55 29 56 81 56 33 56 81 57 29 57 18 57 18 58 20 58 81 58 39 59 82 59 20 59 8 60 83 60 63 60 83 61 8 61 64 61 64 62 65 62 83 62 4 63 84 63 62 63 84 64 4 64 85 64 87 65 63 65 86 65 87 66 86 66 88 66 5 67 63 67 87 67 63 68 90 68 86 68 88 69 71 69 89 69 63 70 71 70 90 70 71 71 88 71 90 71 88 72 89 72 87 72 89 73 71 73 70 73 91 74 92 74 23 74 92 75 91 75 76 75 30 76 91 76 23 76 93 77 16 77 76 77 25 78 94 78 95 78 25 79 24 79 96 79 96 80 94 80 25 80 76 81 95 81 97 81 97 82 92 82 76 82 95 83 76 83 25 83 98 84 99 84 30 84 31 85 99 85 74 85 99 86 31 86 30 86 98 87 101 87 100 87 100 88 101 88 73 88 190 89 73 89 101 89 27 90 101 90 26 90 36 91 102 91 103 91 38 92 37 92 103 92 39 93 38 93 104 93 107 94 80 94 106 94 104 95 105 95 39 95 20 96 82 96 106 96 105 97 107 97 106 97 106 98 80 98 20 98 108 99 80 99 107 99 107 100 102 100 108 100 33 101 108 101 36 101 102 102 36 102 108 102 110 103 109 103 47 103 50 104 111 104 110 104 110 105 47 105 50 105 65 106 112 106 113 106 116 107 65 107 113 107 114 108 116 108 115 108 116 109 196 109 65 109 113 110 115 110 116 110 59 111 119 111 60 111 59 112 118 112 119 112 42 113 118 113 117 113 118 114 59 114 117 114 120 115 124 115 121 115 121 116 62 116 120 116 62 117 60 117 120 117 122 118 43 118 123 118 124 119 122 119 123 119 67 120 127 120 128 120 126 121 128 121 127 121 67 122 128 122 65 122 63 123 126 123 127 123 127 124 129 124 63 124 67 125 198 125 131 125 131 126 198 126 130 126 132 127 133 127 134 127 134 128 85 128 132 128 70 129 134 129 133 129 85 130 5 130 87 130 133 131 89 131 70 131 87 132 132 132 85 132 134 133 135 133 85 133 134 134 66 134 135 134 66 135 62 135 135 135 136 136 191 136 69 136 32 137 137 137 139 137 139 138 35 138 32 138 34 139 138 139 137 139 137 140 32 140 34 140 49 141 140 141 40 141 34 142 32 142 141 142 34 143 143 143 142 143 141 144 143 144 34 144 32 145 144 145 141 145 144 146 32 146 27 146 145 147 146 147 147 147 147 148 26 148 145 148 26 149 147 149 27 149 142 150 146 150 145 150 149 151 28 151 148 151 36 152 28 152 150 152 33 153 36 153 150 153 150 154 151 154 33 154 33 155 151 155 25 155 152 156 148 156 24 156 24 157 153 157 152 157 152 158 149 158 148 158 153 159 24 159 25 159 154 160 67 160 155 160 155 161 156 161 154 161 157 162 155 162 67 162 67 163 65 163 157 163 158 164 65 164 196 164 65 165 159 165 157 165 158 166 159 166 65 166 196 167 154 167 160 167 154 168 156 168 160 168 160 169 158 169 196 169 161 170 162 170 60 170 61 171 161 171 60 171 161 172 163 172 162 172 69 173 162 173 164 173 69 174 164 174 68 174 162 175 163 175 164 175 62 176 165 176 61 176 62 177 68 177 165 177 22 178 23 178 167 178 24 179 166 179 168 179 22 180 169 180 166 180 166 181 24 181 22 181 23 182 170 182 167 182 23 183 92 183 171 183 167 184 169 184 22 184 23 185 171 185 170 185 172 186 171 186 92 186 59 187 36 187 174 187 37 188 175 188 36 188 174 189 173 189 59 189 175 190 174 190 36 190 38 191 176 191 37 191 38 192 177 192 176 192 42 193 117 193 179 193 38 194 178 194 177 194 42 195 179 195 178 195 178 196 38 196 42 196 180 197 136 197 181 197 182 198 181 198 70 198 182 199 180 199 181 199 198 200 184 200 185 200 184 201 183 201 185 201 185 202 186 202 198 202 130 203 188 203 187 203 187 204 70 204 130 204 187 205 182 205 70 205 72 206 188 206 130 206 189 207 2 207 62 207 189 208 125 208 2 208 62 209 2 209 4 209 85 210 4 210 5 210 5 211 8 211 63 211 8 212 9 212 64 212 47 213 64 213 9 213 35 214 47 214 9 214 9 215 12 215 35 215 12 216 14 216 190 216 12 217 190 217 79 217 31 218 14 218 16 218 43 219 20 219 0 219 184 220 136 220 183 220 92 221 96 221 24 221 92 222 192 222 172 222 24 223 168 223 192 223 192 224 92 224 24 224 22 225 193 225 23 225 22 226 26 226 193 226 26 227 22 227 145 227 34 228 194 228 138 228 194 229 195 229 138 229 194 230 41 230 195 230 40 231 195 231 41 231 50 232 196 232 111 232 196 233 197 233 111 233 196 234 116 234 197 234 72 235 130 235 198 235 154 236 198 236 67 236 34 237 142 237 145 237 36 238 103 238 37 238 162 239 59 239 60 239 191 240 162 240 69 240 184 241 191 241 136 241 0 242 2 242 43 242 16 243 18 243 29 243 12 244 79 244 35 244 112 245 65 245 64 245 125 246 43 246 2 246 186 247 72 247 198 247 180 248 183 248 136 248 173 249 117 249 59 249 129 250 71 250 63 250 122 251 42 251 43 251 121 252 189 252 62 252 101 253 27 253 190 253 23 254 98 254 30 254 93 255 31 255 16 255 80 256 81 256 20 256 66 257 68 257 62 257 62 258 61 258 60 258 57 259 58 259 49 259 48 260 47 260 35 260 46 261 42 261 39 261 41 262 49 262 40 262 190 263 14 263 73 263 32 264 190 264 27 264 29 265 33 265 25 265 196 266 199 266 200 266 154 267 200 267 201 267 201 268 198 268 154 268 200 269 154 269 196 269 211 270 191 270 184 270 191 271 211 271 202 271 162 272 202 272 203 272 203 273 59 273 162 273 202 274 162 274 191 274 36 275 204 275 205 275 148 276 205 276 206 276 206 277 24 277 148 277 205 278 148 278 36 278 22 279 207 279 208 279 145 280 208 280 209 280 34 281 209 281 210 281 210 282 194 282 34 282 209 283 34 283 145 283 208 284 145 284 22 284 207 285 22 285 24 285 24 286 206 286 207 286 196 287 41 287 210 287 210 288 199 288 196 288 59 289 203 289 204 289 204 290 36 290 59 290 212 291 211 291 184 291 184 292 198 292 212 292 198 293 201 293 212 293 210 294 41 294 194 294 58 295 57 295 213 295 57 296 56 296 214 296 54 297 214 297 56 297 214 298 213 298 57 298 58 299 213 299 215 299 50 300 58 300 216 300 55 301 50 301 217 301 53 302 55 302 218 302 54 303 53 303 219 303 214 304 54 304 221 304 213 305 214 305 223 305 223 306 215 306 213 306 222 307 223 307 214 307 221 308 222 308 214 308 220 309 221 309 54 309 219 310 220 310 54 310 218 311 219 311 53 311 217 312 218 312 55 312 216 313 217 313 50 313 215 314 216 314 58 314 183 315 180 315 224 315 224 316 185 316 183 316 185 317 224 317 226 317 186 318 185 318 228 318 72 319 186 319 229 319 188 320 72 320 230 320 187 321 188 321 230 321 182 322 187 322 231 322 180 323 182 323 232 323 224 324 180 324 233 324 233 325 225 325 224 325 232 326 233 326 180 326 231 327 232 327 182 327 230 328 231 328 187 328 229 329 230 329 72 329 228 330 229 330 186 330 227 331 228 331 185 331 226 332 227 332 185 332 225 333 226 333 224 333 173 334 174 334 235 334 117 335 173 335 236 335 179 336 117 336 237 336 178 337 179 337 238 337 177 338 178 338 238 338 176 339 177 339 239 339 37 340 176 340 240 340 175 341 37 341 241 341 174 342 175 342 241 342 241 343 234 343 174 343 240 344 241 344 37 344 239 345 240 345 176 345 238 346 239 346 177 346 237 347 238 347 179 347 236 348 237 348 117 348 235 349 236 349 173 349 234 350 235 350 174 350 172 351 192 351 242 351 171 352 172 352 243 352 170 353 171 353 244 353 167 354 170 354 245 354 169 355 167 355 245 355 166 356 169 356 246 356 168 357 166 357 247 357 192 358 168 358 249 358 249 359 242 359 192 359 248 360 249 360 168 360 247 361 248 361 168 361 246 362 247 362 166 362 245 363 246 363 169 363 244 364 245 364 170 364 243 365 244 365 171 365 242 366 243 366 172 366 251 367 250 367 68 367 252 368 251 368 68 368 253 369 252 369 163 369 254 370 253 370 163 370 255 371 254 371 161 371 256 372 255 372 61 372 250 373 256 373 165 373 165 374 68 374 250 374 61 375 165 375 256 375 161 376 61 376 255 376 163 377 161 377 254 377 164 378 163 378 252 378 68 379 164 379 252 379 253 380 251 380 252 380 258 381 257 381 156 381 259 382 258 382 156 382 260 383 259 383 155 383 261 384 260 384 157 384 262 385 261 385 159 385 263 386 262 386 158 386 257 387 263 387 158 387 158 388 160 388 257 388 159 389 158 389 262 389 157 390 159 390 261 390 155 391 157 391 260 391 156 392 155 392 259 392 160 393 156 393 257 393 258 394 263 394 257 394 265 395 264 395 25 395 266 396 265 396 151 396 267 397 266 397 150 397 268 398 267 398 150 398 269 399 268 399 149 399 270 400 269 400 149 400 264 401 270 401 152 401 153 402 25 402 264 402 152 403 153 403 264 403 149 404 152 404 270 404 28 405 149 405 268 405 150 406 28 406 268 406 151 407 150 407 266 407 25 408 151 408 265 408 269 409 267 409 268 409 272 410 271 410 142 410 273 411 272 411 143 411 274 412 273 412 144 412 275 413 274 413 27 413 276 414 275 414 146 414 271 415 276 415 146 415 146 416 142 416 271 416 147 417 146 417 275 417 27 418 147 418 275 418 144 419 27 419 274 419 141 420 144 420 273 420 143 421 141 421 273 421 142 422 143 422 272 422 277 423 281 423 195 423 278 424 277 424 40 424 279 425 278 425 140 425 280 426 279 426 137 426 281 427 280 427 138 427 138 428 195 428 281 428 137 429 138 429 280 429 139 430 137 430 279 430 140 431 139 431 279 431 40 432 140 432 278 432 195 433 40 433 277 433 279 434 280 434 283 434 283 435 282 435 279 435 284 436 281 436 277 436 277 437 278 437 285 437 282 438 285 438 278 438 281 439 284 439 283 439 285 440 284 440 277 440 283 441 280 441 281 441 282 442 278 442 279 442 286 443 290 443 284 443 287 444 286 444 284 444 288 445 287 445 285 445 289 446 288 446 282 446 290 447 289 447 283 447 283 448 284 448 290 448 282 449 283 449 289 449 285 450 282 450 288 450 284 451 285 451 287 451 292 452 291 452 181 452 293 453 292 453 69 453 294 454 293 454 66 454 295 455 294 455 134 455 291 456 295 456 70 456 134 457 70 457 295 457 66 458 134 458 294 458 69 459 66 459 293 459 136 460 69 460 292 460 181 461 136 461 292 461 70 462 181 462 291 462 295 463 291 463 297 463 294 464 296 464 298 464 292 465 298 465 297 465 297 466 296 466 295 466 292 467 293 467 298 467 298 468 293 468 294 468 296 469 294 469 295 469 297 470 291 470 292 470 300 471 299 471 297 471 301 472 300 472 297 472 302 473 301 473 298 473 303 474 302 474 298 474 299 475 303 475 296 475 296 476 297 476 299 476 298 477 296 477 303 477 297 478 298 478 301 478 304 479 308 479 131 479 305 480 304 480 131 480 306 481 305 481 130 481 307 482 306 482 71 482 308 483 307 483 127 483 127 484 67 484 308 484 129 485 127 485 307 485 71 486 129 486 307 486 130 487 71 487 306 487 131 488 130 488 305 488 67 489 131 489 308 489 310 490 309 490 307 490 310 491 307 491 308 491 309 492 306 492 307 492 311 493 310 493 308 493 312 494 311 494 304 494 312 495 304 495 305 495 305 496 306 496 309 496 311 497 308 497 304 497 309 498 312 498 305 498 314 499 313 499 312 499 315 500 314 500 312 500 316 501 315 501 309 501 317 502 316 502 310 502 313 503 317 503 311 503 310 504 311 504 317 504 309 505 310 505 316 505 312 506 309 506 315 506 311 507 312 507 313 507 319 508 318 508 120 508 320 509 319 509 60 509 321 510 320 510 119 510 322 511 321 511 118 511 318 512 322 512 122 512 122 513 124 513 318 513 42 514 122 514 322 514 118 515 42 515 322 515 119 516 118 516 321 516 60 517 119 517 320 517 120 518 60 518 319 518 124 519 120 519 318 519 321 520 322 520 324 520 318 521 319 521 326 521 325 522 326 522 320 522 326 523 323 523 318 523 326 524 319 524 320 524 324 525 325 525 321 525 323 526 324 526 322 526 323 527 322 527 318 527 325 528 320 528 321 528 327 529 331 529 323 529 328 530 327 530 326 530 329 531 328 531 326 531 330 532 329 532 325 532 331 533 330 533 325 533 324 534 323 534 331 534 325 535 324 535 331 535 326 536 325 536 329 536 323 537 326 537 327 537 333 538 332 538 197 538 334 539 333 539 116 539 335 540 334 540 114 540 336 541 335 541 110 541 332 542 336 542 111 542 111 543 197 543 332 543 110 544 111 544 336 544 109 545 110 545 335 545 114 546 109 546 335 546 116 547 114 547 334 547 197 548 116 548 333 548 332 549 337 549 338 549 335 550 336 550 338 550 332 551 333 551 340 551 333 552 334 552 339 552 340 553 337 553 332 553 339 554 340 554 333 554 338 555 339 555 335 555 338 556 336 556 332 556 339 557 334 557 335 557 342 558 341 558 337 558 343 559 342 559 340 559 344 560 343 560 339 560 345 561 344 561 339 561 341 562 345 562 338 562 338 563 337 563 341 563 339 564 338 564 345 564 340 565 339 565 343 565 337 566 340 566 342 566 346 567 350 567 107 567 347 568 346 568 104 568 348 569 347 569 38 569 349 570 348 570 103 570 350 571 349 571 107 571 102 572 107 572 349 572 103 573 102 573 349 573 38 574 103 574 348 574 104 575 38 575 347 575 105 576 104 576 346 576 107 577 105 577 346 577 348 578 349 578 351 578 352 579 350 579 346 579 346 580 347 580 353 580 350 581 352 581 351 581 353 582 352 582 346 582 348 583 351 583 353 583 351 584 349 584 350 584 353 585 347 585 348 585 355 586 354 586 352 586 356 587 355 587 353 587 357 588 356 588 353 588 358 589 357 589 351 589 354 590 358 590 352 590 351 591 352 591 358 591 353 592 351 592 357 592 352 593 353 593 355 593 359 594 363 594 26 594 360 595 359 595 101 595 361 596 360 596 23 596 362 597 361 597 23 597 363 598 362 598 193 598 193 599 26 599 363 599 23 600 193 600 362 600 98 601 23 601 360 601 101 602 98 602 360 602 26 603 101 603 359 603 365 604 364 604 362 604 365 605 362 605 363 605 364 606 361 606 362 606 366 607 365 607 363 607 367 608 366 608 359 608 367 609 359 609 360 609 360 610 361 610 364 610 366 611 363 611 359 611 364 612 367 612 360 612 369 613 368 613 367 613 370 614 369 614 367 614 371 615 370 615 364 615 372 616 371 616 365 616 368 617 372 617 366 617 365 618 366 618 372 618 364 619 365 619 371 619 367 620 364 620 370 620 366 621 367 621 368 621 373 622 377 622 97 622 374 623 373 623 95 623 375 624 374 624 94 624 376 625 375 625 96 625 377 626 376 626 92 626 92 627 97 627 377 627 96 628 92 628 376 628 94 629 96 629 375 629 95 630 94 630 374 630 97 631 95 631 373 631 379 632 378 632 115 632 380 633 379 633 113 633 381 634 380 634 64 634 382 635 381 635 47 635 383 636 382 636 109 636 378 637 383 637 109 637 109 638 114 638 378 638 47 639 109 639 382 639 64 640 47 640 381 640 112 641 64 641 380 641 113 642 112 642 380 642 115 643 113 643 379 643 114 644 115 644 378 644 385 645 384 645 189 645 386 646 385 646 189 646 387 647 386 647 124 647 388 648 387 648 123 648 389 649 388 649 43 649 384 650 389 650 125 650 125 651 189 651 384 651 43 652 125 652 389 652 123 653 43 653 388 653 124 654 123 654 387 654 121 655 124 655 386 655 189 656 121 656 386 656 391 657 390 657 30 657 392 658 391 658 31 658 393 659 392 659 93 659 394 660 393 660 76 660 395 661 394 661 91 661 390 662 395 662 30 662 91 663 30 663 395 663 76 664 91 664 394 664 93 665 76 665 393 665 31 666 93 666 392 666 30 667 31 667 391 667 133 668 132 668 396 668 89 669 133 669 396 669 87 670 89 670 398 670 132 671 87 671 399 671 398 672 399 672 87 672 397 673 398 673 89 673 396 674 397 674 89 674 399 675 396 675 132 675 90 676 88 676 401 676 86 677 90 677 402 677 88 678 86 678 403 678 402 679 403 679 86 679 401 680 402 680 90 680 400 681 401 681 88 681 403 682 400 682 88 682 135 683 62 683 404 683 85 684 135 684 405 684 84 685 85 685 406 685 62 686 84 686 407 686 407 687 404 687 62 687 406 688 407 688 84 688 405 689 406 689 85 689 404 690 405 690 135 690 126 691 63 691 408 691 128 692 126 692 408 692 65 693 128 693 409 693 83 694 65 694 410 694 63 695 83 695 411 695 411 696 408 696 63 696 410 697 411 697 83 697 409 698 410 698 65 698 408 699 409 699 128 699 45 700 46 700 412 700 44 701 45 701 413 701 46 702 44 702 415 702 414 703 415 703 44 703 413 704 414 704 44 704 412 705 413 705 45 705 415 706 412 706 46 706 51 707 48 707 416 707 52 708 51 708 418 708 48 709 52 709 420 709 420 710 416 710 48 710 419 711 420 711 52 711 418 712 419 712 52 712 417 713 418 713 51 713 416 714 417 714 51 714 39 715 105 715 421 715 82 716 39 716 422 716 106 717 82 717 423 717 105 718 106 718 425 718 425 719 421 719 105 719 424 720 425 720 106 720 423 721 424 721 106 721 422 722 423 722 82 722 421 723 422 723 39 723 49 724 35 724 426 724 140 725 49 725 428 725 139 726 140 726 429 726 35 727 139 727 430 727 430 728 426 728 35 728 429 729 430 729 139 729 428 730 429 730 140 730 427 731 428 731 49 731 426 732 427 732 49 732 80 733 108 733 431 733 81 734 80 734 432 734 33 735 81 735 434 735 108 736 33 736 435 736 435 737 431 737 108 737 434 738 435 738 33 738 433 739 434 739 81 739 432 740 433 740 81 740 431 741 432 741 80 741 79 742 190 742 436 742 32 743 79 743 437 743 190 744 32 744 438 744 438 745 439 745 190 745 437 746 438 746 32 746 436 747 437 747 79 747 439 748 436 748 190 748 77 749 75 749 443 749 29 750 77 750 440 750 78 751 29 751 441 751 75 752 78 752 442 752 442 753 443 753 75 753 441 754 442 754 78 754 440 755 441 755 29 755 443 756 440 756 77 756 209 757 271 757 290 757 274 758 368 758 444 758 265 759 266 759 354 759 437 760 436 760 445 760 287 761 429 761 215 761 262 762 379 762 409 762 379 763 380 763 409 763 200 764 342 764 263 764 408 765 7 765 316 765 404 766 385 766 250 766 315 767 396 767 300 767 259 768 313 768 201 768 302 769 251 769 202 769 446 770 444 770 368 770 368 771 390 771 447 771 447 772 446 772 368 772 390 773 15 773 448 773 15 774 444 774 448 774 390 775 448 775 447 775 393 776 442 776 441 776 17 777 441 777 440 777 393 778 264 778 443 778 440 779 443 779 264 779 444 780 439 780 438 780 272 781 438 781 437 781 436 782 444 782 13 782 436 783 439 783 444 783 19 784 440 784 434 784 434 785 433 785 19 785 435 786 434 786 440 786 435 787 440 787 265 787 424 788 432 788 431 788 433 789 432 789 424 789 431 790 265 790 424 790 431 791 435 791 265 791 215 792 428 792 427 792 427 793 445 793 215 793 427 794 426 794 445 794 428 795 215 795 429 795 289 796 437 796 430 796 437 797 426 797 430 797 430 798 429 798 289 798 239 799 21 799 422 799 423 800 422 800 21 800 422 801 421 801 239 801 425 802 424 802 354 802 354 803 421 803 425 803 215 804 419 804 418 804 445 805 382 805 416 805 382 806 418 806 417 806 445 807 416 807 420 807 215 808 420 808 419 808 382 809 417 809 416 809 420 810 215 810 445 810 21 811 239 811 414 811 388 812 413 812 412 812 21 813 414 813 413 813 239 814 415 814 414 814 413 815 388 815 21 815 409 816 380 816 410 816 317 817 260 817 409 817 409 818 408 818 317 818 411 819 410 819 7 819 408 820 411 820 7 820 6 821 407 821 406 821 407 822 6 822 384 822 250 823 396 823 405 823 406 824 405 824 396 824 405 825 404 825 250 825 404 826 407 826 384 826 402 827 316 827 7 827 402 828 401 828 316 828 6 829 403 829 402 829 401 830 315 830 316 830 402 831 7 831 6 831 398 832 397 832 400 832 315 833 401 833 400 833 403 834 399 834 398 834 400 835 396 835 315 835 403 836 6 836 399 836 398 837 400 837 403 837 399 838 6 838 406 838 396 839 399 839 406 839 397 840 396 840 400 840 370 841 395 841 390 841 377 842 394 842 395 842 395 843 370 843 377 843 377 844 393 844 394 844 441 845 15 845 391 845 392 846 393 846 441 846 391 847 392 847 441 847 15 848 390 848 391 848 386 849 255 849 385 849 412 850 387 850 388 850 412 851 255 851 387 851 255 852 386 852 387 852 383 853 262 853 418 853 418 854 382 854 383 854 383 855 378 855 262 855 264 856 393 856 373 856 264 857 373 857 374 857 393 858 377 858 373 858 206 859 374 859 375 859 374 860 206 860 264 860 274 861 372 861 368 861 390 862 369 862 370 862 369 863 390 863 368 863 354 864 266 864 358 864 354 865 355 865 421 865 418 866 344 866 345 866 418 867 343 867 344 867 418 868 262 868 343 868 262 869 342 869 343 869 327 870 328 870 255 870 412 871 415 871 330 871 412 872 331 872 327 872 330 873 331 873 412 873 327 874 255 874 412 874 317 875 313 875 260 875 314 876 201 876 313 876 211 877 225 877 301 877 211 878 301 878 302 878 300 879 301 879 225 879 303 880 299 880 396 880 299 881 300 881 396 881 303 882 396 882 250 882 302 883 303 883 250 883 290 884 286 884 209 884 289 885 429 885 288 885 287 886 288 886 429 886 289 887 290 887 272 887 208 888 276 888 271 888 276 889 208 889 275 889 290 890 271 890 272 890 438 891 273 891 274 891 273 892 438 892 272 892 274 893 275 893 372 893 206 894 270 894 264 894 266 895 267 895 358 895 205 896 269 896 270 896 269 897 205 897 267 897 262 898 263 898 342 898 200 899 263 899 258 899 200 900 258 900 259 900 313 901 259 901 260 901 409 902 261 902 262 902 261 903 409 903 260 903 385 904 256 904 250 904 255 905 256 905 385 905 250 906 251 906 302 906 202 907 253 907 254 907 253 908 202 908 251 908 328 909 254 909 255 909 370 910 245 910 244 910 207 911 246 911 245 911 245 912 370 912 207 912 206 913 377 913 249 913 377 914 370 914 243 914 206 915 248 915 247 915 377 916 242 916 249 916 247 917 207 917 206 917 370 918 244 918 243 918 377 919 243 919 242 919 206 920 249 920 248 920 204 921 241 921 240 921 240 922 355 922 204 922 355 923 240 923 239 923 239 924 238 924 415 924 203 925 235 925 234 925 203 926 236 926 235 926 234 927 204 927 203 927 229 928 315 928 230 928 211 929 227 929 226 929 211 930 212 930 227 930 212 931 228 931 227 931 211 932 226 932 225 932 212 933 229 933 228 933 315 934 232 934 231 934 232 935 315 935 300 935 233 936 232 936 300 936 233 937 300 937 225 937 215 938 223 938 287 938 210 939 222 939 221 939 222 940 210 940 223 940 199 941 210 941 220 941 221 942 220 942 210 942 220 943 219 943 199 943 217 944 418 944 345 944 345 945 218 945 217 945 200 946 341 946 342 946 200 947 218 947 341 947 345 948 341 948 218 948 418 949 217 949 216 949 216 950 215 950 418 950 328 951 203 951 202 951 218 952 200 952 199 952 372 953 275 953 208 953 208 954 207 954 372 954 371 955 372 955 207 955 370 956 371 956 207 956 206 957 375 957 376 957 377 958 206 958 376 958 205 959 358 959 267 959 204 960 356 960 357 960 204 961 355 961 356 961 330 962 415 962 237 962 329 963 330 963 236 963 236 964 203 964 329 964 328 965 329 965 203 965 424 966 423 966 21 966 440 967 19 967 17 967 17 968 15 968 441 968 444 969 15 969 13 969 11 970 382 970 445 970 380 971 381 971 11 971 380 972 11 972 10 972 384 973 6 973 3 973 3 974 1 974 388 974 388 975 389 975 3 975 389 976 384 976 3 976 1 977 21 977 388 977 10 978 7 978 380 978 381 979 382 979 11 979 13 980 445 980 436 980 19 981 433 981 21 981 21 982 433 982 424 982 237 983 236 983 330 983 357 984 358 984 204 984 205 985 204 985 358 985 205 986 270 986 206 986 209 987 208 987 271 987 210 988 209 988 286 988 210 989 286 989 223 989 201 990 200 990 259 990 212 991 201 991 314 991 212 992 314 992 229 992 202 993 254 993 328 993 219 994 218 994 199 994 231 995 230 995 315 995 234 996 241 996 204 996 238 997 237 997 415 997 247 998 246 998 207 998 286 999 287 999 223 999 314 1000 315 1000 229 1000 378 1001 379 1001 262 1001 443 1002 442 1002 393 1002 202 1003 211 1003 302 1003 316 1004 317 1004 408 1004 385 1005 404 1005 384 1005 7 1006 410 1006 380 1006 355 1007 239 1007 421 1007 445 1008 426 1008 437 1008 354 1009 424 1009 265 1009 437 1010 289 1010 272 1010 265 1011 440 1011 264 1011 444 1012 438 1012 274 1012 74 1013 99 1013 448 1013 73 1014 74 1014 444 1014 100 1015 73 1015 444 1015 98 1016 100 1016 446 1016 99 1017 98 1017 447 1017 447 1018 448 1018 99 1018 446 1019 447 1019 98 1019 444 1020 446 1020 100 1020 448 1021 444 1021 74 1021</p>
        </triangles>
      </mesh>
    </geometry>
  </library_geometries>
  <library_visual_scenes>
    <visual_scene id="Scene" name="Scene">
      <node id="Interface_Plate" name="Interface Plate" type="NODE">
        <matrix sid="transform">1 0 0 0 0 1 0 0 0 0 1 0 0 0 0 1</matrix>
        <instance_geometry url="#Interface_Plate-mesh" name="Interface Plate"/>
      </node>
    </visual_scene>
  </library_visual_scenes>
  <scene>
    <instance_visual_scene url="#Scene"/>
  </scene>
</COLLADA>